<?xml version="1.0" encoding="UTF-8"?>
<!-- Created with Inkscape (http://www.inkscape.org/) -->
<svg width="46.804mm" height="47.038mm" version="1.1" viewBox="0 0 46.804 47.038" xmlns="http://www.w3.org/2000/svg" xmlns:cc="http://creativecommons.org/ns#" xmlns:dc="http://purl.org/dc/elements/1.1/" xmlns:rdf="http://www.w3.org/1999/02/22-rdf-syntax-ns#">
 <defs>
  <clipPath id="a">
   <path d="m5883.1 10057c-1.64-20.1-19.41-34.9-39.66-33.2-20.26 1.6-35.34 19.2-33.7 39.2 1.64 20.1 19.4 35 39.66 33.3 20.25-1.7 35.33-19.3 33.7-39.3"/>
  </clipPath>
  <clipPath id="b">
   <path d="m6081.9 9679.1v0.14c-1.26 5.71-1.89 11.19-2.09 16.88-0.44 8.24-0.44 16.47-0.64 23.84-0.2 7.58-0.4 14.52-0.63 20.21 0.08 0.05 0.16 0.11 0.24 0.17 0.23-11.66 0.61-27.62 1.17-44.24 0.2-5.69 0.84-11.19 2.09-16.88-0.05-0.04-0.09-0.08-0.14-0.12m-207.39 57.06c0.03 1.44 0.06 2.83 0.08 4.16 0.01 0 0.02-0.01 0.03-0.01v-0.08c0-1.35 0-2.71-0.11-4.07"/>
  </clipPath>
 </defs>
 <metadata>
  <rdf:RDF>
   <cc:Work rdf:about="">
    <dc:format>image/svg+xml</dc:format>
    <dc:type rdf:resource="http://purl.org/dc/dcmitype/StillImage"/>
    <dc:title/>
   </cc:Work>
  </rdf:RDF>
 </metadata>
 <g transform="translate(-5.212 -109.93)">
  <path d="m5.212 156.97h46.804v-47.037h-46.804z" fill="#e6e6e6"/>
  <path d="m41.76 156.38s-0.0593-3.5884-0.20038-3.901c-0.27411-1.2513 0.21484-1.8242-1.711-3.0304-0.01519-7e-3 -0.43709-0.14182-1.0672-0.34996l-0.01479-8e-3c-0.40781-0.1337-0.90417-0.29703-1.4221-0.47625-0.20038-0.0667-0.40005-0.14146-0.60784-0.20849-0.51223-0.18027-1.0213-0.36724-1.4898-0.54645-0.3242-0.12382-0.63217-0.24447-0.8957-0.35454-0.22437-0.0981-0.41945-0.18874-0.57609-0.27129-0.16368-0.0861-0.28539-0.16263-0.3496-0.22719l-0.0451-0.0526-0.0441-0.0589c-0.037-0.2085-0.59267-1.125-0.78564-2.1223v-7e-3c-0.0444-0.20143-0.0667-0.39476-0.0737-0.59549-0.0155-0.29069-0.0155-0.58102-0.0226-0.84102-7e-3 -0.26846-0.0145-0.514-0.0222-0.71508v-0.17145c-7e-3 -0.14182-7e-3 -0.26035-7e-3 -0.3496-7e-3 -0.0896-7e-3 -0.14182-7e-3 -0.14182s0.20743-0.17886 0.51117-0.44662c0.37783-0.34219 0.91828-0.83396 1.385-1.3028 0.50412-0.50659 0.94121-0.99025 1.0375-1.2436 7e-3 -0.0377 0.0145-0.0667 0.0145-0.0892l-0.037 7e-3c-0.23636 0.0374-1.5113 0.2607-2.8818 0.47625-0.81457 0.12664-1.6669 0.254-2.3636 0.3429-0.2741 0.0374-0.52563 0.0593-0.74083 0.0822h-7e-3c-0.20003 0.0226-0.37042 0.0296-0.49636 0.0296-0.14111 0-0.33373-0.0148-0.56304-0.0296h-0.0152c-0.22189-0.03-0.48895-0.06-0.77752-0.097-0.63782-0.0822-1.4002-0.19332-2.141-0.3055-0.68156-0.11112-1.3483-0.2159-1.8747-0.30515-0.12594-0.0219-0.23742-0.037-0.34078-0.0596-0.50341-0.0815-0.82268-0.14112-0.82268-0.14112 0 0.0967 0.0889 0.24589 0.23742 0.43921l7e-3 7e-3c0.11112 0.14923 0.25964 0.32103 0.43674 0.51435 0.1711 0.17886 0.35595 0.36513 0.54857 0.55104 0.58526 0.57291 1.2227 1.1388 1.5339 1.4069 0.11853 0.10407 0.1852 0.16369 0.1852 0.16369s0 0.0522-8e-3 0.14181c0 0.0893 0 0.20779-7e-3 0.34961v0.17145c0 0.0589 0 0.11888-7e-3 0.17815-7e-3 0.3877-0.0226 0.87136-0.0371 1.378-7e-3 0.20073-0.0293 0.39405-0.0734 0.59549-0.19333 0.99765-0.74895 1.9212-0.78599 2.1297l-0.0441 0.0589-0.0448 0.0526c-0.0317 0.0318-0.0836 0.0681-0.14429 0.10724-0.13652 0.0875-0.33761 0.19121-0.58949 0.3101-0.21766 0.097-0.47519 0.20284-0.75353 0.3122-0.65758 0.25894-1.4446 0.54046-2.1946 0.79658-0.0522 0.0152-0.10337 0.0377-0.15558 0.0522-0.55562 0.19332-1.089 0.37218-1.5187 0.51399h-8e-3c-0.6223 0.20814-1.0446 0.34255-1.0594 0.34996-1.9114 1.198-1.4446 1.7716-1.711 3.0078v0.0222c-8e-3 0.0145-0.0152 0.0445-0.0226 0.0889v8e-3c-0.12594 0.6477-0.1778 3.804-0.1778 3.804-3e-3 0.19085-4e-3 0.38876-6e-3 0.58949h25.861c-7.93e-4 -0.20038-0.0021-0.39758-6e-3 -0.58949" fill="#b3b3b3"/>
  <g transform="matrix(.035278 0 0 -.035278 -182 486.23)">
   <g clip-path="url(#b)">
    <path d="m5874.5 9679.1h207.53v61.238h-207.53z" fill="#80777c"/>
   </g>
  </g>
  <g>
   <path d="m28.864 146.61-0.0247-2e-3 -0.0247 2e-3v-3e-3c-0.0688-8e-4 -0.14322 0-0.20249-0.0124-0.96379 0-2.4158-0.93063-3.4897-1.8316 0.0441-0.20073 0.0667-0.39476 0.0741-0.59549 0.0173-0.51894 0.03-1.0199 0.0381-1.4132 4e-3 -0.048 4e-3 -0.096 4e-3 -0.14358v-3e-3c1.2965 0.92392 2.6596 1.602 3.4653 1.602h9e-3c0.037 7e-3 0.0818 7e-3 0.12595 7e-3 0.0448 0 0.0889 0 0.12664-7e-3h9e-3c0.80433 0 2.1639-0.67557 3.4583-1.597 8e-3 0.20074 0.01521 0.44556 0.0222 0.71297 7e-3 0.26 7e-3 0.55033 0.0226 0.84102 7e-3 0.20073 0.0293 0.39405 0.0737 0.59549v5e-3c-1.0738 0.89994-2.5227 1.8274-3.4844 1.8274-0.0596 0.0124-0.13406 0.0117-0.20251 0.0124v3e-3" fill="#999"/>
   <path d="m38.376 131.4c0.18626-1.0301 0.3302-1.8203 0.37535-1.9756 0.02148-0.0741 0.0367-0.14816 0.0586-0.22225 0.01519-0.0917 0.0378-0.17286 0.0522-0.254 0.0367-0.127 0.0589-0.254 0.0885-0.381 7e-3 -0.06 0.0226-0.11641 0.03-0.17639 0.0226-0.14111 0.0522-0.28575 0.0737-0.42686 8e-3 -0.06 0.01521-0.127 0.0226-0.18344 0.0222-0.127 0.0293-0.254 0.0448-0.381 7e-3 -0.0988 0.0141-0.19403 0.0296-0.28222 7e-3 -0.0847 7e-3 -0.16581 0.0145-0.24695 0.0963-1.9438-0.31819-3.9229-1.5854-5.7185-1.5335-2.159-3.2971-4.445-7.1272-4.766h-3.2304c-3.8305 0.32102-5.5933 2.607-7.1272 4.766-1.2668 1.7956-1.6824 3.7747-1.585 5.7185 7e-3 0.0811 7e-3 0.16228 0.0141 0.24695 0.0148 0.0882 0.0222 0.18344 0.03 0.28222 0.0145 0.127 0.0219 0.254 0.0441 0.381 8e-3 0.0564 0.0152 0.12347 0.0226 0.18344 0.0222 0.14111 0.0519 0.28575 0.0741 0.42686 7e-3 0.06 0.0219 0.11642 0.0293 0.17639 0.0296 0.127 0.0522 0.254 0.0889 0.381 0.0152 0.0811 0.0377 0.16228 0.0522 0.254 0.0226 0.0741 0.0367 0.14817 0.0593 0.22225 0.0448 0.1517 0.18768 0.93487 0.37253 1.9579-1.0224-0.50094-2.4405 0.21872-2.2719 2.1086 0.17357 1.9191 2.4952 3.0575 3.2907 3.2526 0.0783 0.34749 0.145 0.60572 0.19368 0.7292 0.69674 1.7646 1.5413 2.293 3.0229 3.7306 1.6157 1.5561 4.0009 3.0156 5.1788 3.0081 0.037 7e-3 0.0818 7e-3 0.12593 7e-3 0.0448 0 0.0889 0 0.12666-7e-3 1.1779 7e-3 3.563-1.452 5.1781-3.0081 1.4817-1.4376 2.3266-1.966 3.0226-3.7306 0.0487-0.12277 0.11501-0.37853 0.19262-0.72285 0.76835-0.17497 3.1418-1.3173 3.3179-3.259 0.17004-1.9075-1.2756-2.6201-2.2998-2.0909" fill="#b3b3b3"/>
   <path d="m39.93 132.46c-0.57609-0.94191-1.4781-0.5468-1.7032-0.34219-0.23742 0.22225-0.42686 0.51858-0.28399 1.0724 0.0762 0.31398 0.40393 0.34079 0.31891 0.81598-0.0921 0.53128-0.33761 0.5648-0.47731 0.68368-0.13934 0.11818-0.31503 0.20885-0.40393 0.43603-0.0857 0.22296-0.10089 0.46179-0.0586 0.6664 0.0889 0.38453 0.64841 0.0861 1.0202-0.0826 0.24659-0.11006 1.0322-0.76658 1.2323-0.98425 0.49918-0.55915 0.74013-1.6376 0.3556-2.2655" fill="#999"/>
  </g>
  <g transform="matrix(.035278 0 0 -.035278 -182 486.23)">
   <g clip-path="url(#a)">
    <path d="m5823.9 10022-15.81 1.3v0.3l20.09-1.6h-4.28" fill="#77a9c4"/>
    <path d="m5819.6 10022-11.53 0.9v0.4l15.81-1.3h-4.28" fill="#77aac4"/>
   </g>
  </g>
  <path d="m17.772 132.46c0.57608-0.94191 1.4781-0.5468 1.7032-0.34219 0.23707 0.22225 0.42686 0.51858 0.28399 1.0724-0.0766 0.31398-0.40395 0.34079-0.31927 0.81598 0.0924 0.53128 0.33795 0.5648 0.47766 0.68368 0.13934 0.11818 0.31502 0.20885 0.40358 0.43603 0.0857 0.22296 0.10124 0.46179 0.0589 0.6664-0.0889 0.38453-0.6484 0.0861-1.0202-0.0826-0.24694-0.11006-1.0326-0.76658-1.2322-0.98425-0.49954-0.55915-0.74013-1.6376-0.3556-2.2655" fill="#999"/>
  <path d="m41.786 156.63s-0.0265-1.8877-0.0956-3.1052c-0.0279-0.49777-0.0631-0.88653-0.10654-0.9839-0.22506-1.0626 0.0684-1.6581-0.87948-2.5322-0.21236-0.19579-0.48577-0.40534-0.84243-0.63712-0.02611 0-0.4445-0.14075-1.0792-0.36689-0.54328-0.18697-1.2372-0.42827-1.9434-0.67697-0.45826-0.17181-0.92287-0.34361-1.361-0.514-0.45578-0.17639-0.87489-0.34396-1.2234-0.49848 0.01 0.13194 0.02011 0.26388 0.02011 0.39864 0 0.82056-0.18909 1.596-0.51894 2.2948-0.88441 1.874-2.8127 3.1771-5.0549 3.1771-2.2426 0-4.1705-1.3032-5.0553-3.1771-0.32984-0.69885-0.51929-1.4743-0.51929-2.2948 0-0.12665 0.0109-0.25047 0.0194-0.37465-0.3302 0.14817-0.71755 0.30586-1.1419 0.47449-0.43815 0.16263-0.90275 0.33443-1.3603 0.49812-0.73307 0.26458-1.44 0.51329-1.9893 0.69285-0.6283 0.22614-1.0541 0.36689-1.0802 0.36689-0.35418 0.23178-0.62582 0.44133-0.83714 0.63712-0.94403 0.87418-0.65899 1.4697-0.88371 2.5322-0.0416 0.0974-0.0762 0.48613-0.10407 0.9839-0.0691 1.2174-0.0991 3.1052-0.0991 3.1052 0 0.109-6e-3 0.22613-6e-3 0.33549h26.149c-6e-3 -0.10936-6e-3 -0.22649-6e-3 -0.33549" fill="#4d4d4d"/>
 </g>
</svg>
