<?xml version="1.0" encoding="UTF-8"?>
<svg width="193.05mm" height="99.028mm" version="1.1" viewBox="0 0 193.05 99.028" xmlns="http://www.w3.org/2000/svg" xmlns:cc="http://creativecommons.org/ns#" xmlns:dc="http://purl.org/dc/elements/1.1/" xmlns:rdf="http://www.w3.org/1999/02/22-rdf-syntax-ns#">
 <metadata>
  <rdf:RDF>
   <cc:Work rdf:about="">
    <dc:format>image/svg+xml</dc:format>
    <dc:type rdf:resource="http://purl.org/dc/dcmitype/StillImage"/>
    <dc:title/>
   </cc:Work>
  </rdf:RDF>
 </metadata>
 <g transform="translate(-9.1915 -28.358)">
  <g>
   <path transform="matrix(.26458 0 0 .26458 9.1915 28.358)" d="m102.64 0.29688c-27.76 0.57543-55.154 20.385-66.412 62.502-9.3543 47.361 9.0917 69.866 9.0898 103.1-26.845 9.7185-33.153 21.641-38.75 45.918l-5.4199 0.0273 3.0996 10.715c-0.63969 3.0851-1.2672 6.1307-1.9824 9.5684-1.9589 20.85-8.5648 48.527 22.127 60.049l4.9355 17.057 155.47-1.0254 3.4492-14.402c18.098-7.2157 13.612-26.713 15.627-65.264l4.2441-17.721-4.7793 0.0234c-3.608-28.103-20.534-45.316-42.465-44.586 13.084-31.935 20.078-63.222 14.594-98.279-9.4405-44.284-41.369-68.338-72.83-67.685zm14.377 30.471c20.06 23.183 28.002 23.046 36.912 28.861 7.3862 8.2512 8.6207 9.0468 10.475 28.719 0.55677 12.771-1.7208 13.6-5.6074 29.078-5.9455 11.308-13.711 24.113-31.031 26.727l-1.5469 18.85c3.156 3.4172 7.972 7.1949 19.041 12.336-4.0424 16.685-20.576 26.567-39.41 35.195-17.622-8.3571-31.63-19.667-39.295-36.158 19.806-5.8353 26.523-12.988 26.523-12.988l-0.33203-17.234c-14.313-4.818-18.559-10.571-30.684-23.455-3.4622-8.6748-12.328-16.829-10.359-46.666 1.3688-11.8 17.824-15.359 17.824-15.359s18.275-4.5665 47.49-27.904zm81.904 188.65-21.15 82.074-141.01 0.86524-25.557-82.074z" stroke="#000" stroke-width=".5759px"/>
   <g>
    <ellipse cx="36.99" cy="98.298" rx="3.381" ry="3.4288" stroke-width=".15237"/>
    <path transform="matrix(.26458 0 0 .26458 9.1915 28.358)" d="m618.94 3.8613c-35.022 0-63.412 34.912-63.412 77.979 0.0189 30.812 8.0666 59.707 29.049 75.164-28.987 4.5912-49.894 14.999-62.191 29.467h-5.291l0.46679 6.5957c-5.3747 8.5925-8.1347 18.33-8.1523 28.938-2.0192 26.195 3.4269 42.751 13.957 53.217l2.377 33.646h184.47l2.8945-33.518c11.476-10.435 17.732-27.006 16.322-53.346-0.0198-11.059-3.1341-21.177-9.123-30.033l0.47461-5.5h-4.6934c-12.71-14.623-34.257-25.093-63.604-29.588 23.775-14.505 29.832-44.317 29.865-75.043 0-43.067-28.392-77.979-63.414-77.979zm38.629 52.988c16.602-0.18959 19.95 7.4065 18.059 39.797-1.7301 29.625-10.886 49.395-33.693 60.713l-3.0391 17.23c-19.644 9.909-23.623 9.4312-41.982 0.48828 0 0-1.3239-10.296-2.3535-18.797-21.691-10.365-32.79-35.101-33.268-63.584-0.96079-57.253 10.469-26.218 58.129-31.586 17.12-1.9283 29.452-4.1624 38.148-4.2617zm-136.19 135.54h195.12l-10.125 112.53h-176.71z" stroke-width=".97385"/>
    <rect x="167.61" y="94.149" width="11.694" height="3.3951" stroke-width=".25767"/>
   </g>
  </g>
  <path d="m49.337 109.1 8.7608 17.752 92.68-0.46109 11.066-16.369-0.4611-0.23055" fill="none" stroke="#000" stroke-width="1.0583"/>
 </g>
</svg>
