<?xml version="1.0" encoding="UTF-8"?>
<!-- Created with Inkscape (http://www.inkscape.org/) -->
<svg width="46.804mm" height="47.037mm" version="1.1" viewBox="0 0 46.804 47.037" xmlns="http://www.w3.org/2000/svg" xmlns:cc="http://creativecommons.org/ns#" xmlns:dc="http://purl.org/dc/elements/1.1/" xmlns:rdf="http://www.w3.org/1999/02/22-rdf-syntax-ns#">
 <defs>
  <clipPath id="a">
   <path d="m7470.3 3392.1c-1.64-20.02-19.41-34.9-39.67-33.21s-35.33 19.29-33.69 39.28c1.63 20.05 19.39 34.93 39.66 33.25 20.24-1.7 35.33-19.29 33.7-39.32"/>
  </clipPath>
  <clipPath id="b">
   <path d="m7211.3 3390.1c-1.64-20.03-19.41-34.9-39.66-33.21-20.27 1.68-35.34 19.28-33.7 39.27 1.64 20.06 19.4 34.94 39.66 33.25 20.25-1.69 35.33-19.29 33.7-39.31"/>
  </clipPath>
 </defs>
 <metadata>
  <rdf:RDF>
   <cc:Work rdf:about="">
    <dc:format>image/svg+xml</dc:format>
    <dc:type rdf:resource="http://purl.org/dc/dcmitype/StillImage"/>
    <dc:title/>
   </cc:Work>
  </rdf:RDF>
 </metadata>
 <g transform="translate(-52.193 -129.85)">
  <g>
   <path d="m98.997 176.89h-46.804v-47.037h46.804v47.037" fill="#b53969"/>
   <path d="m89.388 146.8c-0.24059-2.6497-0.877-4.765-0.877-4.765s-0.02011 0.0194-0.0547 0.0568c-0.76411-2.5901-2.0369-3.9917-2.0369-3.9917v2e-3c-0.61948-0.8763-1.4965-1.7981-2.5693-2.7051-2.2017-1.8563-3.5856-1.4746-5.4067-1.421l-0.0148 0.0303c-0.80046-0.16157-5.1022-0.9659-7.6606-0.0769-2.8296 0.98636-5.1435 2.6751-6.7793 7.2122-0.25223 0.69814-0.43215 1.3772-0.55738 2.0309-0.37007 0.75847-0.53658 1.5025-0.60572 2.111l-0.0427-6e-3s-1.4242 7.1378-5.4384 8.5623c0 0 3.0491 0.70626 5.4638-2.9556 0.0554 0.72496 0.15452 1.4594 0.3108 2.1749-0.13265 0.94227-0.29351 1.7201-0.29351 2.2222 0 3.5493 2.8335 6.4908 2.3985 10.063-0.28998 2.3566-1.4499 4.1829-1.4499 4.1829s1.3272-1.6126 1.8711-3.1246c0.54363-1.5131 0.3616-4.2351-0.54398-6.4029-0.46355-1.1112-0.59479-2.3269-0.5387-3.5077 0.0776 0.10654 0.15734 0.21131 0.24025 0.31291 0 0-0.0991-0.30127-0.20955-0.77152 0.0508-0.58491 0.14499-1.1568 0.26105-1.6962 0.0201-0.0942 0.0413-0.18909 0.0621-0.28046 0.0261-0.10865 0.0547-0.20849 0.0818-0.31362 0.25189 0.48825 0.52917 0.94757 0.82268 1.3776 0.0187 0.0575 0.0363 0.11642 0.0557 0.1718 0.18733 0.56974 0.44627 1.0986 0.67028 1.6002 0.21837 0.50201 0.44521 0.97332 0.61454 1.4319 0.15628 0.45579 0.29739 0.88759 0.36971 1.2982 0.0427 0.20461 0.0639 0.40499 0.0801 0.59232 0.0286 0.19226 0.0349 0.37288 0.0325 0.54468 0.0169 0.34149-0.0187 0.64171-0.03 0.89394-0.0617 0.50024-0.0991 0.78776-0.0991 0.78776s0.0325-0.0667 0.0956-0.19156c0.0572-0.12877 0.16299-0.30868 0.25647-0.55492 0.0804-0.24695 0.2092-0.54469 0.27129-0.9017 0.0843-0.35595 0.14146-0.76553 0.12982-1.2171 0.0141-0.60008-0.11042-1.2647-0.30374-1.9452 1.041 0.9966 1.8697 1.5448 1.8697 1.5448s-1.2153-1.3398-1.7593-2.6776c-0.42228-1.0368-1.0527-2.8187-1.0527-5.442 0-0.12065 7e-3 -0.24412 0.0183-0.3676 0.037-0.14181 0.0691-0.2861 0.11183-0.42615 0.16581-0.54963 0.35631-1.077 0.5461-1.5783 0.28893-0.35278 0.62689-0.76129 1.0086-1.1779-0.20356 0.59795-0.37677 1.2672-0.45332 1.9576-0.25295 2.2401 1.0777 3.9726 1.0777 3.9726s-0.26635-2.6589 0.66428-4.777c0.46567-1.0647 1.234-1.9918 2.491-2.3763l-2e-3 5e-3c-0.67522 1.7177 0.68156 3.1598 0.68156 3.1598s5e-3 -0.43109 0.13865-1.095c0.15381-0.75706 0.47589-1.8172 1.1497-2.8917 0.41275 0.26317 0.82373 0.64171 1.2256 1.1698 1.3938 1.8295 1.2534 3.1595 8.7799 3.2988 0.22825 0.62865 0.37783 1.2735 0.37783 1.8838 0 2.6229-0.63042 4.4037-1.0516 5.4416-0.54399 1.3374-1.7597 2.6779-1.7597 2.6779s0.66181-0.43815 1.5452-1.2432c-0.0469 0.30586-0.073 0.60395-0.0681 0.88618-0.01 0.45155 0.0473 0.86113 0.13123 1.2171 0.0621 0.35701 0.19086 0.65475 0.27129 0.9017 0.0935 0.24624 0.19932 0.42615 0.25647 0.55492 0.0632 0.12488 0.096 0.19156 0.096 0.19156s-0.0378-0.28752-0.1009-0.78776c-0.0109-0.25223-0.0469-0.55245-0.0286-0.89394-0.0021-0.1718 4e-3 -0.35242 0.031-0.54468 0.01619-0.18733 0.037-0.38771 0.0819-0.59232 0.0709-0.41063 0.21166-0.84243 0.36971-1.2982 0.1531-0.41487 0.35383-0.84314 0.55209-1.2936 0.63324-0.75812 1.2577-1.6489 1.7614-2.6564 0.3743 1.748 0.49848 3.8262-0.25364 5.625-0.90558 2.1678-1.0876 4.8898-0.54505 6.4029 0.54505 1.512 1.8722 3.1246 1.8722 3.1246s-1.1599-1.8263-1.4485-4.1829c-0.43709-3.5722 2.3971-6.5137 2.3971-10.063 0-0.45191-0.13124-1.1278-0.254-1.9456 0.26387-0.63536 0.4512-1.3159 0.57502-2.0175 2.359 3.1697 5.1604 2.5217 5.1604 2.5217-2.836-1.0065-4.3787-4.8616-5.0401-7.04" fill="#fff"/>
   <path d="m88.795 176.3s-0.0593-3.5881-0.20038-3.9007c-0.27446-1.2513 0.21485-1.8242-1.711-3.0307-0.01519-7e-3 -0.43709-0.14181-1.0671-0.34995l-0.01479-8e-3c-0.40781-0.13371-0.90417-0.2974-1.4221-0.47625-0.20037-0.067-0.40005-0.14182-0.60783-0.2085-0.51224-0.18062-1.0213-0.36759-1.4898-0.5468-0.32421-0.12383-0.63218-0.24448-0.89571-0.35419-0.22471-0.0981-0.41945-0.18909-0.57608-0.27129-0.16404-0.0861-0.28575-0.16298-0.34996-0.22754l-0.0448-0.0522-0.0441-0.0589c-0.037-0.20885-0.59266-1.125-0.78563-2.1223v-7e-3c-0.0441-0.20144-0.0667-0.39511-0.0737-0.59549-0.01521-0.29104-0.01521-0.58103-0.0226-0.84138-7e-3 -0.26811-0.0145-0.51399-0.0226-0.71472v-0.17145c-7e-3 -0.14182-7e-3 -0.26035-7e-3 -0.34996-7e-3 -0.0892-7e-3 -0.14182-7e-3 -0.14182s0.20743-0.17886 0.51117-0.44626c0.37783-0.34255 0.91829-0.83397 1.385-1.3032 0.50412-0.50659 0.94121-0.99025 1.0372-1.2432 7e-3 -0.0377 0.01479-0.067 0.01479-0.0896l-0.037 7e-3c-0.23636 0.037-1.5113 0.26035-2.8818 0.47625-0.81455 0.12666-1.6669 0.25366-2.3636 0.34256-0.27411 0.0377-0.52599 0.0596-0.74083 0.0822h-7e-3c-0.20002 0.0222-0.37042 0.0296-0.49636 0.0296-0.14111 0-0.33337-0.0145-0.56303-0.0296h-0.0152c-0.2219-0.03-0.48895-0.0596-0.77788-0.0967-0.63711-0.0822-1.3998-0.19368-2.1406-0.30551-0.68157-0.11113-1.3487-0.2159-1.8747-0.30551-0.12594-0.0219-0.23742-0.037-0.34079-0.0596-0.50341-0.0811-0.82232-0.14111-0.82232-0.14111 0 0.097 0.0885 0.24589 0.23707 0.43921l7e-3 7e-3c0.11113 0.14887 0.25965 0.32068 0.43674 0.514 0.17075 0.17886 0.35596 0.36512 0.54857 0.55104 0.58526 0.57291 1.2227 1.1388 1.5339 1.4069 0.11853 0.10443 0.18486 0.16369 0.18486 0.16369s0 0.0526-7e-3 0.14182c0 0.0896 0 0.20814-8e-3 0.34996v0.17145c0 0.0589 0 0.11853-7e-3 0.17815-7e-3 0.3877-0.0226 0.87101-0.037 1.378-7e-3 0.20038-0.0293 0.39405-0.0737 0.59549-0.19297 0.99765-0.7486 1.9209-0.78564 2.1297l-0.0441 0.0589-0.0448 0.0522c-0.0318 0.0321-0.0836 0.0684-0.14428 0.10725-0.13688 0.0878-0.33761 0.1912-0.5895 0.31009-0.21766 0.0974-0.47519 0.2032-0.75353 0.31256-0.65758 0.25859-1.4446 0.54045-2.1946 0.79622-0.0522 0.0152-0.10372 0.0378-0.15557 0.0522-0.55563 0.19367-1.0894 0.37253-1.5187 0.514h-8e-3c-0.6223 0.20814-1.0446 0.3429-1.0594 0.34995-1.9114 1.1984-1.445 1.772-1.711 3.0081v0.0225c-8e-3 0.0145-0.0152 0.0441-0.0226 0.0885v8e-3c-0.12594 0.6477-0.1778 3.804-0.1778 3.804-3e-3 0.19121-4e-3 0.38911-6e-3 0.58949h25.861c-7.94e-4 -0.20038-0.0021-0.39758-6e-3 -0.58949" fill="#fbcbc2"/>
   <path d="m79.59 164.68c-0.0441-0.20073-0.0667-0.39476-0.0737-0.59549-0.0226-0.67027-0.037-1.3102-0.0445-1.7276-1.1112 0.49848-2.2525 0.78952-3.3712 0.78952-0.0667 0.013-0.15134 0.013-0.22719 0.013-0.0762 0-0.16086 0-0.22719-0.013-1.1194 0-2.2602-0.29104-3.3715-0.78952-7e-3 0.41734-0.0219 1.0573-0.0445 1.7276-7e-3 0.20073-0.0296 0.39476-0.0741 0.59549 1.0742 0.901 2.5262 1.8316 3.49 1.8316 0.0593 0.0123 0.13371 0.0116 0.2025 0.0123v3e-3l0.0247-1e-3 0.0243 1e-3v-3e-3c0.0688-8e-4 0.14358 0 0.20285-0.0123 0.96344 0 2.4155-0.93063 3.4893-1.8316" fill="#d29490"/>
   <path d="m85.411 151.32c0.18591-1.0301 0.3302-1.82 0.37536-1.9745 0.02151-0.0741 0.0367-0.14887 0.0586-0.22296 0.01521-0.0896 0.0374-0.1718 0.0519-0.25329 0.037-0.12629 0.0589-0.25365 0.0889-0.38029 7e-3 -0.0596 0.0226-0.11818 0.03-0.17816 0.0222-0.14181 0.0519-0.28328 0.0737-0.42439 8e-3 -0.0596 0.01519-0.12665 0.0226-0.18627 0.0222-0.12664 0.0289-0.25294 0.0448-0.37958 7e-3 -0.0967 0.0141-0.19403 0.0296-0.28293 7e-3 -0.0819 7e-3 -0.16404 0.0145-0.24554 0.0963-1.9438-0.31856-3.9243-1.5854-5.7189-1.5339-2.1586-3.2967-4.4446-7.1272-4.7646h-3.2304c-3.8305 0.31997-5.5933 2.606-7.1272 4.7646-1.2668 1.7946-1.682 3.7751-1.585 5.7189 7e-3 0.0815 7e-3 0.16369 0.0145 0.24554 0.0145 0.0889 0.0219 0.18626 0.0296 0.28293 0.0145 0.12664 0.0219 0.25294 0.0441 0.37958 8e-3 0.0596 0.0152 0.12665 0.0222 0.18627 0.0226 0.14111 0.0522 0.28258 0.0748 0.42439 7e-3 0.06 0.0215 0.11854 0.0289 0.17816 0.0296 0.12664 0.0519 0.254 0.0889 0.38029 0.0152 0.0815 0.0378 0.16369 0.0519 0.25329 0.0226 0.0741 0.037 0.14888 0.0596 0.22296 0.0445 0.15346 0.18768 0.93663 0.37254 1.9597-1.0224-0.50235-2.4405 0.2159-2.2719 2.1071 0.17356 1.9191 2.4952 3.0575 3.2907 3.2526 0.0783 0.34749 0.14499 0.60537 0.19367 0.72884 0.69674 1.765 1.5413 2.2934 3.023 3.731 1.6154 1.5558 4.0008 3.0152 5.1788 3.0078 0.0367 7e-3 0.0819 7e-3 0.12595 7e-3 0.0448 0 0.0889 0 0.12664-7e-3 1.1776 7e-3 3.5631-1.452 5.1781-3.0078 1.4817-1.4376 2.3266-1.966 3.0226-3.731 0.0487-0.12276 0.11465-0.37853 0.19261-0.72284 0.76835-0.17498 3.1418-1.3173 3.3179-3.2586 0.17004-1.9089-1.2757-2.6215-2.2998-2.0923" fill="#fbcbc2"/>
   <path d="m86.965 152.38c-0.57608-0.94015-1.4785-0.54539-1.7032-0.33972-0.23742 0.22189-0.42686 0.51611-0.28434 1.0732 0.0766 0.31185 0.40429 0.33902 0.31927 0.81385-0.0921 0.53164-0.33761 0.5648-0.47731 0.68404-0.13935 0.11818-0.31503 0.20849-0.40393 0.43568-0.0857 0.22296-0.1009 0.46214-0.0586 0.66675 0.0889 0.38453 0.6484 0.0861 1.0202-0.0829 0.24659-0.11007 1.0322-0.76659 1.2319-0.98425 0.49953-0.5588 0.74048-1.6358 0.35595-2.2666" fill="#eaada6"/>
   <path d="m74.235 160.45c-0.037-0.49177 1.373 0.10337 1.8358 0.11748 0.36936 0.0123 1.4792-0.073 1.5815-0.11183 0.77576-0.28963-0.0423 0.82232-1.6044 0.88053-0.71543 0.0286-1.7914-0.58773-1.8129-0.88618" fill="#eaada6"/>
   <path d="m78.882 159.82c-0.89394-0.16721-2.7778-0.53304-2.7778-0.53304-1.5529 0.25753-2.7686 0.5274-2.7774 0.53798-0.037 4e-3 1.2404 1.1511 2.7562 1.0728 1.5162 0.0783 2.836-1.0728 2.7989-1.0777" fill="#c14d67"/>
   <path d="m76.993 158.97c-0.40288-0.0441-0.68051 0.19191-0.88724 0.17075-0.2099 0.0194-0.48578-0.21484-0.88865-0.17075-0.57432 0.12277-0.84808 0.4886-1.8905 0.85231 0.037 0.0713 0.70485-0.0868 1.9558-0.0656 0.0176 0 0.35348 0.19014 0.83079 0.18661 0.29845-2e-3 0.70838-0.20072 0.72425-0.20072 1.2527-0.0198 2.0179 0.15275 2.0532 0.0836-1.3779-0.42615-1.325-0.73166-1.8976-0.85619" fill="#d85b6c"/>
   <path d="m76.846 156.61c0.2032-0.13653 0.44097-0.072 0.44097-0.072l-8e-3 0.0138c-0.0483 0.0808-0.32103 0.52034-0.53834 0.51399 6e-3 -4e-3 -0.0476-0.0402-0.061-0.14605-0.0173-0.10406 0.0677-0.24023 0.16651-0.30974" fill="#ae8365"/>
   <path d="m74.103 156.47c-0.0392-0.98531 1.5187-0.35984 2.0324-0.32915 0.40746 0.0247 1.6415-0.30973 1.7484-0.22436 0.72637 0.58526-0.77188 1.7621-1.7731 1.7621-0.26776 0-1.9833-0.61312-2.0077-1.2086" fill="#eaada6"/>
   <path d="m75.283 156.59c-0.20355-0.13652-0.44133-0.072-0.44133-0.072l8e-3 0.0141c0.0483 0.0804 0.32103 0.51999 0.53834 0.51364-6e-3 -4e-3 0.0476-0.0402 0.0614-0.14605 0.0173-0.10407-0.0681-0.24024-0.16651-0.30974" fill="#c18985"/>
   <path d="m73.834 149.18s-0.23777-0.23883-0.67416-0.52987c-0.20955-0.15346-0.48013-0.28786-0.76905-0.42615-0.2914-0.13441-0.61913-0.2413-0.95673-0.29951-0.3355-0.0769-0.68263-0.096-1.0121-0.0914-0.1651 0.0113-0.32491 0.0229-0.47625 0.0332-0.15346 7e-3 -0.29387 0.048-0.42792 0.0677-0.26917 0.0392-0.48789 0.10548-0.64488 0.14464-0.1591 0.0377-0.24977 0.0589-0.24977 0.0589s0.079-0.0494 0.21731-0.13618c0.14253-0.0755 0.3355-0.22225 0.60396-0.31467 0.26-0.11395 0.57926-0.21661 0.93557-0.28434 0.35807-0.048 0.74859-0.0741 1.1398-0.0303 0.38876 0.0529 0.76976 0.16298 1.1095 0.30515 0.33902 0.14464 0.629 0.33443 0.86148 0.51294 0.4632 0.35384 0.68898 0.70062 0.68898 0.70062l3e-3 5e-3c0.0684 0.10477 0.0392 0.24553-0.0656 0.31397-0.0907 0.0596-0.20884 0.0444-0.28293-0.03" fill="#3f3a37"/>
   <path d="m68.384 150.78s0.86677 2.1685 2.2126 2.3798c1.3455 0.21166 2.7802-0.0974 2.7802-0.0974s0.0363-2.5192-0.66287-2.8677c-0.69779-0.3496-2.2962-0.87101-4.33 0.58526" fill="#fff"/>
  </g>
  <g transform="matrix(.035278 0 0 -.035278 -181.83 270.96)">
   <g clip-path="url(#b)">
    <path d="m7213 3417.6-76.63 6.36v7.13h76.63v-13.49" fill="#222d36"/>
    <path d="m7213 3417.2-76.63 6.36v0.36l76.63-6.36v-0.36" fill="#222d36"/>
    <path d="m7213 3416.9-76.63 6.36v0.35l76.63-6.36v-0.35" fill="#232e38"/>
    <path d="m7213 3416.5-76.63 6.36v0.36l76.63-6.36v-0.36" fill="#242f39"/>
    <path d="m7213 3416.2-76.63 6.36v0.35l76.63-6.36v-0.35" fill="#25313a"/>
    <path d="m7213 3415.8-76.63 6.36v0.36l76.63-6.36v-0.36" fill="#26323c"/>
    <path d="m7213 3415.5-76.63 6.35v0.36l76.63-6.36v-0.35" fill="#26333d"/>
    <path d="m7213 3415.1-76.63 6.36v0.35l76.63-6.35v-0.36" fill="#27343f"/>
    <path d="m7213 3414.8-76.63 6.36v0.36l76.63-6.36v-0.36" fill="#283540"/>
    <path d="m7213 3414.4-76.63 6.36v0.35l76.63-6.36v-0.35" fill="#293741"/>
    <path d="m7213 3414.1-76.63 6.36v0.35l76.63-6.36v-0.35" fill="#2a3843"/>
    <path d="m7213 3413.7-76.63 6.36v0.36l76.63-6.36v-0.36" fill="#2a3944"/>
    <path d="m7213 3413.3-76.63 6.36v0.36l76.63-6.36v-0.36" fill="#2b3a45"/>
    <path d="m7213 3413-76.63 6.36v0.35l76.63-6.36v-0.35" fill="#2c3b46"/>
    <path d="m7213 3412.6-76.63 6.36v0.35l76.63-6.36v-0.35" fill="#2d3c48"/>
    <path d="m7213 3412.3-76.63 6.36v0.36l76.63-6.36v-0.36" fill="#2e3d49"/>
    <path d="m7213 3411.9-76.63 6.35v0.36l76.63-6.36v-0.35" fill="#2e3e4a"/>
    <path d="m7213 3411.6-76.63 6.36v0.35l76.63-6.35v-0.36" fill="#2f404b"/>
    <path d="m7213 3411.2-76.63 6.36v0.35l76.63-6.36v-0.35" fill="#30414d"/>
    <path d="m7213 3410.9-76.63 6.36v0.36l76.63-6.36v-0.36" fill="#31424e"/>
    <path d="m7213 3410.5-76.63 6.37v0.35l76.63-6.36v-0.36" fill="#31434f"/>
    <path d="m7213 3410.2-76.63 6.36v0.36l76.63-6.37v-0.35" fill="#324451"/>
    <path d="m7213 3409.8-76.63 6.37v0.35l76.63-6.36v-0.36" fill="#334552"/>
    <path d="m7213 3409.4-76.63 6.36v0.36l76.63-6.37v-0.35" fill="#334653"/>
    <path d="m7213 3409.1-76.63 6.35v0.36l76.63-6.36v-0.35" fill="#344754"/>
    <path d="m7213 3408.7-76.63 6.36v0.35l76.63-6.35v-0.36" fill="#354855"/>
    <path d="m7213 3408.4-76.63 6.37v0.35l76.63-6.36v-0.36" fill="#364957"/>
    <path d="m7213 3408-76.63 6.36v0.36l76.63-6.37v-0.35" fill="#364a58"/>
    <path d="m7213 3407.7-76.63 6.36v0.35l76.63-6.36v-0.35" fill="#374b59"/>
    <path d="m7213 3407.3-76.63 6.36v0.36l76.63-6.36v-0.36" fill="#384d5a"/>
    <path d="m7213 3407-76.63 6.36v0.36l76.63-6.36v-0.36" fill="#384e5b"/>
    <path d="m7213 3406.6-76.63 6.36v0.35l76.63-6.36v-0.35" fill="#394e5c"/>
    <path d="m7213 3406.2-76.63 6.36v0.35l76.63-6.36v-0.35" fill="#3a505e"/>
    <path d="m7213 3405.9-76.63 6.36v0.36l76.63-6.36v-0.36" fill="#3b515f"/>
    <path d="m7213 3405.5-76.63 6.36v0.36l76.63-6.36v-0.36" fill="#3b5260"/>
    <path d="m7213 3405.2-76.63 6.36v0.35l76.63-6.36v-0.35" fill="#3c5361"/>
    <path d="m7213 3404.8-76.63 6.36v0.35l76.63-6.36v-0.35" fill="#3d5462"/>
    <path d="m7213 3404.5-76.63 6.36v0.36l76.63-6.36v-0.36" fill="#3d5564"/>
    <path d="m7213 3404.1-76.63 6.36v0.36l76.63-6.36v-0.36" fill="#3e5665"/>
    <path d="m7213 3403.8-76.63 6.36v0.35l76.63-6.36v-0.35" fill="#3f5766"/>
    <path d="m7213 3403.4-76.63 6.37v0.35l76.63-6.36v-0.36" fill="#3f5867"/>
    <path d="m7213 3403-76.63 6.36v0.36l76.63-6.37v-0.35" fill="#405968"/>
    <path d="m7213 3402.7-76.63 6.35v0.36l76.63-6.36v-0.35" fill="#415969"/>
    <path d="m7213 3402.3-76.63 6.36v0.35l76.63-6.35v-0.36" fill="#415a6a"/>
    <path d="m7213 3402-76.63 6.36v0.36l76.63-6.36v-0.36" fill="#425c6b"/>
    <path d="m7213 3401.6-76.63 6.36v0.35l76.63-6.36v-0.35" fill="#435c6c"/>
    <path d="m7213 3401.3-76.63 6.35v0.36l76.63-6.36v-0.35" fill="#435d6d"/>
    <path d="m7213 3400.9-76.63 6.36v0.35l76.63-6.35v-0.36" fill="#445e6f"/>
    <path d="m7213 3400.6-76.63 6.36v0.36l76.63-6.36v-0.36" fill="#455f70"/>
    <path d="m7213 3400.2-76.63 6.36v0.35l76.63-6.36v-0.35" fill="#456071"/>
    <path d="m7213 3399.9-76.63 6.36v0.35l76.63-6.36v-0.35" fill="#466172"/>
    <path d="m7213 3399.5-76.63 6.36v0.36l76.63-6.36v-0.36" fill="#466273"/>
    <path d="m7213 3399.1-76.63 6.36v0.36l76.63-6.36v-0.36" fill="#476374"/>
    <path d="m7213 3398.8-76.63 6.36v0.35l76.63-6.36v-0.35" fill="#486475"/>
    <path d="m7213 3398.4-76.63 6.35v0.36l76.63-6.36v-0.35" fill="#486576"/>
    <path d="m7213 3398.1-76.63 6.36v0.35l76.63-6.35v-0.36" fill="#496677"/>
    <path d="m7213 3397.7-76.63 6.36v0.36l76.63-6.36v-0.36" fill="#4a6778"/>
    <path d="m7213 3397.4-76.63 6.36v0.35l76.63-6.36v-0.35" fill="#4a6779"/>
    <path d="m7213 3397-76.63 6.37v0.35l76.63-6.36v-0.36" fill="#4b687a"/>
    <path d="m7213 3396.7-76.63 6.36v0.36l76.63-6.37v-0.35" fill="#4b697b"/>
    <path d="m7213 3396.3-76.63 6.36v0.36l76.63-6.36v-0.36" fill="#4c6a7c"/>
    <path d="m7213 3396-76.63 6.36v0.35l76.63-6.36v-0.35" fill="#4c6b7d"/>
    <path d="m7213 3395.6-76.63 6.36v0.36l76.63-6.36v-0.36" fill="#4d6c7e"/>
    <path d="m7213 3395.2-76.63 6.36v0.35l76.63-6.36v-0.35" fill="#4e6d7f"/>
    <path d="m7213 3394.9-76.63 6.35v0.36l76.63-6.36v-0.35" fill="#4e6d80"/>
    <path d="m7213 3394.5-76.63 6.36v0.35l76.63-6.35v-0.36" fill="#4f6e81"/>
    <path d="m7213 3394.2-76.63 6.36v0.36l76.63-6.36v-0.36" fill="#4f6f82"/>
    <path d="m7213 3393.8-76.63 6.36v0.35l76.63-6.36v-0.35" fill="#507083"/>
    <path d="m7213 3393.5-76.63 6.37v0.35l76.63-6.36v-0.36" fill="#507184"/>
    <path d="m7213 3393.1-76.63 6.36v0.36l76.63-6.37v-0.35" fill="#517284"/>
    <path d="m7213 3392.8-76.63 6.36v0.36l76.63-6.36v-0.36" fill="#527285"/>
    <path d="m7213 3392.4-76.63 6.36v0.35l76.63-6.36v-0.35" fill="#527386"/>
    <path d="m7213 3392-76.63 6.35v0.36l76.63-6.36v-0.35" fill="#537487"/>
    <path d="m7213 3391.7-76.63 6.36v0.35l76.63-6.35v-0.36" fill="#537588"/>
    <path d="m7213 3391.3-76.63 6.36v0.36l76.63-6.36v-0.36" fill="#547689"/>
    <path d="m7213 3391-76.63 6.36v0.35l76.63-6.36v-0.35" fill="#54768a"/>
    <path d="m7213 3390.6-76.63 6.36v0.36l76.63-6.36v-0.36" fill="#55778b"/>
    <path d="m7213 3390.3-76.63 6.36v0.35l76.63-6.36v-0.35" fill="#55788c"/>
    <path d="m7213 3389.9-76.63 6.36v0.36l76.63-6.36v-0.36" fill="#56798d"/>
    <path d="m7213 3389.6-76.63 6.36v0.35l76.63-6.36v-0.35" fill="#56798d"/>
    <path d="m7213 3389.2-76.63 6.36v0.36l76.63-6.36v-0.36" fill="#577a8e"/>
    <path d="m7213 3388.8-76.63 6.36v0.35l76.63-6.36v-0.35" fill="#577b8f"/>
    <path d="m7213 3388.5-76.63 6.36v0.36l76.63-6.36v-0.36" fill="#587c90"/>
    <path d="m7213 3388.1-76.63 6.36v0.35l76.63-6.36v-0.35" fill="#587c91"/>
    <path d="m7213 3387.8-76.63 6.36v0.36l76.63-6.36v-0.36" fill="#597d92"/>
    <path d="m7213 3387.4-76.63 6.36v0.35l76.63-6.36v-0.35" fill="#597e92"/>
    <path d="m7213 3387.1-76.63 6.36v0.36l76.63-6.36v-0.36" fill="#5a7f93"/>
    <path d="m7213 3386.7-76.63 6.36v0.35l76.63-6.36v-0.35" fill="#5a7f94"/>
    <path d="m7213 3386.4-76.63 6.36v0.36l76.63-6.36v-0.36" fill="#5b8095"/>
    <path d="m7213 3386-76.63 6.36v0.35l76.63-6.36v-0.35" fill="#5b8196"/>
    <path d="m7213 3385.6-76.63 6.36v0.36l76.63-6.36v-0.36" fill="#5c8196"/>
    <path d="m7213 3385.3-76.63 6.36v0.35l76.63-6.36v-0.35" fill="#5c8297"/>
    <path d="m7213 3384.9-76.63 6.36v0.36l76.63-6.36v-0.36" fill="#5d8398"/>
    <path d="m7213 3384.6-76.63 6.36v0.35l76.63-6.36v-0.35" fill="#5d8399"/>
    <path d="m7213 3384.2-76.63 6.36v0.36l76.63-6.36v-0.36" fill="#5e849a"/>
    <path d="m7213 3383.9-76.63 6.35v0.36l76.63-6.36v-0.35" fill="#5e859a"/>
    <path d="m7213 3383.5-76.63 6.36v0.35l76.63-6.35v-0.36" fill="#5e859b"/>
    <path d="m7213 3383.2-76.63 6.36v0.35l76.63-6.36v-0.35" fill="#5f869c"/>
    <path d="m7213 3382.8-76.63 6.36v0.36l76.63-6.36v-0.36" fill="#5f879d"/>
    <path d="m7213 3382.5-76.63 6.36v0.35l76.63-6.36v-0.35" fill="#60879d"/>
    <path d="m7213 3382.1-76.63 6.36v0.36l76.63-6.36v-0.36" fill="#60889e"/>
    <path d="m7213 3381.8-76.63 6.36v0.35l76.63-6.36v-0.35" fill="#61899f"/>
    <path d="m7213 3381.4-76.63 6.36v0.36l76.63-6.36v-0.36" fill="#61899f"/>
    <path d="m7213 3381-76.63 6.36v0.35l76.63-6.36v-0.35" fill="#628aa0"/>
    <path d="m7213 3380.7-76.63 6.36v0.36l76.63-6.36v-0.36" fill="#628aa1"/>
    <path d="m7213 3380.3-76.63 6.36v0.35l76.63-6.36v-0.35" fill="#628ba2"/>
    <path d="m7213 3380-76.63 6.36v0.36l76.63-6.36v-0.36" fill="#638ca2"/>
    <path d="m7213 3379.6-76.63 6.36v0.35l76.63-6.36v-0.35" fill="#638ca3"/>
    <path d="m7213 3379.3-76.63 6.36v0.36l76.63-6.36v-0.36" fill="#648da4"/>
    <path d="m7213 3378.9-76.63 6.36v0.35l76.63-6.36v-0.35" fill="#648da4"/>
    <path d="m7213 3378.6-76.63 6.36v0.36l76.63-6.36v-0.36" fill="#648ea5"/>
    <path d="m7213 3378.2-76.63 6.36v0.35l76.63-6.36v-0.35" fill="#658fa6"/>
    <path d="m7213 3377.8-76.63 6.36v0.36l76.63-6.36v-0.36" fill="#658fa6"/>
    <path d="m7213 3377.5-76.63 6.35v0.36l76.63-6.36v-0.35" fill="#6690a7"/>
    <path d="m7213 3377.1-76.63 6.36v0.35l76.63-6.35v-0.36" fill="#6690a7"/>
    <path d="m7213 3376.8-76.63 6.36v0.35l76.63-6.36v-0.35" fill="#6691a8"/>
    <path d="m7213 3376.4-76.63 6.36v0.36l76.63-6.36v-0.36" fill="#6791a9"/>
    <path d="m7213 3376.1-76.63 6.36v0.35l76.63-6.36v-0.35" fill="#6792a9"/>
    <path d="m7213 3375.7-76.63 6.36v0.36l76.63-6.36v-0.36" fill="#6792aa"/>
    <path d="m7213 3375.4-76.63 6.36v0.35l76.63-6.36v-0.35" fill="#6893aa"/>
    <path d="m7213 3375-76.63 6.36v0.36l76.63-6.36v-0.36" fill="#6893ab"/>
    <path d="m7213 3374.6-76.63 6.36v0.35l76.63-6.36v-0.35" fill="#6894ac"/>
    <path d="m7213 3374.3-76.63 6.36v0.36l76.63-6.36v-0.36" fill="#6994ac"/>
    <path d="m7213 3373.9-76.63 6.36v0.35l76.63-6.36v-0.35" fill="#6995ad"/>
    <path d="m7213 3373.6-76.63 6.36v0.36l76.63-6.36v-0.36" fill="#6995ad"/>
    <path d="m7213 3373.2-76.63 6.36v0.35l76.63-6.36v-0.35" fill="#6a96ae"/>
    <path d="m7213 3372.9-76.63 6.36v0.36l76.63-6.36v-0.36" fill="#6a96ae"/>
    <path d="m7213 3372.5-76.63 6.36v0.36l76.63-6.36v-0.36" fill="#6a97af"/>
    <path d="m7213 3372.2-76.63 6.36v0.35l76.63-6.36v-0.35" fill="#6b97b0"/>
    <path d="m7213 3371.8-76.63 6.36v0.35l76.63-6.36v-0.35" fill="#6b98b0"/>
    <path d="m7213 3371.4-76.63 6.36v0.36l76.63-6.36v-0.36" fill="#6b98b1"/>
    <path d="m7213 3371.1-76.63 6.35v0.36l76.63-6.36v-0.35" fill="#6c99b1"/>
    <path d="m7213 3370.7-76.63 6.36v0.35l76.63-6.35v-0.36" fill="#6c99b2"/>
    <path d="m7213 3370.4-76.63 6.36v0.35l76.63-6.36v-0.35" fill="#6c9ab2"/>
    <path d="m7213 3370-76.63 6.36v0.36l76.63-6.36v-0.36" fill="#6d9ab3"/>
    <path d="m7213 3369.7-76.63 6.35v0.36l76.63-6.36v-0.35" fill="#6d9bb3"/>
    <path d="m7213 3369.3-76.63 6.36v0.35l76.63-6.35v-0.36" fill="#6d9bb4"/>
    <path d="m7213 3369-76.63 6.36v0.35l76.63-6.36v-0.35" fill="#6d9bb4"/>
    <path d="m7213 3368.6-76.63 6.36v0.36l76.63-6.36v-0.36" fill="#6e9cb5"/>
    <path d="m7213 3368.3-76.63 6.36v0.35l76.63-6.36v-0.35" fill="#6e9cb5"/>
    <path d="m7213 3367.9-76.63 6.36v0.36l76.63-6.36v-0.36" fill="#6e9db6"/>
    <path d="m7213 3367.5-76.63 6.37v0.35l76.63-6.36v-0.36" fill="#6f9db6"/>
    <path d="m7213 3367.2-76.63 6.36v0.36l76.63-6.37v-0.35" fill="#6f9db6"/>
    <path d="m7213 3366.8-76.63 6.36v0.35l76.63-6.36v-0.35" fill="#6f9eb7"/>
    <path d="m7213 3366.5-76.63 6.36v0.36l76.63-6.36v-0.36" fill="#6f9eb7"/>
    <path d="m7213 3366.1-76.63 6.36v0.36l76.63-6.36v-0.36" fill="#709fb8"/>
    <path d="m7213 3365.8-76.63 6.36v0.35l76.63-6.36v-0.35" fill="#709fb8"/>
    <path d="m7213 3365.4-76.63 6.36v0.35l76.63-6.36v-0.35" fill="#709fb9"/>
    <path d="m7213 3365.1-76.63 6.36v0.36l76.63-6.36v-0.36" fill="#70a0b9"/>
    <path d="m7213 3364.7-76.63 6.36v0.36l76.63-6.36v-0.36" fill="#71a0b9"/>
    <path d="m7213 3364.4-76.63 6.36v0.35l76.63-6.36v-0.35" fill="#71a0ba"/>
    <path d="m7213 3364-76.63 6.36v0.35l76.63-6.36v-0.35" fill="#71a1ba"/>
    <path d="m7213 3363.6-76.63 6.36v0.36l76.63-6.36v-0.36" fill="#71a1bb"/>
    <path d="m7213 3363.3-76.63 6.35v0.36l76.63-6.36v-0.35" fill="#72a1bb"/>
    <path d="m7213 3362.9-76.63 6.36v0.35l76.63-6.35v-0.36" fill="#72a2bb"/>
    <path d="m7213 3362.6-76.63 6.36v0.35l76.63-6.36v-0.35" fill="#72a2bc"/>
    <path d="m7213 3362.2-76.63 6.36v0.36l76.63-6.36v-0.36" fill="#72a2bc"/>
    <path d="m7213 3361.9-76.63 6.37v0.35l76.63-6.36v-0.36" fill="#72a3bc"/>
    <g fill="#73a3bd">
     <path d="m7213 3361.5-76.63 6.36v0.36l76.63-6.37v-0.35"/>
     <path d="m7213 3361.2-76.63 6.37v0.35l76.63-6.36v-0.36"/>
     <path d="m7213 3360.8-76.63 6.36v0.36l76.63-6.37v-0.35"/>
    </g>
    <path d="m7213 3360.4-76.63 6.35v0.36l76.63-6.36v-0.35" fill="#73a4be"/>
    <path d="m7213 3360.1-76.63 6.36v0.35l76.63-6.35v-0.36" fill="#73a4be"/>
    <path d="m7213 3359.7-76.63 6.36v0.36l76.63-6.36v-0.36" fill="#74a4be"/>
    <g fill="#74a5bf">
     <path d="m7213 3359.4-76.63 6.36v0.35l76.63-6.36v-0.35"/>
     <path d="m7213 3359-76.63 6.36v0.35l76.63-6.36v-0.35"/>
     <path d="m7213 3358.7-76.63 6.36v0.36l76.63-6.36v-0.36"/>
     <path d="m7213 3358.3-76.63 6.36v0.36l76.63-6.36v-0.36"/>
    </g>
    <path d="m7213 3358-76.63 6.36v0.35l76.63-6.36v-0.35" fill="#74a6c0"/>
    <g fill="#75a6c0">
     <path d="m7213 3357.6-76.63 6.36v0.35l76.63-6.36v-0.35"/>
     <path d="m7213 3357.2-76.63 6.36v0.36l76.63-6.36v-0.36"/>
     <path d="m7213 3356.9-76.63 6.36v0.36l76.63-6.36v-0.36"/>
    </g>
    <path d="m7213 3356.5-76.63 6.36v0.35l76.63-6.36v-0.35" fill="#75a6c1"/>
    <g fill="#75a7c1">
     <path d="m7213 3356.2-76.63 6.36v0.35l76.63-6.36v-0.35"/>
     <path d="m7213 3355.8-76.63 6.36v0.36l76.63-6.36v-0.36"/>
     <path d="m7213 3355.5-76.63 6.36v0.36l76.63-6.36v-0.36"/>
    </g>
    <path d="m7212 3355.2-75.7 6.28v0.35l76.63-6.36v-0.27h-0.93" fill="#76a7c2"/>
    <path d="m7207.7 3355.2-71.42 5.92v0.36l75.7-6.28h-4.28" fill="#76a7c2"/>
    <g fill="#76a8c2">
     <path d="m7203.5 3355.2-67.14 5.57v0.35l71.42-5.92h-4.28"/>
     <path d="m7199.2 3355.2-62.87 5.21v0.36l67.14-5.57h-4.27"/>
     <path d="m7194.9 3355.2-58.59 4.86v0.35l62.87-5.21h-4.28"/>
    </g>
    <g fill="#76a8c3">
     <path d="m7190.6 3355.2-54.31 4.5v0.36l58.59-4.86h-4.28"/>
     <path d="m7186.4 3355.2-50.03 4.15v0.35l54.31-4.5h-4.28"/>
     <path d="m7182.1 3355.2-45.75 3.8v0.35l50.03-4.15h-4.28"/>
    </g>
    <path d="m7177.8 3355.2-41.47 3.44v0.36l45.75-3.8h-4.28" fill="#76a9c3"/>
    <path d="m7173.5 3355.2-37.2 3.08v0.36l41.47-3.44h-4.27" fill="#77a9c3"/>
    <g fill="#77a9c4">
     <path d="m7169.2 3355.2-32.92 2.73v0.35l37.2-3.08h-4.28"/>
     <path d="m7165 3355.2-28.64 2.37v0.36l32.92-2.73h-4.28"/>
     <path d="m7160.7 3355.2-24.36 2.02v0.35l28.64-2.37h-4.28"/>
     <path d="m7156.4 3355.2-20.08 1.66v0.36l24.36-2.02h-4.28"/>
     <path d="m7152.1 3355.2-15.8 1.31v0.35l20.08-1.66h-4.28"/>
    </g>
    <path d="m7147.8 3355.2-11.53 0.96v0.35l15.8-1.31h-4.27" fill="#77aac4"/>
    <path d="m7143.6 3355.2-7.25 0.6v0.36l11.53-0.96h-4.28" fill="#77aac4"/>
   </g>
  </g>
  <g>
   <path d="m71.216 152.14c-0.38135-0.0314-0.67416-0.41557-0.63923-0.83785 0.0339-0.42192 0.38558-0.75212 0.76729-0.72037 0.381 0.0314 0.67345 0.41487 0.63994 0.83714-0.0349 0.42193-0.387 0.75283-0.768 0.72108" fill="#81c0cf"/>
   <path d="m71.25 151.98c-0.26564-0.0226-0.54116-0.31291-0.51188-0.67098 0.03-0.35913 0.34854-0.60113 0.61383-0.57962 0.26564 0.0226 0.54046 0.31433 0.51118 0.6724-0.0293 0.35842-0.34855 0.60007-0.61313 0.5782" fill="#1f1712"/>
   <path d="m73.378 153.06s-0.0303 5e-3 -0.0981 0.0226c-0.0487-0.77434-0.19826-1.8401-0.63465-2.0556-0.64911-0.32985-2.104-0.80927-3.9751 0.34254-0.18803-0.33725-0.28575-0.5916-0.28575-0.5916 2.0376-1.4594 3.6371-0.93875 4.3304-0.58914 0.69956 0.34995 0.66322 2.8713 0.66322 2.8713" fill="#3e3937"/>
   <path d="m71.034 151.1c-0.0109 0.12947-0.14429 0.22401-0.29669 0.21131-0.15275-0.0127-0.26776-0.12841-0.25753-0.25682 0.0109-0.13017 0.14323-0.22472 0.29598-0.21237 0.15311 0.0123 0.26847 0.12806 0.25824 0.25788" fill="#fff"/>
   <path d="m71.891 151.85c-6e-3 0.0646-0.072 0.11218-0.14817 0.10548-0.0765-6e-3 -0.13405-0.0642-0.12912-0.12841 6e-3 -0.0646 0.072-0.11218 0.14817-0.10548 0.0765 6e-3 0.13441 0.0635 0.12912 0.12841" fill="#fff"/>
   <path d="m77.506 148.89s0.22507-0.34678 0.68827-0.70062c0.23248-0.17851 0.52211-0.3683 0.86184-0.51294 0.33937-0.14217 0.72037-0.25224 1.1091-0.30515 0.39123-0.0437 0.78176-0.0176 1.1402 0.0303 0.35595 0.0677 0.67522 0.17039 0.93521 0.28434 0.26847 0.0924 0.46144 0.23918 0.60431 0.31467 0.13794 0.0868 0.21696 0.13618 0.21696 0.13618s-0.0907-0.0212-0.24977-0.0589c-0.15663-0.0392-0.37571-0.10548-0.64488-0.14464-0.13405-0.0197-0.27446-0.0603-0.42791-0.0677-0.1517-0.0102-0.31115-0.0219-0.47625-0.0332-0.32915-5e-3 -0.67663 0.0145-1.0121 0.0914-0.33761 0.0582-0.6657 0.1651-0.95674 0.29951-0.28892 0.13829-0.5595 0.27269-0.76905 0.42615-0.43639 0.29069-0.67381 0.52952-0.67381 0.52952-0.0885 0.0893-0.23107 0.0893-0.31962 3.4e-4 -0.0769-0.0769-0.0868-0.19614-0.0296-0.28398l4e-3 -5e-3" fill="#3f3a37"/>
   <path d="m83.301 150.78s-0.86713 2.1685-2.213 2.3798c-1.3448 0.21166-2.7795-0.0974-2.7795-0.0974s-0.0363-2.5192 0.66217-2.8677c0.6985-0.3496 2.2969-0.87101 4.3303 0.58526" fill="#fff"/>
   <path d="m78.306 153.06s0.0303 5e-3 0.0984 0.0226c0.0483-0.77434 0.19861-1.8401 0.63429-2.0556 0.64912-0.32985 2.104-0.80927 3.9758 0.34254 0.18803-0.33725 0.2854-0.5916 0.2854-0.5916-2.0373-1.4594-3.6375-0.93875-4.3296-0.58914-0.70097 0.34995-0.66429 2.8713-0.66429 2.8713" fill="#3e3937"/>
  </g>
  <g transform="matrix(.035278 0 0 -.035278 -181.83 270.96)">
   <g clip-path="url(#a)">
    <path d="m7472 3419.6-76.63 6.36v7.13h76.63v-13.49" fill="#222d36"/>
    <path d="m7472 3419.3-76.63 6.36v0.35l76.63-6.36v-0.35" fill="#222d36"/>
    <path d="m7472 3418.9-76.63 6.36v0.36l76.63-6.36v-0.36" fill="#232e38"/>
    <path d="m7472 3418.6-76.63 6.36v0.35l76.63-6.36v-0.35" fill="#242f39"/>
    <path d="m7472 3418.2-76.63 6.36v0.36l76.63-6.36v-0.36" fill="#25313a"/>
    <path d="m7472 3417.9-76.63 6.35v0.36l76.63-6.36v-0.35" fill="#26323c"/>
    <path d="m7472 3417.5-76.63 6.36v0.35l76.63-6.35v-0.36" fill="#26333d"/>
    <path d="m7472 3417.2-76.63 6.36v0.36l76.63-6.36v-0.36" fill="#27343f"/>
    <path d="m7472 3416.8-76.63 6.36v0.35l76.63-6.36v-0.35" fill="#283540"/>
    <path d="m7472 3416.5-76.63 6.36v0.35l76.63-6.36v-0.35" fill="#293741"/>
    <path d="m7472 3416.1-76.63 6.36v0.36l76.63-6.36v-0.36" fill="#2a3843"/>
    <path d="m7472 3415.7-76.63 6.36v0.36l76.63-6.36v-0.36" fill="#2a3944"/>
    <path d="m7472 3415.4-76.63 6.36v0.35l76.63-6.36v-0.35" fill="#2b3a45"/>
    <path d="m7472 3415-76.63 6.36v0.35l76.63-6.36v-0.35" fill="#2c3b46"/>
    <path d="m7472 3414.7-76.63 6.36v0.36l76.63-6.36v-0.36" fill="#2d3c48"/>
    <path d="m7472 3414.3-76.63 6.35v0.36l76.63-6.36v-0.35" fill="#2e3d49"/>
    <path d="m7472 3414-76.63 6.36v0.35l76.63-6.35v-0.36" fill="#2e3e4a"/>
    <path d="m7472 3413.6-76.63 6.36v0.35l76.63-6.36v-0.35" fill="#2f404b"/>
    <path d="m7472 3413.3-76.63 6.36v0.36l76.63-6.36v-0.36" fill="#30414d"/>
    <path d="m7472 3412.9-76.63 6.37v0.35l76.63-6.36v-0.36" fill="#31424e"/>
    <path d="m7472 3412.6-76.63 6.36v0.36l76.63-6.37v-0.35" fill="#31434f"/>
    <path d="m7472 3412.2-76.63 6.37v0.35l76.63-6.36v-0.36" fill="#324451"/>
    <path d="m7472 3411.8-76.63 6.36v0.36l76.63-6.37v-0.35" fill="#334552"/>
    <path d="m7472 3411.5-76.63 6.35v0.36l76.63-6.36v-0.35" fill="#334653"/>
    <path d="m7472 3411.1-76.63 6.36v0.35l76.63-6.35v-0.36" fill="#344754"/>
    <path d="m7472 3410.8-76.63 6.37v0.35l76.63-6.36v-0.36" fill="#354855"/>
    <path d="m7472 3410.4-76.63 6.36v0.36l76.63-6.37v-0.35" fill="#364957"/>
    <path d="m7472 3410.1-76.63 6.36v0.35l76.63-6.36v-0.35" fill="#364a58"/>
    <path d="m7472 3409.7-76.63 6.36v0.36l76.63-6.36v-0.36" fill="#374b59"/>
    <path d="m7472 3409.4-76.63 6.36v0.36l76.63-6.36v-0.36" fill="#384d5a"/>
    <path d="m7472 3409-76.63 6.36v0.35l76.63-6.36v-0.35" fill="#384e5b"/>
    <path d="m7472 3408.6-76.63 6.36v0.35l76.63-6.36v-0.35" fill="#394e5c"/>
    <path d="m7472 3408.3-76.63 6.36v0.36l76.63-6.36v-0.36" fill="#3a505e"/>
    <path d="m7472 3407.9-76.63 6.36v0.36l76.63-6.36v-0.36" fill="#3b515f"/>
    <path d="m7472 3407.6-76.63 6.36v0.35l76.63-6.36v-0.35" fill="#3b5260"/>
    <path d="m7472 3407.2-76.63 6.36v0.35l76.63-6.36v-0.35" fill="#3c5361"/>
    <path d="m7472 3406.9-76.63 6.36v0.36l76.63-6.36v-0.36" fill="#3d5462"/>
    <path d="m7472 3406.5-76.63 6.36v0.36l76.63-6.36v-0.36" fill="#3d5564"/>
    <path d="m7472 3406.2-76.63 6.36v0.35l76.63-6.36v-0.35" fill="#3e5665"/>
    <path d="m7472 3405.8-76.63 6.35v0.36l76.63-6.36v-0.35" fill="#3f5766"/>
    <path d="m7472 3405.4-76.63 6.36v0.35l76.63-6.35v-0.36" fill="#3f5867"/>
    <path d="m7472 3405.1-76.63 6.35v0.36l76.63-6.36v-0.35" fill="#405968"/>
    <path d="m7472 3404.7-76.63 6.36v0.35l76.63-6.35v-0.36" fill="#415969"/>
    <path d="m7472 3404.4-76.63 6.36v0.36l76.63-6.36v-0.36" fill="#415a6a"/>
    <path d="m7472 3404-76.63 6.36v0.35l76.63-6.36v-0.35" fill="#425c6b"/>
    <path d="m7472 3403.7-76.63 6.35v0.36l76.63-6.36v-0.35" fill="#435c6c"/>
    <path d="m7472 3403.3-76.63 6.36v0.35l76.63-6.35v-0.36" fill="#435d6d"/>
    <path d="m7472 3403-76.63 6.36v0.36l76.63-6.36v-0.36" fill="#445e6f"/>
    <path d="m7472 3402.6-76.63 6.36v0.35l76.63-6.36v-0.35" fill="#455f70"/>
    <path d="m7472 3402.3-76.63 6.36v0.35l76.63-6.36v-0.35" fill="#456071"/>
    <path d="m7472 3401.9-76.63 6.36v0.36l76.63-6.36v-0.36" fill="#466172"/>
    <path d="m7472 3401.5-76.63 6.36v0.36l76.63-6.36v-0.36" fill="#466273"/>
    <path d="m7472 3401.2-76.63 6.36v0.35l76.63-6.36v-0.35" fill="#476374"/>
    <path d="m7472 3400.8-76.63 6.36v0.36l76.63-6.36v-0.36" fill="#486475"/>
    <path d="m7472 3400.5-76.63 6.36v0.35l76.63-6.36v-0.35" fill="#486576"/>
    <path d="m7472 3400.1-76.63 6.36v0.36l76.63-6.36v-0.36" fill="#496677"/>
    <path d="m7472 3399.8-76.63 6.36v0.35l76.63-6.36v-0.35" fill="#4a6778"/>
    <path d="m7472 3399.4-76.63 6.37v0.35l76.63-6.36v-0.36" fill="#4a6779"/>
    <path d="m7472 3399.1-76.63 6.36v0.36l76.63-6.37v-0.35" fill="#4b687a"/>
    <path d="m7472 3398.7-76.63 6.36v0.36l76.63-6.36v-0.36" fill="#4b697b"/>
    <path d="m7472 3398.4-76.63 6.36v0.35l76.63-6.36v-0.35" fill="#4c6a7c"/>
    <path d="m7472 3398-76.63 6.36v0.36l76.63-6.36v-0.36" fill="#4c6b7d"/>
    <path d="m7472 3397.6-76.63 6.36v0.35l76.63-6.36v-0.35" fill="#4d6c7e"/>
    <path d="m7472 3397.3-76.63 6.36v0.36l76.63-6.36v-0.36" fill="#4e6d7f"/>
    <path d="m7472 3396.9-76.63 6.36v0.35l76.63-6.36v-0.35" fill="#4e6d80"/>
    <path d="m7472 3396.6-76.63 6.36v0.36l76.63-6.36v-0.36" fill="#4f6e81"/>
    <path d="m7472 3396.2-76.63 6.36v0.35l76.63-6.36v-0.35" fill="#4f6f82"/>
    <path d="m7472 3395.9-76.63 6.36v0.36l76.63-6.36v-0.36" fill="#507083"/>
    <path d="m7472 3395.5-76.63 6.36v0.35l76.63-6.36v-0.35" fill="#507184"/>
    <path d="m7472 3395.2-76.63 6.36v0.36l76.63-6.36v-0.36" fill="#517284"/>
    <path d="m7472 3394.8-76.63 6.36v0.35l76.63-6.36v-0.35" fill="#527285"/>
    <path d="m7472 3394.4-76.63 6.35v0.36l76.63-6.36v-0.35" fill="#527386"/>
    <path d="m7472 3394.1-76.63 6.36v0.35l76.63-6.35v-0.36" fill="#537487"/>
    <path d="m7472 3393.7-76.63 6.36v0.36l76.63-6.36v-0.36" fill="#537588"/>
    <path d="m7472 3393.4-76.63 6.36v0.35l76.63-6.36v-0.35" fill="#547689"/>
    <path d="m7472 3393-76.63 6.36v0.36l76.63-6.36v-0.36" fill="#54768a"/>
    <path d="m7472 3392.7-76.63 6.36v0.35l76.63-6.36v-0.35" fill="#55778b"/>
    <path d="m7472 3392.3-76.63 6.36v0.36l76.63-6.36v-0.36" fill="#55788c"/>
    <path d="m7472 3392-76.63 6.36v0.35l76.63-6.36v-0.35" fill="#56798d"/>
    <path d="m7472 3391.6-76.63 6.36v0.36l76.63-6.36v-0.36" fill="#56798d"/>
    <path d="m7472 3391.2-76.63 6.36v0.35l76.63-6.36v-0.35" fill="#577a8e"/>
    <path d="m7472 3390.9-76.63 6.36v0.36l76.63-6.36v-0.36" fill="#577b8f"/>
    <path d="m7472 3390.5-76.63 6.36v0.35l76.63-6.36v-0.35" fill="#587c90"/>
    <path d="m7472 3390.2-76.63 6.36v0.36l76.63-6.36v-0.36" fill="#587c91"/>
    <path d="m7472 3389.8-76.63 6.36v0.35l76.63-6.36v-0.35" fill="#597d92"/>
    <path d="m7472 3389.5-76.63 6.36v0.36l76.63-6.36v-0.36" fill="#597e92"/>
    <path d="m7472 3389.1-76.63 6.36v0.35l76.63-6.36v-0.35" fill="#5a7f93"/>
    <path d="m7472 3388.8-76.63 6.36v0.36l76.63-6.36v-0.36" fill="#5a7f94"/>
    <path d="m7472 3388.4-76.63 6.36v0.35l76.63-6.36v-0.35" fill="#5b8095"/>
    <path d="m7472 3388-76.63 6.36v0.36l76.63-6.36v-0.36" fill="#5b8196"/>
    <path d="m7472 3387.7-76.63 6.36v0.35l76.63-6.36v-0.35" fill="#5c8196"/>
    <path d="m7472 3387.3-76.63 6.36v0.36l76.63-6.36v-0.36" fill="#5c8297"/>
    <path d="m7472 3387-76.63 6.36v0.35l76.63-6.36v-0.35" fill="#5d8398"/>
    <path d="m7472 3386.6-76.63 6.36v0.36l76.63-6.36v-0.36" fill="#5d8399"/>
    <path d="m7472 3386.3-76.63 6.35v0.36l76.63-6.36v-0.35" fill="#5e849a"/>
    <path d="m7472 3385.9-76.63 6.36v0.35l76.63-6.35v-0.36" fill="#5e859a"/>
    <path d="m7472 3385.6-76.63 6.36v0.35l76.63-6.36v-0.35" fill="#5e859b"/>
    <path d="m7472 3385.2-76.63 6.36v0.36l76.63-6.36v-0.36" fill="#5f869c"/>
    <path d="m7472 3384.9-76.63 6.36v0.35l76.63-6.36v-0.35" fill="#5f879d"/>
    <path d="m7472 3384.5-76.63 6.36v0.36l76.63-6.36v-0.36" fill="#60879d"/>
    <path d="m7472 3384.2-76.63 6.36v0.35l76.63-6.36v-0.35" fill="#60889e"/>
    <path d="m7472 3383.8-76.63 6.36v0.36l76.63-6.36v-0.36" fill="#61899f"/>
    <path d="m7472 3383.4-76.63 6.36v0.35l76.63-6.36v-0.35" fill="#61899f"/>
    <path d="m7472 3383.1-76.63 6.36v0.36l76.63-6.36v-0.36" fill="#628aa0"/>
    <path d="m7472 3382.7-76.63 6.36v0.35l76.63-6.36v-0.35" fill="#628aa1"/>
    <path d="m7472 3382.4-76.63 6.36v0.36l76.63-6.36v-0.36" fill="#628ba2"/>
    <path d="m7472 3382-76.63 6.36v0.35l76.63-6.36v-0.35" fill="#638ca2"/>
    <path d="m7472 3381.7-76.63 6.36v0.36l76.63-6.36v-0.36" fill="#638ca3"/>
    <path d="m7472 3381.3-76.63 6.37v0.35l76.63-6.36v-0.36" fill="#648da4"/>
    <path d="m7472 3381-76.63 6.36v0.36l76.63-6.37v-0.35" fill="#648da4"/>
    <path d="m7472 3380.6-76.63 6.36v0.35l76.63-6.36v-0.35" fill="#648ea5"/>
    <path d="m7472 3380.2-76.63 6.36v0.36l76.63-6.36v-0.36" fill="#658fa6"/>
    <path d="m7472 3379.9-76.63 6.35v0.36l76.63-6.36v-0.35" fill="#658fa6"/>
    <path d="m7472 3379.5-76.63 6.36v0.35l76.63-6.35v-0.36" fill="#6690a7"/>
    <path d="m7472 3379.2-76.63 6.36v0.35l76.63-6.36v-0.35" fill="#6690a7"/>
    <path d="m7472 3378.8-76.63 6.36v0.36l76.63-6.36v-0.36" fill="#6691a8"/>
    <path d="m7472 3378.5-76.63 6.36v0.35l76.63-6.36v-0.35" fill="#6791a9"/>
    <path d="m7472 3378.1-76.63 6.36v0.36l76.63-6.36v-0.36" fill="#6792a9"/>
    <path d="m7472 3377.8-76.63 6.36v0.35l76.63-6.36v-0.35" fill="#6792aa"/>
    <path d="m7472 3377.4-76.63 6.36v0.36l76.63-6.36v-0.36" fill="#6893aa"/>
    <path d="m7472 3377-76.63 6.36v0.35l76.63-6.36v-0.35" fill="#6893ab"/>
    <path d="m7472 3376.7-76.63 6.36v0.36l76.63-6.36v-0.36" fill="#6894ac"/>
    <path d="m7472 3376.3-76.63 6.36v0.35l76.63-6.36v-0.35" fill="#6994ac"/>
    <path d="m7472 3376-76.63 6.36v0.36l76.63-6.36v-0.36" fill="#6995ad"/>
    <path d="m7472 3375.6-76.63 6.36v0.35l76.63-6.36v-0.35" fill="#6995ad"/>
    <path d="m7472 3375.3-76.63 6.36v0.36l76.63-6.36v-0.36" fill="#6a96ae"/>
    <path d="m7472 3374.9-76.63 6.37v0.35l76.63-6.36v-0.36" fill="#6a96ae"/>
    <path d="m7472 3374.6-76.63 6.36v0.36l76.63-6.37v-0.35" fill="#6a97af"/>
    <path d="m7472 3374.2-76.63 6.36v0.35l76.63-6.36v-0.35" fill="#6b97b0"/>
    <path d="m7472 3373.8-76.63 6.36v0.36l76.63-6.36v-0.36" fill="#6b98b0"/>
    <path d="m7472 3373.5-76.63 6.35v0.36l76.63-6.36v-0.35" fill="#6b98b1"/>
    <path d="m7472 3373.1-76.63 6.36v0.35l76.63-6.35v-0.36" fill="#6c99b1"/>
    <path d="m7472 3372.8-76.63 6.36v0.35l76.63-6.36v-0.35" fill="#6c99b2"/>
    <path d="m7472 3372.4-76.63 6.36v0.36l76.63-6.36v-0.36" fill="#6c9ab2"/>
    <path d="m7472 3372.1-76.63 6.36v0.36l76.63-6.36v-0.36" fill="#6d9ab3"/>
    <path d="m7472 3371.7-76.63 6.36v0.35l76.63-6.36v-0.35" fill="#6d9bb3"/>
    <path d="m7472 3371.4-76.63 6.36v0.35l76.63-6.36v-0.35" fill="#6d9bb4"/>
    <path d="m7472 3371-76.63 6.36v0.36l76.63-6.36v-0.36" fill="#6d9bb4"/>
    <path d="m7472 3370.7-76.63 6.35v0.36l76.63-6.36v-0.35" fill="#6e9cb5"/>
    <path d="m7472 3370.3-76.63 6.36v0.35l76.63-6.35v-0.36" fill="#6e9cb5"/>
    <path d="m7472 3369.9-76.63 6.36v0.36l76.63-6.36v-0.36" fill="#6e9db6"/>
    <path d="m7472 3369.6-76.63 6.36v0.35l76.63-6.36v-0.35" fill="#6f9db6"/>
    <path d="m7472 3369.2-76.63 6.36v0.35l76.63-6.36v-0.35" fill="#6f9db6"/>
    <path d="m7472 3368.9-76.63 6.36v0.36l76.63-6.36v-0.36" fill="#6f9eb7"/>
    <path d="m7472 3368.5-76.63 6.36v0.36l76.63-6.36v-0.36" fill="#6f9eb7"/>
    <path d="m7472 3368.2-76.63 6.36v0.35l76.63-6.36v-0.35" fill="#709fb8"/>
    <path d="m7472 3367.8-76.63 6.36v0.35l76.63-6.36v-0.35" fill="#709fb8"/>
    <path d="m7472 3367.5-76.63 6.36v0.36l76.63-6.36v-0.36" fill="#709fb9"/>
    <path d="m7472 3367.1-76.63 6.36v0.36l76.63-6.36v-0.36" fill="#70a0b9"/>
    <path d="m7472 3366.8-76.63 6.36v0.35l76.63-6.36v-0.35" fill="#71a0b9"/>
    <path d="m7472 3366.4-76.63 6.36v0.35l76.63-6.36v-0.35" fill="#71a0ba"/>
    <path d="m7472 3366-76.63 6.36v0.36l76.63-6.36v-0.36" fill="#71a1ba"/>
    <path d="m7472 3365.7-76.63 6.35v0.36l76.63-6.36v-0.35" fill="#71a1bb"/>
    <path d="m7472 3365.3-76.63 6.36v0.35l76.63-6.35v-0.36" fill="#72a1bb"/>
    <path d="m7472 3365-76.63 6.37v0.35l76.63-6.36v-0.36" fill="#72a2bb"/>
    <path d="m7472 3364.6-76.63 6.36v0.36l76.63-6.37v-0.35" fill="#72a2bc"/>
    <path d="m7472 3364.3-76.63 6.37v0.35l76.63-6.36v-0.36" fill="#72a2bc"/>
    <path d="m7472 3363.9-76.63 6.36v0.36l76.63-6.37v-0.35" fill="#72a3bc"/>
    <g fill="#73a3bd">
     <path d="m7472 3363.6-76.63 6.37v0.35l76.63-6.36v-0.36"/>
     <path d="m7472 3363.2-76.63 6.36v0.36l76.63-6.37v-0.35"/>
     <path d="m7472 3362.8-76.63 6.35v0.36l76.63-6.36v-0.35"/>
    </g>
    <path d="m7472 3362.5-76.63 6.36v0.35l76.63-6.35v-0.36" fill="#73a4be"/>
    <path d="m7472 3362.1-76.63 6.36v0.36l76.63-6.36v-0.36" fill="#73a4be"/>
    <path d="m7472 3361.8-76.63 6.36v0.35l76.63-6.36v-0.35" fill="#74a4be"/>
    <g fill="#74a5bf">
     <path d="m7472 3361.4-76.63 6.36v0.35l76.63-6.36v-0.35"/>
     <path d="m7472 3361.1-76.63 6.36v0.36l76.63-6.36v-0.36"/>
     <path d="m7472 3360.7-76.63 6.36v0.36l76.63-6.36v-0.36"/>
     <path d="m7472 3360.4-76.63 6.36v0.35l76.63-6.36v-0.35"/>
    </g>
    <path d="m7472 3360-76.63 6.35v0.36l76.63-6.36v-0.35" fill="#74a6c0"/>
    <g fill="#75a6c0">
     <path d="m7472 3359.6-76.63 6.36v0.35l76.63-6.35v-0.36"/>
     <path d="m7472 3359.3-76.63 6.36v0.36l76.63-6.36v-0.36"/>
     <path d="m7472 3358.9-76.63 6.36v0.35l76.63-6.36v-0.35"/>
    </g>
    <path d="m7472 3358.6-76.63 6.36v0.35l76.63-6.36v-0.35" fill="#75a6c1"/>
    <g fill="#75a7c1">
     <path d="m7472 3358.2-76.63 6.36v0.36l76.63-6.36v-0.36"/>
     <path d="m7472 3357.9-76.63 6.36v0.36l76.63-6.36v-0.36"/>
     <path d="m7472 3357.5-76.63 6.36v0.35l76.63-6.36v-0.35"/>
    </g>
    <path d="m7471 3357.2-75.7 6.28v0.36l76.63-6.36v-0.28h-0.93" fill="#76a7c2"/>
    <path d="m7466.8 3357.2-71.42 5.93v0.35l75.7-6.28h-4.28" fill="#76a7c2"/>
    <g fill="#76a8c2">
     <path d="m7462.5 3357.2-67.14 5.57v0.36l71.42-5.93h-4.28"/>
     <path d="m7458.2 3357.2-62.86 5.22v0.35l67.14-5.57h-4.28"/>
     <path d="m7453.9 3357.2-58.58 4.86v0.36l62.86-5.22h-4.28"/>
    </g>
    <g fill="#76a8c3">
     <path d="m7449.6 3357.2-54.3 4.51v0.35l58.58-4.86h-4.28"/>
     <path d="m7445.4 3357.2-50.03 4.16v0.35l54.3-4.51h-4.27"/>
     <path d="m7441.1 3357.2-45.75 3.8v0.36l50.03-4.16h-4.28"/>
    </g>
    <path d="m7436.8 3357.2-41.47 3.44v0.36l45.75-3.8h-4.28" fill="#76a9c3"/>
    <path d="m7432.5 3357.2-37.2 3.09v0.35l41.47-3.44h-4.27" fill="#77a9c3"/>
    <g fill="#77a9c4">
     <path d="m7428.2 3357.2-32.92 2.73v0.36l37.2-3.09h-4.28"/>
     <path d="m7424 3357.2-28.64 2.38v0.35l32.92-2.73h-4.28"/>
     <path d="m7419.7 3357.2-24.36 2.02v0.36l28.64-2.38h-4.28"/>
     <path d="m7415.4 3357.2-20.08 1.67v0.35l24.36-2.02h-4.28"/>
     <path d="m7411.1 3357.2-15.8 1.32v0.35l20.08-1.67h-4.28"/>
    </g>
    <path d="m7406.8 3357.2-11.52 0.96v0.36l15.8-1.32h-4.28" fill="#77aac4"/>
    <path d="m7402.6 3357.2-7.25 0.6v0.36l11.52-0.96h-4.27" fill="#77aac4"/>
   </g>
  </g>
  <g>
   <path d="m80.353 152.06c-0.381-0.0314-0.6738-0.41522-0.63888-0.83749 0.0339-0.42228 0.38524-0.75248 0.76694-0.72037 0.38136 0.0314 0.67381 0.41451 0.64029 0.83678-0.0349 0.42228-0.38699 0.75319-0.76835 0.72108" fill="#81c0cf"/>
   <path d="m80.386 151.91c-0.26529-0.0226-0.54081-0.31327-0.51153-0.67099 0.03-0.35913 0.34854-0.60148 0.61383-0.57961 0.26564 0.0226 0.54046 0.31432 0.51118 0.67204-0.0293 0.35842-0.34855 0.60007-0.61348 0.57856" fill="#1f1712"/>
   <path d="m80.172 151.03c-0.0109 0.12912-0.14428 0.22366-0.29668 0.21132-0.15276-0.0131-0.26811-0.12841-0.25753-0.25718 0.0109-0.12982 0.14323-0.22437 0.29563-0.21202 0.15346 0.0123 0.26881 0.12806 0.25858 0.25788" fill="#fff"/>
   <path d="m81.028 151.78c-6e-3 0.0642-0.072 0.11183-0.14817 0.10548-0.0765-6e-3 -0.13406-0.0642-0.12912-0.12876 6e-3 -0.0642 0.072-0.11183 0.14817-0.10548 0.0765 6e-3 0.13441 0.0638 0.12912 0.12876" fill="#fff"/>
   <path d="m64.807 152.38c0.57609-0.94015 1.4781-0.54539 1.7032-0.33972 0.23707 0.22189 0.42686 0.51611 0.28399 1.0732-0.0765 0.31185-0.40428 0.33902-0.31926 0.81385 0.0924 0.53164 0.3376 0.5648 0.4773 0.68404 0.1397 0.11818 0.31539 0.20849 0.40429 0.43568 0.0854 0.22296 0.10089 0.46214 0.0582 0.66675-0.0885 0.38453-0.64806 0.0861-1.0199-0.0829-0.24694-0.11007-1.0326-0.76659-1.2322-0.98425-0.49918-0.5588-0.74048-1.6358-0.3556-2.2666" fill="#eaada6"/>
   <path d="m76.937 156.59c0.2032-0.13652 0.44098-0.072 0.44098-0.072l-8e-3 0.0141c-0.0483 0.0804-0.32067 0.51999-0.53834 0.51364 6e-3 -4e-3 -0.0476-0.0402-0.061-0.14605-0.0176-0.10407 0.0677-0.24024 0.16651-0.30974" fill="#c18985"/>
   <path d="m68.199 157.04c0 0.49036-0.39547 0.88794-0.88371 0.88794-0.48789 0-0.88336-0.39758-0.88336-0.88794s0.39547-0.88794 0.88336-0.88794c0.48824 0 0.88371 0.39758 0.88371 0.88794" fill="#3f3a37"/>
   <path d="m85.365 157.04c0 0.49036-0.39582 0.88794-0.88371 0.88794-0.48789 0-0.88371-0.39758-0.88371-0.88794s0.39582-0.88794 0.88371-0.88794c0.48789 0 0.88371 0.39758 0.88371 0.88794" fill="#3f3a37"/>
   <path d="m62.827 173.51c-0.0695 1.1959-0.0998 3.0501-0.0998 3.0501 0 0.10689-6e-3 0.2219-6e-3 0.32949h26.293c-6e-3 -0.10759-6e-3 -0.2226-6e-3 -0.32949 0 0-0.0268-1.8542-0.096-3.0501-0.01199-0.20426-0.0254-0.38206-0.0399-0.53587h-26.006c-0.0141 0.15381-0.0272 0.33161-0.0388 0.53587" fill="#6c1a36"/>
   <path d="m87.919 170.05c-0.21378-0.19226-0.48824-0.39793-0.84702-0.62582-0.0265 0-0.44732-0.13829-1.0851-0.36019-0.54646-0.1838-1.2442-0.42051-1.954-0.66499-0.46073-0.16862-0.92816-0.3376-1.3688-0.50517-0.76976-0.2914-1.4414-0.55845-1.8359-0.7807h-7e-3c-0.0328-0.0155-0.0526-0.0307-0.0854-0.0455-0.0494-0.0328-0.09-0.0607-0.12489-0.0861-0.1217 1.1712-0.54398 2.2288-1.1688 3.0685-0.87418 1.1755-2.1474 1.9198-3.5705 1.9198-1.4231 0-2.6963-0.74436-3.5708-1.9198-0.62583-0.84137-1.0488-1.9025-1.1691-3.0769l-2e-3 2e-3 -6e-3 0.0155c-0.12524 0.0917-0.34255 0.19121-0.60537 0.3295h-0.013c-0.37535 0.17568-0.85548 0.36689-1.3885 0.57362-0.44097 0.16016-0.90805 0.32878-1.3681 0.48965-0.73695 0.26-1.4478 0.50412-2.0002 0.68051-0.63183 0.2219-1.0594 0.36019-1.0858 0.36019-0.35631 0.22789-0.62936 0.43356-0.84208 0.62582-0.94933 0.85866-0.66252 1.4436-0.8883 2.4874-0.0247 0.0557-0.0462 0.2159-0.066 0.43074h26.006c-0.02011-0.21484-0.0423-0.375-0.0677-0.43074-0.22613-1.0439 0.0692-1.6288-0.88406-2.4874" fill="#902c52"/>
   <path d="m76.901 151.13 1.2425 2.0719c0.85126 1.4192 2.8522 1.5455 3.8735 0.24412l1.6732-2.1325c1.0908-1.3903 0.34008-3.4611-1.39-3.7952-1.1416-0.22013-2.5065-0.27516-3.9814 0.0931-1.5265 0.381-2.2299 2.165-1.4178 3.5186" fill="#3f3a37"/>
   <path d="m85.005 152.73c0.19861 0-0.01479-1.0439 0.65263-1.7639 0.6657-0.71966 1.6806-3.144 1.6806-5.5633 0-2.419-0.86819-4.5709-3.1341-6.8601-2.2659-2.2888-5.5975-3.4001-5.5975-3.4001l1.5335 1.373s-0.82621-1.1141-3.7931-2.0062c-2.3407-0.70203-3.8566 0.0811-3.8566 0.0811s1.543-0.0519 2.0119 0.60643c0.11712 0.16862 0.54962 0.42157 0.54962 0.42157s-0.71649-1.5797-4.0502-0.26988c-3.3309 1.3084-3.2706 3.652-5.588 4.3709-2.3724 0.73801-3.0607-0.20849-3.0607-0.20849s1.0301 1.658 2.8582 1.6623c0.35101 0 0.32702-8e-3 0.32702-8e-3s-0.68474 1.7762-0.81668 3.1034c-0.13335 1.3526 0.28434 2.2775 0.41311 4.8094 0.11183 2.1639 0.71331 1.0548 1.4298 2.6497 0.24166 0.53376 0.25189 1.136 0.25189 1.136 0.26599 0.0632 0.96273-1.2975 0.46214-3.6647-0.32562-1.5353 1.2845-7.3568 5.1685-6.2216 2.3767 0.69427 2.9764 2.1078 4.7519 0.85196 1.5318-1.0816 3.6735-1.7039 5.273-0.84843 1.5991 0.8576 2.5008 2.7824 2.2214 5.8544-0.35595 3.9225 0.31151 3.8943 0.31151 3.8943" fill="#fff"/>
  </g>
 </g>
</svg>
