<?xml version="1.0" encoding="UTF-8"?>
<!-- Created with Inkscape (http://www.inkscape.org/) -->
<svg width="46.804mm" height="47.165mm" version="1.1" viewBox="0 0 46.804 47.165" xmlns="http://www.w3.org/2000/svg" xmlns:cc="http://creativecommons.org/ns#" xmlns:dc="http://purl.org/dc/elements/1.1/" xmlns:rdf="http://www.w3.org/1999/02/22-rdf-syntax-ns#">
 <defs>
  <clipPath id="b">
   <path d="m7199 10057c-1.64-20.1-19.41-34.9-39.66-33.2-20.27 1.6-35.34 19.2-33.7 39.2 1.64 20.1 19.4 35 39.66 33.3 20.24-1.7 35.33-19.3 33.7-39.3"/>
  </clipPath>
  <clipPath id="a">
   <path d="m7458 10059c-1.64-20-19.41-34.9-39.66-33.2-20.27 1.7-35.34 19.3-33.7 39.3s19.4 34.9 39.66 33.2c20.24-1.7 35.33-19.3 33.7-39.3"/>
  </clipPath>
 </defs>
 <metadata>
  <rdf:RDF>
   <cc:Work rdf:about="">
    <dc:format>image/svg+xml</dc:format>
    <dc:type rdf:resource="http://purl.org/dc/dcmitype/StillImage"/>
    <dc:title/>
   </cc:Work>
  </rdf:RDF>
 </metadata>
 <g transform="translate(65.703 -242.51)">
  <g transform="translate(-209.3 256.79)">
   <g>
    <path d="m164.39 32.881h4.8609z" fill="#4bbbe0"/>
    <path d="m143.6 32.753h46.804v-47.037h-46.804z" fill="#f8a01f"/>
    <path d="m179.77 32.164s-0.0593-3.5885-0.20038-3.901c-0.27411-1.2513 0.2152-1.8242-1.711-3.0304-0.0152-0.0074-0.43709-0.14182-1.0672-0.34996l-0.0148-0.0078c-0.40781-0.13406-0.90417-0.29739-1.422-0.4766-0.20037-0.06668-0.40005-0.14182-0.60783-0.20849-0.51224-0.18027-1.0213-0.36759-1.4898-0.54645-0.32421-0.12382-0.63218-0.24448-0.89535-0.35454-0.22472-0.09807-0.41981-0.18909-0.57644-0.27129-0.16404-0.08608-0.2854-0.16263-0.34961-0.22719l-0.0452-0.05256-0.0441-0.05891c-0.037-0.20849-0.59266-1.1247-0.78563-2.1223v-0.0074c-0.0441-0.20144-0.0667-0.39476-0.0737-0.59549-0.0152-0.29069-0.0152-0.58102-0.0226-0.84102-7e-3 -0.26846-0.0145-0.514-0.0226-0.71473v-0.1718c-7e-3 -0.14182-7e-3 -0.26035-7e-3 -0.3496-7e-3 -0.08961-7e-3 -0.14182-7e-3 -0.14182s0.20778-0.17886 0.51188-0.44662c0.37747-0.34255 0.91792-0.83397 1.3846-1.3028 0.50412-0.50694 0.94121-0.99025 1.0375-1.2435 7e-3 -0.03775 0.0145-0.06668 0.0145-0.08925l-0.037 0.0071c-0.23636 0.0374-1.5113 0.26035-2.8818 0.4766-0.81456 0.12629-1.6669 0.25365-2.3633 0.3422-0.27446 0.03775-0.52634 0.05962-0.74119 0.0822h-7e-3c-0.20003 0.02258-0.37042 0.02999-0.49636 0.02999-0.14111 0-0.33337-0.01482-0.56268-0.02999h-0.0155c-0.2219-0.02963-0.48895-0.05962-0.77752-0.09666-0.63747-0.0822-1.4002-0.19332-2.141-0.30515-0.68157-0.11148-1.3487-0.21625-1.8747-0.30551-0.12595-0.02187-0.23707-0.03704-0.34079-0.05962-0.50341-0.08149-0.82268-0.14111-0.82268-0.14111 0 0.09666 0.0893 0.24589 0.23742 0.43921l7e-3 0.0071c0.11148 0.14922 0.25965 0.32103 0.43674 0.51435 0.17075 0.17886 0.35595 0.36477 0.54857 0.55104 0.58526 0.57291 1.2227 1.1388 1.5339 1.4069 0.11853 0.10407 0.18521 0.16369 0.18521 0.16369s0 0.05221-8e-3 0.14182c0 0.08925 0 0.20779-7e-3 0.3496v0.1718c0 0.05891 0 0.11853-7e-3 0.17815-7e-3 0.38735-0.0222 0.87101-0.0367 1.3776-7e-3 0.20073-0.0296 0.39405-0.0741 0.59549-0.19297 0.99766-0.7486 1.9212-0.78564 2.1297l-0.0441 0.05891-0.0448 0.05256c-0.0317 0.03175-0.0836 0.06809-0.14429 0.10724-0.13652 0.08749-0.3376 0.19085-0.58949 0.30974-0.21766 0.09737-0.47519 0.2032-0.75353 0.31256-0.65758 0.25894-1.4446 0.54046-2.1946 0.79657-0.0519 0.01517-0.10336 0.03775-0.15558 0.05221-0.55562 0.19332-1.0894 0.37218-1.5187 0.514h-8e-3c-0.6223 0.20814-1.0446 0.34255-1.0594 0.34996-1.9114 1.198-1.4446 1.7716-1.711 3.0078v0.02257c-8e-3 0.01446-0.0152 0.04445-0.0226 0.0889v0.0081c-0.12559 0.6477-0.1778 3.804-0.1778 3.804-3e-3 0.19085-4e-3 0.38876-6e-3 0.58949h25.861c-7.1e-4 -0.20073-2e-3 -0.39758-6e-3 -0.58949" fill="#fbcbc2"/>
    <path d="m170.56 20.55c-0.0441-0.20073-0.0663-0.39476-0.0737-0.59549-0.0226-0.67028-0.037-1.3102-0.0445-1.7276-1.1112 0.49883-2.2525 0.78952-3.3711 0.78952-0.0667 0.01341-0.15134 0.01341-0.22719 0.01341-0.0759 0-0.16051 0-0.22719-0.01341-1.1194 0-2.2602-0.29069-3.3715-0.78952-7e-3 0.41734-0.0219 1.0573-0.0441 1.7276-7e-3 0.20073-0.0296 0.39476-0.0744 0.59549 1.0742 0.901 2.5262 1.8316 3.49 1.8316 0.0593 0.01235 0.1337 0.01164 0.2025 0.01235v0.0032l0.0247-0.0018 0.0243 0.0018v-0.0032c0.0688-7.06e-4 0.14358 0 0.20285-0.01235 0.96344 0 2.4155-0.93063 3.4893-1.8316" fill="#d29490"/>
    <path d="m176.38 7.185c0.18591-1.0301 0.3302-1.8203 0.37535-1.9756 0.0215-0.074083 0.037-0.14817 0.0586-0.22225 0.0152-0.091722 0.0377-0.17286 0.0519-0.254 0.0371-0.127 0.0593-0.254 0.0889-0.381 7e-3 -0.059972 0.0226-0.11642 0.03-0.17639 0.0226-0.14111 0.0519-0.28575 0.0737-0.42686 8e-3 -0.059972 0.0152-0.127 0.0226-0.18344 0.0222-0.127 0.0293-0.254 0.0448-0.381 7e-3 -0.098778 0.0141-0.19403 0.0296-0.28222 7e-3 -0.084667 7e-3 -0.16581 0.0145-0.24694 0.0963-1.9438-0.31821-3.9229-1.5854-5.7185-1.5335-2.159-3.2967-4.445-7.1272-4.766h-3.2304c-3.8305 0.32103-5.5933 2.607-7.1272 4.766-1.2668 1.7956-1.682 3.7747-1.585 5.7185 7e-3 0.081139 7e-3 0.16228 0.0145 0.24694 0.0145 0.088194 0.0219 0.18344 0.0296 0.28222 0.0145 0.127 0.0222 0.254 0.0441 0.381 8e-3 0.056444 0.0152 0.12347 0.0222 0.18344 0.0226 0.14111 0.0522 0.28575 0.0748 0.42686 7e-3 0.059972 0.0215 0.11642 0.0289 0.17639 0.0296 0.127 0.0522 0.254 0.0889 0.381 0.0152 0.081139 0.0377 0.16228 0.0522 0.254 0.0222 0.074083 0.0367 0.14817 0.0593 0.22225 0.0448 0.15169 0.18768 0.93486 0.37253 1.9579-1.022-0.50094-2.4405 0.21872-2.2719 2.1086 0.17392 1.9191 2.4952 3.0575 3.2907 3.2526 0.0783 0.34749 0.14499 0.60572 0.19367 0.72919 0.69674 1.7646 1.5413 2.2931 3.023 3.7306 1.6157 1.5561 4.0008 3.0155 5.1788 3.0081 0.0367 0.0074 0.0819 0.0074 0.12594 0.0074 0.0448 0 0.0889 0 0.12665-0.0074 1.1776 0.0074 3.5631-1.452 5.1781-3.0081 1.4817-1.4376 2.3266-1.966 3.0226-3.7306 0.0487-0.12277 0.11501-0.37853 0.19262-0.72284 0.76835-0.17498 3.1422-1.3173 3.3179-3.259 0.17004-1.9075-1.2756-2.6201-2.2998-2.0909" fill="#fbcbc2"/>
    <path d="m177.94 8.2433c-0.57608-0.94192-1.4785-0.54681-1.7032-0.34219-0.23742 0.22225-0.42686 0.51858-0.28434 1.0724 0.0766 0.31397 0.40429 0.34078 0.31927 0.81598-0.0921 0.53128-0.33726 0.5648-0.47731 0.68368-0.13935 0.11818-0.31503 0.20884-0.40393 0.43603-0.0854 0.22296-0.1009 0.46179-0.0586 0.6664 0.0889 0.38453 0.6484 0.08608 1.0202-0.08255 0.24659-0.11007 1.0322-0.76659 1.2322-0.98425 0.49918-0.55915 0.74013-1.6376 0.3556-2.2655" fill="#eaada6"/>
    <path d="m165.21 16.319c-0.037-0.49177 1.373 0.10301 1.8362 0.11712 0.36901 0.0127 1.4788-0.07267 1.5812-0.11183 0.77576-0.28928-0.0423 0.82232-1.6044 0.88089-0.71543 0.02822-1.7914-0.58808-1.8129-0.88618" fill="#eaada6"/>
    <path d="m169.85 15.682c-0.89394-0.16686-2.7778-0.53269-2.7778-0.53269-1.5529 0.25753-2.7686 0.5274-2.7774 0.53799-0.037 0.0035 1.2404 1.1508 2.7563 1.0724 1.5162 0.07832 2.836-1.0724 2.7989-1.0777" fill="#c14d67"/>
    <path d="m167.97 14.835c-0.40287-0.04445-0.68015 0.19156-0.88723 0.17039-0.2099 0.0194-0.48578-0.21484-0.88865-0.17039-0.57432 0.12277-0.84808 0.48824-1.8905 0.85231 0.037 0.07091 0.70485-0.08714 1.9558-0.06562 0.018 0 0.35384 0.1898 0.8308 0.18627 0.29845-0.0014 0.70837-0.20038 0.72425-0.20038 1.2531-0.01976 2.0179 0.1524 2.0532 0.08326-1.378-0.42616-1.325-0.73166-1.8976-0.85584" fill="#d85b6c"/>
    <path d="m167.82 12.471c0.20355-0.13652 0.44132-0.07197 0.44132-0.07197l-8e-3 0.01376c-0.048 0.08079-0.32067 0.52-0.53798 0.514 6e-3 -0.0039-0.0476-0.04057-0.0614-0.14605-0.0173-0.10442 0.0681-0.24059 0.16651-0.30974" fill="#ae8365"/>
    <path d="m165.07 12.334c-0.0388-0.98531 1.5187-0.35983 2.0324-0.32914 0.40746 0.02469 1.6418-0.30939 1.7484-0.22401 0.72672 0.58526-0.77188 1.7618-1.7727 1.7618-0.26811 0-1.9837-0.61313-2.008-1.2086" fill="#eaada6"/>
    <path d="m166.25 12.455c-0.20356-0.13652-0.44133-0.07197-0.44133-0.07197l8e-3 0.01376c0.0483 0.08079 0.32102 0.52 0.53869 0.51364-6e-3 -0.0032 0.0476-0.04022 0.061-0.14605 0.0173-0.10407-0.0681-0.24024-0.16651-0.30939" fill="#c18985"/>
    <path d="m164.81 5.5975s-0.23742-0.23636-0.67416-0.52917c-0.20955-0.15169-0.48013-0.28575-0.76905-0.42686-0.29104-0.13406-0.61877-0.23989-0.95674-0.29633-0.33549-0.077611-0.68262-0.098778-1.0118-0.091722-0.16545 0.010583-0.32491 0.021167-0.4766 0.03175-0.15346 0.00706-0.29387 0.049389-0.42792 0.067028-0.26917 0.038806-0.4879 0.10583-0.64453 0.14464-0.15945 0.038806-0.25012 0.059972-0.25012 0.059972s0.079-0.049389 0.21696-0.13758c0.14287-0.074083 0.33584-0.22225 0.60431-0.31397 0.26-0.11289 0.57926-0.21519 0.93556-0.28222 0.35807-0.049389 0.7486-0.074083 1.1398-0.03175 0.38876 0.052917 0.76976 0.16228 1.1095 0.30692 0.33937 0.14464 0.629 0.33161 0.86148 0.51153 0.4632 0.35278 0.68897 0.6985 0.68897 0.6985l3e-3 0.00706c0.0684 0.10583 0.0392 0.24694-0.0653 0.31397-0.091 0.059972-0.20919 0.045861-0.28328-0.03175" fill="#3e3a37"/>
    <path d="m159.36 6.6488s0.86677 2.1696 2.2126 2.3813c1.3455 0.21026 2.7802-0.098778 2.7802-0.098778s0.0363-2.5188-0.66252-2.8681c-0.69814-0.34925-2.2962-0.87136-4.3303 0.58561" fill="#fff"/>
   </g>
   <g transform="matrix(.035278 0 0 -.035278 -90.422 362.01)">
    <g clip-path="url(#b)">
     <path d="m7200.7 10084-76.63 6.3v7.2h76.63v-13.5" fill="#222d36"/>
     <path d="m7200.7 10084-76.63 6.4v0.3l76.63-6.3v-0.4" fill="#222d36"/>
     <path d="m7200.7 10084-76.63 6.3v0.4l76.63-6.4v-0.3" fill="#232e38"/>
     <path d="m7200.7 10083-76.63 6.4v0.3l76.63-6.3v-0.4" fill="#242f39"/>
     <path d="m7200.7 10083-76.63 6.3v0.4l76.63-6.4v-0.3" fill="#25313a"/>
     <path d="m7200.7 10082-76.63 6.4v0.3l76.63-6.3v-0.4" fill="#26323c"/>
     <path d="m7200.7 10082-76.63 6.4v0.4l76.63-6.4v-0.4" fill="#26333d"/>
     <path d="m7200.7 10082-76.63 6.4v0.3l76.63-6.4v-0.3" fill="#27343f"/>
     <path d="m7200.7 10081-76.63 6.4v0.4l76.63-6.4v-0.4" fill="#283540"/>
     <path d="m7200.7 10081-76.63 6.3v0.4l76.63-6.4v-0.3" fill="#293741"/>
     <path d="m7200.7 10081-76.63 6.4v0.3l76.63-6.3v-0.4" fill="#2a3843"/>
     <path d="m7200.7 10080-76.63 6.3v0.4l76.63-6.4v-0.3" fill="#2a3944"/>
     <path d="m7200.7 10080-76.63 6.4v0.3l76.63-6.3v-0.4" fill="#2b3a45"/>
     <path d="m7200.7 10080-76.63 6.3v0.4l76.63-6.4v-0.3" fill="#2c3b46"/>
     <path d="m7200.7 10079-76.63 6.4v0.3l76.63-6.3v-0.4" fill="#2d3c48"/>
     <path d="m7200.7 10079-76.63 6.4v0.4l76.63-6.4v-0.4" fill="#2e3d49"/>
     <path d="m7200.7 10079-76.63 6.3v0.4l76.63-6.4v-0.3" fill="#2e3e4a"/>
     <path d="m7200.7 10078-76.63 6.4v0.3l76.63-6.3v-0.4" fill="#2f404b"/>
     <path d="m7200.7 10078-76.63 6.3v0.4l76.63-6.4v-0.3" fill="#30414d"/>
     <path d="m7200.7 10078-76.63 6.4v0.3l76.63-6.3v-0.4" fill="#31424e"/>
     <path d="m7200.7 10077-76.63 6.3v0.4l76.63-6.4v-0.3" fill="#31434f"/>
     <path d="m7200.7 10077-76.63 6.4v0.3l76.63-6.3v-0.4" fill="#324451"/>
     <path d="m7200.7 10076-76.63 6.3v0.4l76.63-6.4v-0.3" fill="#334552"/>
     <path d="m7200.7 10076-76.63 6.4v0.3l76.63-6.3v-0.4" fill="#334653"/>
     <path d="m7200.7 10076-76.63 6.3v0.4l76.63-6.4v-0.3" fill="#344754"/>
     <path d="m7200.7 10075-76.63 6.4v0.3l76.63-6.3v-0.4" fill="#354855"/>
     <path d="m7200.7 10075-76.63 6.4v0.4l76.63-6.4v-0.4" fill="#364957"/>
     <path d="m7200.7 10075-76.63 6.3v0.4l76.63-6.4v-0.3" fill="#364a58"/>
     <path d="m7200.7 10074-76.63 6.4v0.3l76.63-6.3v-0.4" fill="#374b59"/>
     <path d="m7200.7 10074-76.63 6.3v0.4l76.63-6.4v-0.3" fill="#384d5a"/>
     <path d="m7200.7 10074-76.63 6.4v0.3l76.63-6.3v-0.4" fill="#384e5b"/>
     <path d="m7200.7 10073-76.63 6.3v0.4l76.63-6.4v-0.3" fill="#394e5c"/>
     <path d="m7200.7 10073-76.63 6.4v0.3l76.63-6.3v-0.4" fill="#3a505e"/>
     <path d="m7200.7 10073-76.63 6.3v0.4l76.63-6.4v-0.3" fill="#3b515f"/>
     <path d="m7200.7 10072-76.63 6.4v0.3l76.63-6.3v-0.4" fill="#3b5260"/>
     <path d="m7200.7 10072-76.63 6.3v0.4l76.63-6.4v-0.3" fill="#3c5361"/>
     <path d="m7200.7 10072-76.63 6.4v0.3l76.63-6.3v-0.4" fill="#3d5462"/>
     <path d="m7200.7 10071-76.63 6.4v0.4l76.63-6.4v-0.4" fill="#3d5564"/>
     <path d="m7200.7 10071-76.63 6.3v0.4l76.63-6.4v-0.3" fill="#3e5665"/>
     <path d="m7200.7 10070-76.63 6.4v0.3l76.63-6.3v-0.4" fill="#3f5766"/>
     <path d="m7200.7 10070-76.63 6.3v0.4l76.63-6.4v-0.3" fill="#3f5867"/>
     <path d="m7200.7 10070-76.63 6.4v0.3l76.63-6.3v-0.4" fill="#405968"/>
     <path d="m7200.7 10069-76.63 6.3v0.4l76.63-6.4v-0.3" fill="#415969"/>
     <path d="m7200.7 10069-76.63 6.4v0.3l76.63-6.3v-0.4" fill="#415a6a"/>
     <path d="m7200.7 10069-76.63 6.3v0.4l76.63-6.4v-0.3" fill="#425c6b"/>
     <path d="m7200.7 10068-76.63 6.4v0.3l76.63-6.3v-0.4" fill="#435c6c"/>
     <path d="m7200.7 10068-76.63 6.4v0.4l76.63-6.4v-0.4" fill="#435d6d"/>
     <path d="m7200.7 10068-76.63 6.3v0.4l76.63-6.4v-0.3" fill="#445e6f"/>
     <path d="m7200.7 10067-76.63 6.4v0.3l76.63-6.3v-0.4" fill="#455f70"/>
     <path d="m7200.7 10067-76.63 6.3v0.4l76.63-6.4v-0.3" fill="#456071"/>
     <path d="m7200.7 10066-76.63 6.4v0.3l76.63-6.3v-0.4" fill="#466172"/>
     <path d="m7200.7 10066-76.63 6.3v0.4l76.63-6.4v-0.3" fill="#466273"/>
     <path d="m7200.7 10066-76.63 6.4v0.3l76.63-6.3v-0.4" fill="#476374"/>
     <path d="m7200.7 10066-76.63 6.3v0.4l76.63-6.4v-0.3" fill="#486475"/>
     <path d="m7200.7 10065-76.63 6.4v0.3l76.63-6.3v-0.4" fill="#486576"/>
     <path d="m7200.7 10065-76.63 6.4v0.4l76.63-6.4v-0.4" fill="#496677"/>
     <path d="m7200.7 10064-76.63 6.4v0.3l76.63-6.4v-0.3" fill="#4a6778"/>
     <path d="m7200.7 10064-76.63 6.4v0.4l76.63-6.4v-0.4" fill="#4a6779"/>
     <path d="m7200.7 10064-76.63 6.3v0.4l76.63-6.4v-0.3" fill="#4b687a"/>
     <path d="m7200.7 10063-76.63 6.4v0.3l76.63-6.3v-0.4" fill="#4b697b"/>
     <path d="m7200.7 10063-76.63 6.3v0.4l76.63-6.4v-0.3" fill="#4c6a7c"/>
     <path d="m7200.7 10063-76.63 6.4v0.3l76.63-6.3v-0.4" fill="#4c6b7d"/>
     <path d="m7200.7 10062-76.63 6.3v0.4l76.63-6.4v-0.3" fill="#4d6c7e"/>
     <path d="m7200.7 10062-76.63 6.4v0.3l76.63-6.3v-0.4" fill="#4e6d7f"/>
     <path d="m7200.7 10062-76.63 6.3v0.4l76.63-6.4v-0.3" fill="#4e6d80"/>
     <path d="m7200.7 10061-76.63 6.4v0.3l76.63-6.3v-0.4" fill="#4f6e81"/>
     <path d="m7200.7 10061-76.63 6.4v0.4l76.63-6.4v-0.4" fill="#4f6f82"/>
     <path d="m7200.7 10060-76.63 6.3v0.4l76.63-6.4v-0.3" fill="#507083"/>
     <path d="m7200.7 10060-76.63 6.4v0.3l76.63-6.3v-0.4" fill="#507184"/>
     <path d="m7200.7 10060-76.63 6.3v0.4l76.63-6.4v-0.3" fill="#517284"/>
     <path d="m7200.7 10059-76.63 6.4v0.3l76.63-6.3v-0.4" fill="#527285"/>
     <path d="m7200.7 10059-76.63 6.3v0.4l76.63-6.4v-0.3" fill="#527386"/>
     <path d="m7200.7 10059-76.63 6.4v0.3l76.63-6.3v-0.4" fill="#537487"/>
     <path d="m7200.7 10058-76.63 6.3v0.4l76.63-6.4v-0.3" fill="#537588"/>
     <path d="m7200.7 10058-76.63 6.4v0.3l76.63-6.3v-0.4" fill="#547689"/>
     <path d="m7200.7 10058-76.63 6.3v0.4l76.63-6.4v-0.3" fill="#54768a"/>
     <path d="m7200.7 10057-76.63 6.4v0.3l76.63-6.3v-0.4" fill="#55778b"/>
     <path d="m7200.7 10057-76.63 6.4v0.4l76.63-6.4v-0.4" fill="#55788c"/>
     <path d="m7200.7 10057-76.63 6.3v0.4l76.63-6.4v-0.3" fill="#56798d"/>
     <path d="m7200.7 10056-76.63 6.4v0.3l76.63-6.3v-0.4" fill="#56798d"/>
     <path d="m7200.7 10056-76.63 6.3v0.4l76.63-6.4v-0.3" fill="#577a8e"/>
     <path d="m7200.7 10056-76.63 6.4v0.3l76.63-6.3v-0.4" fill="#577b8f"/>
     <path d="m7200.7 10055-76.63 6.3v0.4l76.63-6.4v-0.3" fill="#587c90"/>
     <path d="m7200.7 10055-76.63 6.4v0.3l76.63-6.3v-0.4" fill="#587c91"/>
     <path d="m7200.7 10054-76.63 6.4v0.4l76.63-6.4v-0.4" fill="#597d92"/>
     <path d="m7200.7 10054-76.63 6.3v0.4l76.63-6.4v-0.3" fill="#597e92"/>
     <path d="m7200.7 10054-76.63 6.4v0.3l76.63-6.3v-0.4" fill="#5a7f93"/>
     <path d="m7200.7 10053-76.63 6.3v0.4l76.63-6.4v-0.3" fill="#5a7f94"/>
     <path d="m7200.7 10053-76.63 6.4v0.3l76.63-6.3v-0.4" fill="#5b8095"/>
     <path d="m7200.7 10053-76.63 6.3v0.4l76.63-6.4v-0.3" fill="#5b8196"/>
     <path d="m7200.7 10052-76.63 6.4v0.3l76.63-6.3v-0.4" fill="#5c8196"/>
     <path d="m7200.7 10052-76.63 6.3v0.4l76.63-6.4v-0.3" fill="#5c8297"/>
     <path d="m7200.7 10052-76.63 6.4v0.3l76.63-6.3v-0.4" fill="#5d8398"/>
     <path d="m7200.7 10051-76.63 6.3v0.4l76.63-6.4v-0.3" fill="#5d8399"/>
     <path d="m7200.7 10051-76.63 6.4v0.3l76.63-6.3v-0.4" fill="#5e849a"/>
     <path d="m7200.7 10050-76.63 6.4v0.4l76.63-6.4v-0.4" fill="#5e859a"/>
     <path d="m7200.7 10050-76.63 6.4v0.3l76.63-6.4v-0.3" fill="#5e859b"/>
     <path d="m7200.7 10050-76.63 6.4v0.4l76.63-6.4v-0.4" fill="#5f869c"/>
     <path d="m7200.7 10050-76.63 6.3v0.4l76.63-6.4v-0.3" fill="#5f879d"/>
     <path d="m7200.7 10049-76.63 6.4v0.3l76.63-6.3v-0.4" fill="#60879d"/>
     <path d="m7200.7 10049-76.63 6.3v0.4l76.63-6.4v-0.3" fill="#60889e"/>
     <path d="m7200.7 10048-76.63 6.4v0.3l76.63-6.3v-0.4" fill="#61899f"/>
     <path d="m7200.7 10048-76.63 6.3v0.4l76.63-6.4v-0.3" fill="#61899f"/>
     <path d="m7200.7 10048-76.63 6.4v0.3l76.63-6.3v-0.4" fill="#628aa0"/>
     <path d="m7200.7 10047-76.63 6.3v0.4l76.63-6.4v-0.3" fill="#628aa1"/>
     <path d="m7200.7 10047-76.63 6.4v0.3l76.63-6.3v-0.4" fill="#628ba2"/>
     <path d="m7200.7 10047-76.63 6.4v0.4l76.63-6.4v-0.4" fill="#638ca2"/>
     <path d="m7200.7 10046-76.63 6.3v0.4l76.63-6.4v-0.3" fill="#638ca3"/>
     <path d="m7200.7 10046-76.63 6.4v0.3l76.63-6.3v-0.4" fill="#648da4"/>
     <path d="m7200.7 10046-76.63 6.3v0.4l76.63-6.4v-0.3" fill="#648da4"/>
     <path d="m7200.7 10045-76.63 6.4v0.3l76.63-6.3v-0.4" fill="#648ea5"/>
     <path d="m7200.7 10045-76.63 6.3v0.4l76.63-6.4v-0.3" fill="#658fa6"/>
     <path d="m7200.7 10044-76.63 6.4v0.3l76.63-6.3v-0.4" fill="#658fa6"/>
     <path d="m7200.7 10044-76.63 6.3v0.4l76.63-6.4v-0.3" fill="#6690a7"/>
     <path d="m7200.7 10044-76.63 6.4v0.3l76.63-6.3v-0.4" fill="#6690a7"/>
     <path d="m7200.7 10043-76.63 6.4v0.4l76.63-6.4v-0.4" fill="#6691a8"/>
     <path d="m7200.7 10043-76.63 6.3v0.4l76.63-6.4v-0.3" fill="#6791a9"/>
     <path d="m7200.7 10043-76.63 6.4v0.3l76.63-6.3v-0.4" fill="#6792a9"/>
     <path d="m7200.7 10042-76.63 6.3v0.4l76.63-6.4v-0.3" fill="#6792aa"/>
     <path d="m7200.7 10042-76.63 6.4v0.3l76.63-6.3v-0.4" fill="#6893aa"/>
     <path d="m7200.7 10042-76.63 6.3v0.4l76.63-6.4v-0.3" fill="#6893ab"/>
     <path d="m7200.7 10041-76.63 6.4v0.3l76.63-6.3v-0.4" fill="#6894ac"/>
     <path d="m7200.7 10041-76.63 6.3v0.4l76.63-6.4v-0.3" fill="#6994ac"/>
     <path d="m7200.7 10041-76.63 6.4v0.3l76.63-6.3v-0.4" fill="#6995ad"/>
     <path d="m7200.7 10040-76.63 6.3v0.4l76.63-6.4v-0.3" fill="#6995ad"/>
     <path d="m7200.7 10040-76.63 6.4v0.3l76.63-6.3v-0.4" fill="#6a96ae"/>
     <path d="m7200.7 10040-76.63 6.4v0.4l76.63-6.4v-0.4" fill="#6a96ae"/>
     <path d="m7200.7 10039-76.63 6.3v0.4l76.63-6.4v-0.3" fill="#6a97af"/>
     <path d="m7200.7 10039-76.63 6.4v0.3l76.63-6.3v-0.4" fill="#6b97b0"/>
     <path d="m7200.7 10038-76.63 6.3v0.4l76.63-6.4v-0.3" fill="#6b98b0"/>
     <path d="m7200.7 10038-76.63 6.4v0.3l76.63-6.3v-0.4" fill="#6b98b1"/>
     <path d="m7200.7 10038-76.63 6.3v0.4l76.63-6.4v-0.3" fill="#6c99b1"/>
     <path d="m7200.7 10037-76.63 6.4v0.3l76.63-6.3v-0.4" fill="#6c99b2"/>
     <path d="m7200.7 10037-76.63 6.3v0.4l76.63-6.4v-0.3" fill="#6c9ab2"/>
     <path d="m7200.7 10037-76.63 6.4v0.3l76.63-6.3v-0.4" fill="#6d9ab3"/>
     <path d="m7200.7 10036-76.63 6.4v0.4l76.63-6.4v-0.4" fill="#6d9bb3"/>
     <path d="m7200.7 10036-76.63 6.4v0.3l76.63-6.4v-0.3" fill="#6d9bb4"/>
     <path d="m7200.7 10036-76.63 6.4v0.4l76.63-6.4v-0.4" fill="#6d9bb4"/>
     <path d="m7200.7 10035-76.63 6.3v0.4l76.63-6.4v-0.3" fill="#6e9cb5"/>
     <path d="m7200.7 10035-76.63 6.4v0.3l76.63-6.3v-0.4" fill="#6e9cb5"/>
     <path d="m7200.7 10035-76.63 6.3v0.4l76.63-6.4v-0.3" fill="#6e9db6"/>
     <path d="m7200.7 10034-76.63 6.4v0.3l76.63-6.3v-0.4" fill="#6f9db6"/>
     <path d="m7200.7 10034-76.63 6.3v0.4l76.63-6.4v-0.3" fill="#6f9db6"/>
     <path d="m7200.7 10034-76.63 6.4v0.3l76.63-6.3v-0.4" fill="#6f9eb7"/>
     <path d="m7200.7 10033-76.63 6.3v0.4l76.63-6.4v-0.3" fill="#6f9eb7"/>
     <path d="m7200.7 10033-76.63 6.4v0.3l76.63-6.3v-0.4" fill="#709fb8"/>
     <path d="m7200.7 10032-76.63 6.4v0.4l76.63-6.4v-0.4" fill="#709fb8"/>
     <path d="m7200.7 10032-76.63 6.3v0.4l76.63-6.4v-0.3" fill="#709fb9"/>
     <path d="m7200.7 10032-76.63 6.4v0.3l76.63-6.3v-0.4" fill="#70a0b9"/>
     <path d="m7200.7 10031-76.63 6.3v0.4l76.63-6.4v-0.3" fill="#71a0b9"/>
     <path d="m7200.7 10031-76.63 6.4v0.3l76.63-6.3v-0.4" fill="#71a0ba"/>
     <path d="m7200.7 10031-76.63 6.3v0.4l76.63-6.4v-0.3" fill="#71a1ba"/>
     <path d="m7200.7 10030-76.63 6.4v0.3l76.63-6.3v-0.4" fill="#71a1bb"/>
     <path d="m7200.7 10030-76.63 6.4v0.4l76.63-6.4v-0.4" fill="#72a1bb"/>
     <path d="m7200.7 10030-76.63 6.4v0.3l76.63-6.4v-0.3" fill="#72a2bb"/>
     <path d="m7200.7 10029-76.63 6.4v0.4l76.63-6.4v-0.4" fill="#72a2bc"/>
     <path d="m7200.7 10029-76.63 6.3v0.4l76.63-6.4v-0.3" fill="#72a2bc"/>
     <path d="m7200.7 10028-76.63 6.4v0.3l76.63-6.3v-0.4" fill="#72a3bc"/>
     <g fill="#73a3bd">
      <path d="m7200.7 10028-76.63 6.3v0.4l76.63-6.4v-0.3"/>
      <path d="m7200.7 10028-76.63 6.4v0.3l76.63-6.3v-0.4"/>
      <path d="m7200.7 10028-76.63 6.3v0.4l76.63-6.4v-0.3"/>
     </g>
     <path d="m7200.7 10027-76.63 6.4v0.3l76.63-6.3v-0.4" fill="#73a4be"/>
     <path d="m7200.7 10027-76.63 6.3v0.4l76.63-6.4v-0.3" fill="#73a4be"/>
     <path d="m7200.7 10026-76.63 6.4v0.3l76.63-6.3v-0.4" fill="#74a4be"/>
     <g fill="#74a5bf">
      <path d="m7200.7 10026-76.63 6.3v0.4l76.63-6.4v-0.3"/>
      <path d="m7200.7 10026-76.63 6.4v0.3l76.63-6.3v-0.4"/>
      <path d="m7200.7 10025-76.63 6.4v0.4l76.63-6.4v-0.4"/>
      <path d="m7200.7 10025-76.63 6.3v0.4l76.63-6.4v-0.3"/>
     </g>
     <path d="m7200.7 10025-76.63 6.4v0.3l76.63-6.3v-0.4" fill="#74a6c0"/>
     <g fill="#75a6c0">
      <path d="m7200.7 10024-76.63 6.3v0.4l76.63-6.4v-0.3"/>
      <path d="m7200.7 10024-76.63 6.4v0.3l76.63-6.3v-0.4"/>
      <path d="m7200.7 10024-76.63 6.3v0.4l76.63-6.4v-0.3"/>
     </g>
     <path d="m7200.7 10023-76.63 6.4v0.3l76.63-6.3v-0.4" fill="#75a6c1"/>
     <g fill="#75a7c1">
      <path d="m7200.7 10023-76.63 6.3v0.4l76.63-6.4v-0.3"/>
      <path d="m7200.7 10022-76.63 6.4v0.3l76.63-6.3v-0.4"/>
      <path d="m7200.7 10022-76.63 6.4v0.4l76.63-6.4v-0.4"/>
     </g>
     <path d="m7199.7 10022-75.7 6.3v0.3l76.63-6.4v-0.2h-0.93" fill="#76a7c2"/>
     <path d="m7195.5 10022-71.42 5.9v0.4l75.7-6.3h-4.28" fill="#76a7c2"/>
     <g fill="#76a8c2">
      <path d="m7191.2 10022-67.14 5.5v0.4l71.42-5.9h-4.28"/>
      <path d="m7186.9 10022-62.86 5.2v0.3l67.14-5.5h-4.28"/>
      <path d="m7182.6 10022-58.59 4.8v0.4l62.86-5.2h-4.27"/>
     </g>
     <g fill="#76a8c3">
      <path d="m7178.4 10022-54.31 4.5v0.3l58.59-4.8h-4.28"/>
      <path d="m7174.1 10022-50.03 4.1v0.4l54.31-4.5h-4.28"/>
      <path d="m7169.8 10022-45.75 3.8v0.3l50.03-4.1h-4.28"/>
     </g>
     <path d="m7165.5 10022-41.48 3.4v0.4l45.75-3.8h-4.27" fill="#76a9c3"/>
     <path d="m7161.2 10022-37.2 3v0.4l41.48-3.4h-4.28" fill="#77a9c3"/>
     <g fill="#77a9c4">
      <path d="m7157 10022-32.92 2.7v0.3l37.2-3h-4.28"/>
      <path d="m7152.7 10022-28.64 2.3v0.4l32.92-2.7h-4.28"/>
      <path d="m7148.4 10022-24.36 2v0.3l28.64-2.3h-4.28"/>
      <path d="m7144.1 10022-20.08 1.6v0.4l24.36-2h-4.28"/>
      <path d="m7139.8 10022-15.81 1.3v0.3l20.08-1.6h-4.27"/>
     </g>
     <path d="m7135.6 10022-11.53 0.9v0.4l15.81-1.3h-4.28" fill="#77aac4"/>
    </g>
   </g>
   <g>
    <path d="m162.19 8.0034c-0.38135-0.03175-0.67381-0.41628-0.63924-0.83961 0.0339-0.41981 0.38559-0.75142 0.7673-0.71967 0.38135 0.03175 0.67345 0.41275 0.63994 0.83608-0.0349 0.42333-0.38665 0.75494-0.768 0.72319" fill="#81c0cf"/>
    <path d="m162.22 7.8482c-0.26564-0.021167-0.54081-0.31044-0.51188-0.67028 0.03-0.35631 0.34854-0.59972 0.61418-0.57856 0.26529 0.021167 0.54011 0.31397 0.51083 0.67028-0.0293 0.35983-0.34855 0.60325-0.61313 0.57856" fill="#1f1712"/>
    <path d="m164.35 8.9242c1e-3 -0.13758 0.0159-2.5224-0.66252-2.861-0.3429-0.17286-0.90276-0.38453-1.6245-0.38453-0.74754 0-1.669 0.22931-2.7033 0.97014l-2e-3 -0.00706c1.0382-0.74436 1.9629-0.97367 2.7118-0.97367 0.72073 0 1.2785 0.21519 1.6186 0.38453 0.69956 0.34925 0.66322 2.8716 0.66322 2.8716h-1e-3" fill="#b29089"/>
    <path d="m164.25 8.9489c-0.0487-0.77611-0.19826-1.8415-0.63465-2.0567-0.0321-0.017639-0.066-0.03175-0.10195-0.049389-1e-3 -0.00353-2e-3 -0.00706-3e-3 -0.014111h-0.0272 0.0272c-1e-3 -0.00353-2e-3 -0.00706-3e-3 -0.010583l-0.0586-0.00706 0.0586 0.00706c-1e-3 -0.00353-2e-3 -0.010583-3e-3 -0.014111l-0.0903-0.00706 0.0903 0.00706c-1e-3 -0.00353-2e-3 -0.00706-4e-3 -0.010583l-0.12347-0.010583 0.12347 0.010583c-1e-3 -0.00706-2e-3 -0.010583-4e-3 -0.014111l-0.1584-0.014111 0.1584 0.014111c-1e-3 -0.00353-2e-3 -0.00706-4e-3 -0.014111l-0.19403-0.014111 0.19403 0.014111c-1e-3 -0.00353-2e-3 -0.00706-4e-3 -0.010583l-0.23248-0.021167 0.23248 0.021167c-1e-3 -0.00353-3e-3 -0.010583-4e-3 -0.014111l-0.27235-0.021167 0.27235 0.021167c-1e-3 -0.00353-3e-3 -0.00706-4e-3 -0.014111l-0.31504-0.024694 0.31504 0.024694c-1e-3 -0.00353-3e-3 -0.00706-5e-3 -0.010583l-0.35948-0.03175 0.35948 0.03175c-1e-3 -0.00353-3e-3 -0.010583-4e-3 -0.014111l-0.40817-0.035278 0.40817 0.035278c-2e-3 -0.00353-3e-3 -0.00706-5e-3 -0.014111l-0.46073-0.035278 0.46073 0.035278c-1e-3 -0.00353-3e-3 -0.00706-5e-3 -0.010583l-0.51859-0.042333 0.51859 0.042333c-1e-3 -0.00706-3e-3 -0.010583-5e-3 -0.014111l-0.58314-0.049389 0.58314 0.049389c-2e-3 -0.00353-3e-3 -0.00706-5e-3 -0.014111l-0.65793-0.052917 0.65793 0.052917c-2e-3 -0.00353-4e-3 -0.00706-6e-3 -0.010583l-0.74966-0.0635 0.74966 0.0635c-2e-3 -0.00706-4e-3 -0.010583-5e-3 -0.014111l-0.81809-0.067028 0.81809 0.067028c-2e-3 -0.00353-4e-3 -0.00706-6e-3 -0.014111l-0.83432-0.067028 0.83432 0.067028c-2e-3 -0.00353-4e-3 -0.00706-6e-3 -0.010583l-0.85196-0.070556 0.85196 0.070556c-2e-3 -0.00706-4e-3 -0.010583-6e-3 -0.014111l-0.87313-0.074083 0.87313 0.074083c-2e-3 -0.00353-4e-3 -0.00706-6e-3 -0.014111l-0.89747-0.074083 0.89747 0.074083c-2e-3 -0.00353-4e-3 -0.00706-6e-3 -0.010583l-0.92887-0.077611 0.92887 0.077611c-2e-3 -0.00706-5e-3 -0.010583-7e-3 -0.014111l-0.97296-0.081139 0.97296 0.081139c-2e-3 -0.00353-5e-3 -0.00706-7e-3 -0.014111l-2.1874-0.17992c-3e-3 0.00353-6e-3 0.00706-9e-3 0.010583l0.99484 0.081139-0.99484-0.081139c-3e-3 0.00353-6e-3 0.00706-9e-3 0.010583l0.95074 0.081139-0.95074-0.081139c-3e-3 0.00706-6e-3 0.010583-8e-3 0.014111l0.91934 0.074083-0.91944-0.074082c-3e-3 0.00353-6e-3 0.00706-8e-3 0.010583l0.8943 0.074083-0.8943-0.074083c-3e-3 0.00353-6e-3 0.00706-8e-3 0.010583l0.87348 0.074083-0.87348-0.074083c-3e-3 0.00706-5e-3 0.010583-8e-3 0.014111l0.85584 0.070556-0.85584-0.070556c-2e-3 0.00353-5e-3 0.00706-8e-3 0.010583l0.83961 0.070556-0.83961-0.070556c-2e-3 0.00353-5e-3 0.00706-7e-3 0.014111l0.7433 0.059972-0.7433-0.059972c-2e-3 0.00353-5e-3 0.00706-7e-3 0.010583l0.65017 0.052917-0.65017-0.052917c-2e-3 0.00353-5e-3 0.00706-7e-3 0.010583l0.57397 0.049389-0.57397-0.049389c-2e-3 0.00353-5e-3 0.010583-7e-3 0.014111l0.508 0.042333-0.508-0.042333c-2e-3 0.00353-4e-3 0.00706-7e-3 0.010583l0.44874 0.038806-0.44874-0.038806c-2e-3 0.00353-5e-3 0.00706-7e-3 0.010583l0.39476 0.035278-0.39476-0.035278c-2e-3 0.00706-4e-3 0.010583-7e-3 0.014111l0.34466 0.028222-0.34466-0.028222c-2e-3 0.00353-4e-3 0.00706-6e-3 0.010583l0.2981 0.024694-0.2981-0.024694c-2e-3 0.00353-4e-3 0.010583-6e-3 0.014111l0.254 0.021167-0.254-0.021167c-2e-3 0.00353-4e-3 0.00706-6e-3 0.010583l0.21202 0.017639-0.21202-0.017639c-2e-3 0.00353-4e-3 0.00706-6e-3 0.010583l0.17216 0.017639-0.17216-0.017639c-2e-3 0.00706-4e-3 0.010583-6e-3 0.014111l0.13476 0.010583-0.13476-0.010583c-2e-3 0.00353-4e-3 0.00706-6e-3 0.010583l0.0981 0.010583-0.0981-0.010583c-2e-3 0.00353-4e-3 0.010583-5e-3 0.014111l0.0628 0.00353-0.0628-0.00353c-2e-3 0.00353-4e-3 0.00706-5e-3 0.010583l0.0286 0.00353-0.0286-0.00353c-2e-3 0.00353-3e-3 0.00706-5e-3 0.010583-0.43497 0.10936-0.90734 0.29986-1.41 0.61031-0.17286-0.31044-0.26952-0.55033-0.28399-0.58561 1.0344-0.74083 1.9558-0.97014 2.7033-0.97014 0.72178 0 1.2816 0.21167 1.6245 0.38453 0.67839 0.33867 0.66393 2.7234 0.66252 2.861-6e-3 0.00353-0.037 0.00706-0.0967 0.024695m-3.041-2.5964 2.189 0.17992c-2e-3 -0.00353-5e-3 -0.00706-7e-3 -0.010583l-2.1728-0.18344c-3e-3 0.00706-6e-3 0.010583-9e-3 0.014111m9e-3 -0.014111 2.1728 0.18344c-2e-3 -0.00706-5e-3 -0.010583-7e-3 -0.014111l-2.1562-0.17992c-3e-3 0.00353-6e-3 0.00706-9e-3 0.010583m9e-3 -0.010583 2.1562 0.17992c-2e-3 -0.00353-5e-3 -0.010583-7e-3 -0.014111l-2.1392-0.17639c-3e-3 0.00353-6e-3 0.00706-0.01 0.010583m0.01-0.010583 2.1392 0.17639c-2e-3 -0.00353-5e-3 -0.00706-8e-3 -0.014111l-2.1232-0.17638c-3e-3 0.00706-6e-3 0.010583-0.01 0.014111m0.01-0.014111 2.122 0.17639c-2e-3 -0.00353-5e-3 -0.00706-8e-3 -0.010583l-2.1043-0.17639c-3e-3 0.00353-7e-3 0.00706-0.01 0.010583m0.01-0.010583 2.1043 0.17639c-3e-3 -0.00706-5e-3 -0.010583-8e-3 -0.014111l-2.086-0.17286c-4e-3 0.00353-7e-3 0.00706-0.0102 0.010583m0.0102-0.010583 2.086 0.17286c-3e-3 -0.00353-6e-3 -0.010583-8e-3 -0.014111l-2.0669-0.17286c-4e-3 0.00706-7e-3 0.010583-0.0106 0.014111m0.0106-0.014111 2.0669 0.17286c-3e-3 -0.00353-6e-3 -0.00706-8e-3 -0.014111l-2.0479-0.16933c-4e-3 0.00353-7e-3 0.00706-0.0106 0.010583m0.0106-0.010583 2.0479 0.16933c-3e-3 -0.00353-6e-3 -0.00706-9e-3 -0.010583l-2.0288-0.16933c-4e-3 0.00353-7e-3 0.00706-0.0109 0.010583m0.0109-0.010583 2.0281 0.16933c-3e-3 -0.00706-6e-3 -0.010583-9e-3 -0.014111l-2.008-0.16581c-4e-3 0.00353-7e-3 0.00706-0.0109 0.010583m0.0109-0.010583 2.008 0.16581c-3e-3 -0.00353-6e-3 -0.010583-0.01-0.014111l-1.9872-0.16581c-4e-3 0.00353-7e-3 0.00706-0.0113 0.014111m0.0113-0.014111 1.9872 0.16581c-3e-3 -0.00353-6e-3 -0.00706-0.01-0.014111l-1.966-0.16228c-4e-3 0.00353-8e-3 0.00706-0.0116 0.010583m0.0116-0.010583 1.966 0.16228c-3e-3 -0.00353-6e-3 -0.00706-0.01-0.010583l-1.9442-0.16228c-4e-3 0.00353-8e-3 0.00706-0.012 0.010583m0.012-0.010583 1.9442 0.16228c-3e-3 -0.00706-7e-3 -0.010583-0.0102-0.014111l-1.9216-0.16228c-4e-3 0.00706-8e-3 0.010583-0.0123 0.014111m0.0123-0.014111 1.9216 0.16228c-4e-3 -0.00706-7e-3 -0.010583-0.0102-0.014111l-1.899-0.15875c-4e-3 0.00353-8e-3 0.00706-0.0123 0.010583m0.0123-0.010583 1.899 0.15875c-4e-3 -0.00353-7e-3 -0.010583-0.0109-0.014111l-1.875-0.15522c-5e-3 0.00353-9e-3 0.00706-0.0131 0.010583m0.0131-0.010583 1.875 0.15522c-4e-3 -0.00353-7e-3 -0.010583-0.0113-0.014111l-1.8507-0.15169c-5e-3 0.00353-9e-3 0.00706-0.013 0.010583m0.013-0.010583 1.8507 0.15169c-4e-3 -0.00353-7e-3 -0.00706-0.0113-0.014111l-1.826-0.15169c-5e-3 0.00706-9e-3 0.010583-0.0134 0.014111m0.0134-0.014111 1.826 0.15169c-4e-3 -0.00353-8e-3 -0.00706-0.012-0.010583l-1.8002-0.15169c-5e-3 0.00353-9e-3 0.00706-0.0138 0.010583m0.0138-0.010583 1.8002 0.15169c-4e-3 -0.00706-8e-3 -0.010583-0.012-0.014111l-1.7729-0.14817c-5e-3 0.00353-0.01 0.00706-0.0145 0.010583m0.0145-0.010583 1.7738 0.14817c-4e-3 -0.00706-8e-3 -0.010583-0.0123-0.014111l-1.747-0.14464c-5e-3 0.00353-0.01 0.00706-0.0145 0.010583m0.0145-0.010583 1.747 0.14464c-5e-3 -0.00353-9e-3 -0.010583-0.0131-0.014111l-1.7191-0.14111c-5e-3 0.00353-0.01 0.00706-0.0148 0.010583m0.0148-0.010583 1.7191 0.14111c-5e-3 -0.00353-9e-3 -0.010583-0.0134-0.014111l-1.6902-0.14111c-5e-3 0.00353-0.0106 0.010583-0.0155 0.014111m0.0155-0.014111 1.6902 0.14111c-0.21061-0.21167-0.49636-0.35278-0.81915-0.381-0.037-0.00353-0.0737-0.00353-0.11042-0.00353-0.28187 0-0.54575 0.091722-0.76059 0.24342" fill="#b3aba7"/>
    <path d="m163.17 6.2254-1.6902-0.14111c0.21484-0.15169 0.47872-0.24342 0.76059-0.24342 0.0367 0 0.0734 0 0.11042 0.00353 0.32279 0.028222 0.60854 0.16933 0.81915 0.381" fill="#2b353a"/>
    <path d="m163.19 6.2395-1.7191-0.14111c5e-3 -0.00353 0.0102-0.010583 0.0155-0.014111l1.6902 0.14111c5e-3 0.00353 9e-3 0.010583 0.0134 0.014111" fill="#2b353a"/>
    <path d="m163.2 6.2537-1.747-0.14464c5e-3 -0.00353 0.01-0.00706 0.0148-0.010583l1.7191 0.14111c4e-3 0.00353 8e-3 0.010583 0.0131 0.014111" fill="#2c363b"/>
    <path d="m163.21 6.2678-1.7738-0.14817c5e-3 -0.00353 0.01-0.00706 0.0145-0.010583l1.747 0.14464c4e-3 0.00353 8e-3 0.00706 0.0123 0.014111" fill="#2c363c"/>
    <path d="m163.22 6.2819-1.8002-0.15169c5e-3 -0.00353 0.01-0.00706 0.0145-0.010583l1.7738 0.14817c4e-3 0.00353 8e-3 0.00706 0.012 0.014111" fill="#2d373c"/>
    <path d="m163.24 6.2925-1.826-0.15169c5e-3 -0.00353 9e-3 -0.00706 0.0138-0.010583l1.8002 0.15169c4e-3 0.00353 8e-3 0.00706 0.012 0.010583" fill="#2d383e"/>
    <path d="m163.25 6.3066-1.8507-0.15169c5e-3 -0.00353 9e-3 -0.00706 0.0134-0.014111l1.826 0.15169c4e-3 0.00706 8e-3 0.010583 0.0113 0.014111" fill="#2e383e"/>
    <path d="m163.26 6.3207-1.875-0.15522c4e-3 -0.00353 8e-3 -0.00706 0.013-0.010583l1.8507 0.15169c4e-3 0.00353 8e-3 0.010583 0.0113 0.014111" fill="#2f393f"/>
    <path d="m163.27 6.3348-1.899-0.15875c4e-3 -0.00353 8e-3 -0.00706 0.0131-0.010583l1.875 0.15522c4e-3 0.00353 7e-3 0.010583 0.0109 0.014111" fill="#2f3a40"/>
    <path d="m163.28 6.3489-1.9216-0.16228c4e-3 -0.00353 8e-3 -0.00706 0.0123-0.010583l1.899 0.15875c4e-3 0.00353 7e-3 0.00706 0.0102 0.014111" fill="#2f3a40"/>
    <path d="m163.29 6.363-1.9442-0.16228c4e-3 -0.00353 8e-3 -0.00706 0.0123-0.014111l1.9216 0.16228c4e-3 0.00353 7e-3 0.00706 0.0102 0.014111" fill="#303b42"/>
    <path d="m163.3 6.3736-1.966-0.16228c4e-3 -0.00353 8e-3 -0.00706 0.012-0.010583l1.9442 0.16228c4e-3 0.00353 7e-3 0.00706 0.01 0.010583" fill="#313c42"/>
    <path d="m163.31 6.3877-1.9872-0.16581c4e-3 -0.00353 8e-3 -0.00706 0.0116-0.010583l1.966 0.16228c3e-3 0.00706 6e-3 0.010583 0.01 0.014111" fill="#313c43"/>
    <path d="m163.32 6.4018-2.008-0.16581c4e-3 -0.00706 7e-3 -0.010583 0.0113-0.014111l1.9872 0.16581c3e-3 0.00353 6e-3 0.010583 0.01 0.014111" fill="#313d43"/>
    <path d="m163.33 6.4159-2.0281-0.16933c4e-3 -0.00353 7e-3 -0.00706 0.0109-0.010583l2.008 0.16581c3e-3 0.00353 6e-3 0.00706 9e-3 0.014111" fill="#323e44"/>
    <path d="m163.34 6.4265-2.0479-0.16933c4e-3 -0.00353 7e-3 -0.00706 0.0109-0.010583l2.0281 0.16933c3e-3 0.00353 6e-3 0.00706 9e-3 0.010583" fill="#333e45"/>
    <path d="m163.35 6.4406-2.0669-0.17286c4e-3 -0.00353 7e-3 -0.00706 0.0106-0.010583l2.0479 0.16933c3e-3 0.00706 6e-3 0.010583 8e-3 0.014111" fill="#333f46"/>
    <path d="m163.35 6.4547-2.086-0.17286c4e-3 -0.00353 7e-3 -0.00706 0.0106-0.014111l2.0669 0.17286c3e-3 0.00353 6e-3 0.010583 8e-3 0.014111" fill="#344047"/>
    <path d="m163.36 6.4689-2.1043-0.17639c4e-3 -0.00353 7e-3 -0.00706 0.0102-0.010583l2.086 0.17286c3e-3 0.00353 5e-3 0.00706 8e-3 0.014111" fill="#344147"/>
    <path d="m163.37 6.4794-2.122-0.17639c3e-3 -0.00353 7e-3 -0.00706 0.01-0.010583l2.1043 0.17639c2e-3 0.00353 5e-3 0.00706 8e-3 0.010583" fill="#354148"/>
    <path d="m163.38 6.4935-2.1392-0.17639c3e-3 -0.00353 6e-3 -0.00706 0.01-0.014111l2.122 0.17639c2e-3 0.00706 5e-3 0.010583 8e-3 0.014111" fill="#354248"/>
    <path d="m163.39 6.5077-2.1562-0.17992c3e-3 -0.00353 6e-3 -0.00706 0.01-0.010583l2.1392 0.17639c2e-3 0.00353 5e-3 0.010583 7e-3 0.014111" fill="#36434a"/>
    <path d="m163.39 6.5218-2.1728-0.18344c3e-3 -0.00353 6e-3 -0.00706 9e-3 -0.010583l2.1562 0.17992c2e-3 0.00353 5e-3 0.00706 7e-3 0.014111" fill="#36434a"/>
    <path d="m163.4 6.5324-2.189-0.17992c3e-3 -0.00353 6e-3 -0.00706 9e-3 -0.014111l2.1728 0.18344c2e-3 0.00353 5e-3 0.00706 7e-3 0.010583" fill="#37444b"/>
    <path d="m163.41 6.5465-0.97296-0.081139c-0.0381-0.010583-0.0773-0.017639-0.11747-0.021167-0.0173 0-0.0342-0.00353-0.0512-0.00353-0.0229 0-0.0455 0.00353-0.0681 0.00353l-0.99484-0.081139c3e-3 -0.00353 6e-3 -0.00706 9e-3 -0.010583l2.189 0.17992c2e-3 0.00706 5e-3 0.010583 7e-3 0.014111" fill="#37454c"/>
    <path d="m163.41 6.5606-0.92887-0.077611c-0.0169-0.00706-0.0339-0.014111-0.0508-0.017639l0.97296 0.081139c2e-3 0.00353 5e-3 0.00706 7e-3 0.014111m-1.2693-0.10583-0.95074-0.081139c3e-3 -0.00353 6e-3 -0.00706 9e-3 -0.010583l0.99484 0.081139c-0.0176 0.00353-0.0353 0.00706-0.0529 0.010583" fill="#38454c"/>
    <path d="m163.42 6.5712-0.89747-0.074083c-0.0127-0.00353-0.025-0.010583-0.0377-0.014111l0.92887 0.077611c2e-3 0.00353 4e-3 0.00706 6e-3 0.010583m-1.3152-0.10936-0.91934-0.074083c3e-3 -0.00353 6e-3 -0.00706 8e-3 -0.014111l0.95074 0.081139c-0.0134 0-0.0268 0.00353-0.0399 0.00706" fill="#38464d"/>
    <path d="m163.43 6.5853-0.87313-0.074083c-0.0102-0.00353-0.0205-0.00706-0.0307-0.014111l0.89747 0.074083c2e-3 0.00706 4e-3 0.010583 6e-3 0.014111m-1.355-0.11289-0.8943-0.074083c2e-3 -0.00353 5e-3 -0.00706 8e-3 -0.010583l0.91934 0.074083c-0.0109 0.00353-0.0222 0.00706-0.0332 0.010583" fill="#39464e"/>
    <path d="m163.43 6.5994-0.85196-0.070556c-9e-3 -0.00706-0.018-0.010583-0.0272-0.017639l0.87313 0.074083c2e-3 0.00353 4e-3 0.00706 6e-3 0.014111m-1.3899-0.11642-0.87348-0.074083c2e-3 -0.00353 5e-3 -0.00706 8e-3 -0.010583l0.8943 0.074083c-0.01 0.00353-0.0194 0.00706-0.0289 0.010583" fill="#39474f"/>
    <path d="m163.44 6.61-0.83432-0.067028c-8e-3 -0.00706-0.0159-0.010583-0.0236-0.014111l0.85196 0.070556c2e-3 0.00353 4e-3 0.00706 6e-3 0.010583m-1.4217-0.11642-0.85584-0.070556c3e-3 -0.00353 5e-3 -0.00706 8e-3 -0.014111l0.87348 0.074083c-9e-3 0.00353-0.0173 0.00706-0.0257 0.010583" fill="#3a484f"/>
    <path d="m163.44 6.6241-0.81809-0.067028c-7e-3 -0.00706-0.0145-0.010583-0.0219-0.014111l0.83432 0.067028c2e-3 0.00706 4e-3 0.010583 6e-3 0.014111m-1.4513-0.11994-0.83961-0.070556c3e-3 -0.00353 5e-3 -0.00706 8e-3 -0.010583l0.85584 0.070556c-8e-3 0.00353-0.0162 0.00706-0.024 0.010583" fill="#3a4850"/>
    <path d="m163.45 6.6382-0.74966-0.0635c-0.0212-0.00353-0.043-0.00706-0.0649-0.010583-3e-3 -0.00353-6e-3 -0.00706-9e-3 -0.00706l0.81809 0.067028c2e-3 0.00353 4e-3 0.00706 5e-3 0.014111m-1.5603-0.13053-0.7433-0.059972c2e-3 -0.00706 5e-3 -0.010583 7e-3 -0.014111l0.83961 0.070556c-1e-3 0-3e-3 0-5e-3 0.00353h-0.0991" fill="#3a4950"/>
    <path d="m163.45 6.6488-0.65793-0.052917c-0.0321-0.00706-0.0642-0.014111-0.0974-0.021167l0.74966 0.0635c2e-3 0.00353 4e-3 0.00706 6e-3 0.010583m-1.6665-0.13758-0.65017-0.052917c2e-3 -0.00353 5e-3 -0.00706 7e-3 -0.010583l0.7433 0.059972c-0.0332 0-0.0667 0.00353-0.10054 0.00353" fill="#3b4a52"/>
    <path d="m163.46 6.6629-0.58314-0.049389c-0.0261-0.00353-0.0529-0.010583-0.0797-0.017639l0.65793 0.052917c2e-3 0.00706 3e-3 0.010583 5e-3 0.014111m-1.7547-0.14464-0.57397-0.049389c2e-3 -0.00353 5e-3 -0.00706 7e-3 -0.010583l0.65017 0.052917c-0.0275 0.00353-0.0554 0.00353-0.0833 0.00706" fill="#3b4a52"/>
    <path d="m163.46 6.677-0.51859-0.042333c-0.0229-0.00706-0.0459-0.014111-0.0695-0.021167l0.58314 0.049389c2e-3 0.00353 4e-3 0.00706 5e-3 0.014111m-1.833-0.15169-0.508-0.042333c2e-3 -0.00353 5e-3 -0.010583 7e-3 -0.014111l0.57397 0.049389c-0.0243 0-0.049 0.00353-0.0734 0.00706" fill="#3c4b53"/>
    <path d="m163.47 6.6876-0.46073-0.035278c-0.0208-0.00706-0.0416-0.014111-0.0628-0.017639l0.51859 0.042333c2e-3 0.00353 4e-3 0.00706 5e-3 0.010583m-1.9039-0.15522-0.44874-0.038806c2e-3 -0.00353 5e-3 -0.00706 7e-3 -0.010583l0.508 0.042333c-0.0219 0-0.0441 0.00353-0.066 0.00706" fill="#3c4c53"/>
    <path d="m163.47 6.7017-0.40817-0.035278c-0.019-0.00353-0.0381-0.010583-0.0575-0.014111l0.46073 0.035278c2e-3 0.00706 3e-3 0.010583 5e-3 0.014111m-1.9696-0.16228-0.39476-0.035278c2e-3 -0.00353 5e-3 -0.00706 7e-3 -0.010583l0.44874 0.038806c-0.0201 0-0.0402 0.00353-0.0607 0.00706" fill="#3d4c54"/>
    <path d="m163.48 6.7158-0.35948-0.03175c-0.0173-0.00353-0.0349-0.010583-0.0529-0.017639l0.40817 0.035278c1e-3 0.00353 3e-3 0.010583 4e-3 0.014111m-2.0306-0.16933-0.34466-0.028222c2e-3 -0.00353 5e-3 -0.00706 7e-3 -0.014111l0.39476 0.035278c-0.0187 0-0.0377 0.00353-0.0568 0.00706" fill="#3d4d54"/>
    <path d="m163.48 6.7264-0.31504-0.024694c-0.0162-0.00706-0.0324-0.010583-0.049-0.017639l0.35948 0.03175c1e-3 0.00353 3e-3 0.00706 5e-3 0.010583m-2.0877-0.17286-0.2981-0.024694c2e-3 -0.00353 4e-3 -0.00706 6e-3 -0.010583l0.34466 0.028222c-0.0176 0.00353-0.0349 0.00353-0.0526 0.00706" fill="#3e4e56"/>
    <path d="m163.49 6.7405-0.27235-0.021167c-0.0155-0.00706-0.031-0.014111-0.0469-0.017639l0.31504 0.024694c1e-3 0.00706 3e-3 0.010583 4e-3 0.014111m-2.1424-0.17639-0.254-0.021167c2e-3 -0.00353 4e-3 -0.010583 6e-3 -0.014111l0.2981 0.024694c-0.0169 0.00353-0.0335 0.00706-0.0505 0.010583" fill="#3e4e56"/>
    <path d="m163.49 6.7546-0.23248-0.021167c-0.0145-0.00353-0.0289-0.010583-0.0438-0.014111l0.27235 0.021167c1e-3 0.00353 2e-3 0.010583 4e-3 0.014111m-2.1943-0.18344-0.21202-0.017639c2e-3 -0.00353 4e-3 -0.00706 6e-3 -0.010583l0.254 0.021167c-0.0159 0-0.0321 0.00353-0.048 0.00706" fill="#3f4f57"/>
    <path d="m163.5 6.7652-0.19403-0.014111c-0.0141-0.00706-0.0282-0.010583-0.0423-0.017639l0.23248 0.021167c1e-3 0.00353 3e-3 0.00706 4e-3 0.010583m-2.244-0.18344-0.17216-0.017639c2e-3 -0.00353 4e-3 -0.00706 6e-3 -0.010583l0.21202 0.017639c-0.0152 0.00353-0.0303 0.00706-0.0459 0.010583" fill="#3f4f57"/>
    <path d="m163.5 6.7793-0.1584-0.014111c-0.0131-0.00353-0.0265-0.010583-0.0395-0.014111l0.19403 0.014111c1e-3 0.00706 2e-3 0.010583 4e-3 0.014111m-2.2913-0.1905-0.13476-0.010583c2e-3 -0.00353 4e-3 -0.00706 6e-3 -0.014111l0.17216 0.017639c-0.0145 0-0.0289 0.00353-0.0434 0.00706" fill="#405058"/>
    <path d="m163.5 6.7934-0.12347-0.010583c-0.0127-0.00706-0.0254-0.010583-0.0385-0.017639l0.1584 0.014111c1e-3 0.00353 2e-3 0.00706 4e-3 0.014111m-2.3372-0.19403-0.0981-0.010583c2e-3 -0.00353 4e-3 -0.00706 6e-3 -0.010583l0.13476 0.010583c-0.0141 0.00353-0.0282 0.00706-0.0423 0.010583" fill="#405059"/>
    <path d="m163.51 6.804-0.0903-0.00706c-0.012-0.00353-0.0243-0.010583-0.0367-0.014111l0.12347 0.010583c1e-3 0.00353 2e-3 0.00706 4e-3 0.010583m-2.3812-0.19756-0.0628-0.00353c2e-3 -0.00353 4e-3 -0.010583 5e-3 -0.014111l0.0981 0.010583c-0.0134 0-0.0268 0.00353-0.0406 0.00706" fill="#405159"/>
    <path d="m163.51 6.8181-0.0586-0.00706c-0.0113-0.00353-0.0229-0.00706-0.0349-0.014111l0.0903 0.00706c1e-3 0.00353 2e-3 0.010583 3e-3 0.014111m-2.4239-0.20108-0.0286-0.00353c2e-3 -0.00353 4e-3 -0.00706 5e-3 -0.010583l0.0628 0.00353c-0.0131 0.00353-0.0261 0.00706-0.0395 0.010583" fill="#41515a"/>
    <path d="m163.51 6.8287h-0.0272c-0.0113-0.00706-0.0229-0.010583-0.0346-0.017639l0.0586 0.00706c1e-3 0.00353 2e-3 0.00706 3e-3 0.010583m-2.4603-0.20461c1e-3 -0.00353 3e-3 -0.00706 5e-3 -0.010583l0.0286 0.00353c-0.0109 0.00353-0.0222 0.00353-0.0332 0.00706" fill="#42525b"/>
    <path d="m163.52 6.8428c-0.01-0.00353-0.0198-0.010583-0.03-0.014111h0.0272c1e-3 0.00706 2e-3 0.010583 3e-3 0.014111" fill="#42535b"/>
    <path d="m162.63 6.5641c-0.19508-0.035278-0.40851-0.056445-0.63888-0.056445h-8e-3c1e-3 -0.00353 3e-3 -0.00353 5e-3 -0.00353 8e-3 -0.00353 0.0159-0.00706 0.024-0.010583 8e-3 -0.00353 0.0169-0.00706 0.0257-0.010583 0.01-0.00353 0.0194-0.00706 0.0289-0.010583 0.0109-0.00353 0.0222-0.00706 0.0332-0.010583 0.013-0.00353 0.0265-0.00706 0.0399-0.00706 0.0176-0.00353 0.0353-0.00706 0.0529-0.010583 0.0226 0 0.0451-0.00353 0.0681-0.00353 0.0169 0 0.0339 0.00353 0.0512 0.00353 0.0402 0.00353 0.0794 0.010583 0.11747 0.021167 0.0169 0.00353 0.0339 0.010583 0.0508 0.017639 0.0127 0.00353 0.025 0.010583 0.0377 0.014111 0.0102 0.00706 0.0205 0.010583 0.0307 0.014111 9e-3 0.00706 0.018 0.010583 0.0272 0.017639 8e-3 0.00353 0.0159 0.00706 0.0236 0.014111 7e-3 0.00353 0.0148 0.00706 0.0219 0.014111 3e-3 0 6e-3 0.00353 9e-3 0.00706" fill="#698d93"/>
    <path d="m162.01 6.9663c-0.0109 0.13053-0.14393 0.22578-0.29668 0.21167-0.15275-0.014111-0.26776-0.127-0.25753-0.25753 0.0109-0.13053 0.14323-0.22225 0.29598-0.21167 0.15346 0.014111 0.26847 0.127 0.25823 0.25753" fill="#fff"/>
    <path d="m162.86 7.7142c-6e-3 0.067028-0.072 0.11289-0.14782 0.10583-0.0769-0.00706-0.13405-0.0635-0.12947-0.127 6e-3 -0.067028 0.0723-0.11289 0.14817-0.10583 0.0765 0.00353 0.13476 0.0635 0.12912 0.127" fill="#fff"/>
    <path d="m168.48 5.3082s0.22543-0.34572 0.68827-0.6985c0.23248-0.17992 0.52211-0.36689 0.86184-0.51153 0.33972-0.14464 0.72037-0.254 1.1091-0.30692 0.39123-0.042333 0.78211-0.017639 1.1402 0.03175 0.35595 0.067028 0.67521 0.16933 0.93521 0.28222 0.26882 0.091722 0.46143 0.23989 0.60431 0.31397 0.13829 0.088195 0.21696 0.13758 0.21696 0.13758s-0.0907-0.021167-0.24977-0.059972c-0.15663-0.038806-0.37571-0.10583-0.64488-0.14464-0.13405-0.017639-0.27446-0.059972-0.42792-0.067028-0.15169-0.010583-0.31079-0.021167-0.47625-0.03175-0.32914-0.00706-0.67662 0.014111-1.0118 0.091722-0.33796 0.056444-0.66569 0.16228-0.95709 0.29633-0.28892 0.14111-0.5595 0.27517-0.76905 0.42686-0.43639 0.29281-0.67381 0.52917-0.67381 0.52917-0.0882 0.091722-0.23107 0.091722-0.31962 0-0.0769-0.074083-0.0868-0.19403-0.0296-0.28222l4e-3 -0.00706" fill="#3e3a37"/>
    <path d="m174.27 6.6488s-0.86713 2.1696-2.213 2.3813c-1.3448 0.21026-2.7795-0.098778-2.7795-0.098778s-0.0363-2.5188 0.66216-2.8681c0.69886-0.34925 2.2969-0.87136 4.3304 0.58561" fill="#fff"/>
    <path d="m169.28 8.9242h-2e-3s-0.0367-2.5224 0.66428-2.8716c0.33938-0.16933 0.89747-0.38453 1.6182-0.38453 0.74859 0 1.6736 0.22931 2.7114 0.97367 0 0-7.1e-4 0.00353-2e-3 0.00706-1.034-0.74083-1.9551-0.97014-2.7026-0.97014-0.72213 0-1.282 0.21167-1.6252 0.38453-0.67803 0.33867-0.66357 2.7234-0.66216 2.861" fill="#b29089"/>
    <path d="m169.38 8.9489c-0.0579-0.017639-0.0882-0.021167-0.0963-0.024695-1e-3 -0.13758-0.0159-2.5224 0.66216-2.861 0.34326-0.17286 0.90312-0.38453 1.6252-0.38453 0.74754 0 1.6686 0.22931 2.7026 0.97014-0.0141 0.035278-0.11042 0.27517-0.28363 0.58561-0.89394-0.55033-1.6926-0.72672-2.3537-0.72672-0.72355 0-1.2827 0.21167-1.6221 0.38453-0.43568 0.21519-0.58596 1.2806-0.63429 2.0567" fill="#b3aba7"/>
   </g>
   <g transform="matrix(.035278 0 0 -.035278 -90.422 362.01)">
    <g clip-path="url(#a)">
     <path d="m7459.7 10086-76.63 6.4v7.1h76.63v-13.5" fill="#222d36"/>
     <path d="m7459.7 10086-76.63 6.3v0.4l76.63-6.4v-0.3" fill="#222d36"/>
     <path d="m7459.7 10086-76.63 6.4v0.3l76.63-6.3v-0.4" fill="#232e38"/>
     <path d="m7459.7 10085-76.63 6.3v0.4l76.63-6.4v-0.3" fill="#242f39"/>
     <path d="m7459.7 10085-76.63 6.4v0.3l76.63-6.3v-0.4" fill="#25313a"/>
     <path d="m7459.7 10084-76.63 6.4v0.4l76.63-6.4v-0.4" fill="#26323c"/>
     <path d="m7459.7 10084-76.63 6.4v0.3l76.63-6.4v-0.3" fill="#26333d"/>
     <path d="m7459.7 10084-76.63 6.4v0.4l76.63-6.4v-0.4" fill="#27343f"/>
     <path d="m7459.7 10084-76.63 6.3v0.4l76.63-6.4v-0.3" fill="#283540"/>
     <path d="m7459.7 10083-76.63 6.4v0.3l76.63-6.3v-0.4" fill="#293741"/>
     <path d="m7459.7 10083-76.63 6.3v0.4l76.63-6.4v-0.3" fill="#2a3843"/>
     <path d="m7459.7 10082-76.63 6.4v0.3l76.63-6.3v-0.4" fill="#2a3944"/>
     <path d="m7459.7 10082-76.63 6.3v0.4l76.63-6.4v-0.3" fill="#2b3a45"/>
     <path d="m7459.7 10082-76.63 6.4v0.3l76.63-6.3v-0.4" fill="#2c3b46"/>
     <path d="m7459.7 10081-76.63 6.4v0.4l76.63-6.4v-0.4" fill="#2d3c48"/>
     <path d="m7459.7 10081-76.63 6.4v0.3l76.63-6.4v-0.3" fill="#2e3d49"/>
     <path d="m7459.7 10081-76.63 6.4v0.4l76.63-6.4v-0.4" fill="#2e3e4a"/>
     <path d="m7459.7 10080-76.63 6.3v0.4l76.63-6.4v-0.3" fill="#2f404b"/>
     <path d="m7459.7 10080-76.63 6.4v0.3l76.63-6.3v-0.4" fill="#30414d"/>
     <path d="m7459.7 10080-76.63 6.3v0.4l76.63-6.4v-0.3" fill="#31424e"/>
     <path d="m7459.7 10079-76.63 6.4v0.3l76.63-6.3v-0.4" fill="#31434f"/>
     <path d="m7459.7 10079-76.63 6.3v0.4l76.63-6.4v-0.3" fill="#324451"/>
     <path d="m7459.7 10078-76.63 6.4v0.3l76.63-6.3v-0.4" fill="#334552"/>
     <path d="m7459.7 10078-76.63 6.3v0.4l76.63-6.4v-0.3" fill="#334653"/>
     <path d="m7459.7 10078-76.63 6.4v0.3l76.63-6.3v-0.4" fill="#344754"/>
     <path d="m7459.7 10077-76.63 6.4v0.4l76.63-6.4v-0.4" fill="#354855"/>
     <path d="m7459.7 10077-76.63 6.3v0.4l76.63-6.4v-0.3" fill="#364957"/>
     <path d="m7459.7 10077-76.63 6.4v0.3l76.63-6.3v-0.4" fill="#364a58"/>
     <path d="m7459.7 10076-76.63 6.3v0.4l76.63-6.4v-0.3" fill="#374b59"/>
     <path d="m7459.7 10076-76.63 6.4v0.3l76.63-6.3v-0.4" fill="#384d5a"/>
     <path d="m7459.7 10076-76.63 6.3v0.4l76.63-6.4v-0.3" fill="#384e5b"/>
     <path d="m7459.7 10075-76.63 6.4v0.3l76.63-6.3v-0.4" fill="#394e5c"/>
     <path d="m7459.7 10075-76.63 6.4v0.4l76.63-6.4v-0.4" fill="#3a505e"/>
     <path d="m7459.7 10075-76.63 6.4v0.3l76.63-6.4v-0.3" fill="#3b515f"/>
     <path d="m7459.7 10074-76.63 6.3v0.4l76.63-6.4v-0.3" fill="#3b5260"/>
     <path d="m7459.7 10074-76.63 6.4v0.3l76.63-6.3v-0.4" fill="#3c5361"/>
     <path d="m7459.7 10074-76.63 6.4v0.4l76.63-6.4v-0.4" fill="#3d5462"/>
     <path d="m7459.7 10073-76.63 6.3v0.4l76.63-6.4v-0.3" fill="#3d5564"/>
     <path d="m7459.7 10073-76.63 6.4v0.3l76.63-6.3v-0.4" fill="#3e5665"/>
     <path d="m7459.7 10072-76.63 6.3v0.4l76.63-6.4v-0.3" fill="#3f5766"/>
     <path d="m7459.7 10072-76.63 6.4v0.3l76.63-6.3v-0.4" fill="#3f5867"/>
     <path d="m7459.7 10072-76.63 6.3v0.4l76.63-6.4v-0.3" fill="#405968"/>
     <path d="m7459.7 10071-76.63 6.4v0.3l76.63-6.3v-0.4" fill="#415969"/>
     <path d="m7459.7 10071-76.63 6.3v0.4l76.63-6.4v-0.3" fill="#415a6a"/>
     <path d="m7459.7 10071-76.63 6.4v0.3l76.63-6.3v-0.4" fill="#425c6b"/>
     <path d="m7459.7 10070-76.63 6.4v0.4l76.63-6.4v-0.4" fill="#435c6c"/>
     <path d="m7459.7 10070-76.63 6.4v0.3l76.63-6.4v-0.3" fill="#435d6d"/>
     <path d="m7459.7 10070-76.63 6.4v0.4l76.63-6.4v-0.4" fill="#445e6f"/>
     <path d="m7459.7 10069-76.63 6.3v0.4l76.63-6.4v-0.3" fill="#455f70"/>
     <path d="m7459.7 10069-76.63 6.4v0.3l76.63-6.3v-0.4" fill="#456071"/>
     <path d="m7459.7 10069-76.63 6.3v0.4l76.63-6.4v-0.3" fill="#466172"/>
     <path d="m7459.7 10068-76.63 6.4v0.3l76.63-6.3v-0.4" fill="#466273"/>
     <path d="m7459.7 10068-76.63 6.3v0.4l76.63-6.4v-0.3" fill="#476374"/>
     <path d="m7459.7 10068-76.63 6.4v0.3l76.63-6.3v-0.4" fill="#486475"/>
     <path d="m7459.7 10067-76.63 6.4v0.4l76.63-6.4v-0.4" fill="#486576"/>
     <path d="m7459.7 10067-76.63 6.4v0.3l76.63-6.4v-0.3" fill="#496677"/>
     <path d="m7459.7 10066-76.63 6.4v0.4l76.63-6.4v-0.4" fill="#4a6778"/>
     <path d="m7459.7 10066-76.63 6.3v0.4l76.63-6.4v-0.3" fill="#4a6779"/>
     <path d="m7459.7 10066-76.63 6.4v0.3l76.63-6.3v-0.4" fill="#4b687a"/>
     <path d="m7459.7 10065-76.63 6.3v0.4l76.63-6.4v-0.3" fill="#4b697b"/>
     <path d="m7459.7 10065-76.63 6.4v0.3l76.63-6.3v-0.4" fill="#4c6a7c"/>
     <path d="m7459.7 10065-76.63 6.3v0.4l76.63-6.4v-0.3" fill="#4c6b7d"/>
     <path d="m7459.7 10064-76.63 6.4v0.3l76.63-6.3v-0.4" fill="#4d6c7e"/>
     <path d="m7459.7 10064-76.63 6.4v0.4l76.63-6.4v-0.4" fill="#4e6d7f"/>
     <path d="m7459.7 10064-76.63 6.3v0.4l76.63-6.4v-0.3" fill="#4e6d80"/>
     <path d="m7459.7 10063-76.63 6.4v0.3l76.63-6.3v-0.4" fill="#4f6e81"/>
     <path d="m7459.7 10063-76.63 6.3v0.4l76.63-6.4v-0.3" fill="#4f6f82"/>
     <path d="m7459.7 10062-76.63 6.4v0.3l76.63-6.3v-0.4" fill="#507083"/>
     <path d="m7459.7 10062-76.63 6.3v0.4l76.63-6.4v-0.3" fill="#507184"/>
     <path d="m7459.7 10062-76.63 6.4v0.3l76.63-6.3v-0.4" fill="#517284"/>
     <path d="m7459.7 10062-76.63 6.3v0.4l76.63-6.4v-0.3" fill="#527285"/>
     <path d="m7459.7 10061-76.63 6.4v0.3l76.63-6.3v-0.4" fill="#527386"/>
     <path d="m7459.7 10061-76.63 6.3v0.4l76.63-6.4v-0.3" fill="#537487"/>
     <path d="m7459.7 10060-76.63 6.4v0.3l76.63-6.3v-0.4" fill="#537588"/>
     <path d="m7459.7 10060-76.63 6.3v0.4l76.63-6.4v-0.3" fill="#547689"/>
     <path d="m7459.7 10060-76.63 6.4v0.3l76.63-6.3v-0.4" fill="#54768a"/>
     <path d="m7459.7 10059-76.63 6.4v0.4l76.63-6.4v-0.4" fill="#55778b"/>
     <path d="m7459.7 10059-76.63 6.3v0.4l76.63-6.4v-0.3" fill="#55788c"/>
     <path d="m7459.7 10059-76.63 6.4v0.3l76.63-6.3v-0.4" fill="#56798d"/>
     <path d="m7459.7 10058-76.63 6.3v0.4l76.63-6.4v-0.3" fill="#56798d"/>
     <path d="m7459.7 10058-76.63 6.4v0.3l76.63-6.3v-0.4" fill="#577a8e"/>
     <path d="m7459.7 10058-76.63 6.3v0.4l76.63-6.4v-0.3" fill="#577b8f"/>
     <path d="m7459.7 10057-76.63 6.4v0.3l76.63-6.3v-0.4" fill="#587c90"/>
     <path d="m7459.7 10057-76.63 6.3v0.4l76.63-6.4v-0.3" fill="#587c91"/>
     <path d="m7459.7 10056-76.63 6.4v0.3l76.63-6.3v-0.4" fill="#597d92"/>
     <path d="m7459.7 10056-76.63 6.4v0.4l76.63-6.4v-0.4" fill="#597e92"/>
     <path d="m7459.7 10056-76.63 6.3v0.4l76.63-6.4v-0.3" fill="#5a7f93"/>
     <path d="m7459.7 10055-76.63 6.4v0.3l76.63-6.3v-0.4" fill="#5a7f94"/>
     <path d="m7459.7 10055-76.63 6.3v0.4l76.63-6.4v-0.3" fill="#5b8095"/>
     <path d="m7459.7 10055-76.63 6.4v0.3l76.63-6.3v-0.4" fill="#5b8196"/>
     <path d="m7459.7 10054-76.63 6.3v0.4l76.63-6.4v-0.3" fill="#5c8196"/>
     <path d="m7459.7 10054-76.63 6.4v0.3l76.63-6.3v-0.4" fill="#5c8297"/>
     <path d="m7459.7 10054-76.63 6.3v0.4l76.63-6.4v-0.3" fill="#5d8398"/>
     <path d="m7459.7 10053-76.63 6.4v0.3l76.63-6.3v-0.4" fill="#5d8399"/>
     <path d="m7459.7 10053-76.63 6.4v0.4l76.63-6.4v-0.4" fill="#5e849a"/>
     <path d="m7459.7 10053-76.63 6.3v0.4l76.63-6.4v-0.3" fill="#5e859a"/>
     <path d="m7459.7 10052-76.63 6.4v0.3l76.63-6.3v-0.4" fill="#5e859b"/>
     <path d="m7459.7 10052-76.63 6.3v0.4l76.63-6.4v-0.3" fill="#5f869c"/>
     <path d="m7459.7 10052-76.63 6.4v0.3l76.63-6.3v-0.4" fill="#5f879d"/>
     <path d="m7459.7 10051-76.63 6.3v0.4l76.63-6.4v-0.3" fill="#60879d"/>
     <path d="m7459.7 10051-76.63 6.4v0.3l76.63-6.3v-0.4" fill="#60889e"/>
     <path d="m7459.7 10050-76.63 6.3v0.4l76.63-6.4v-0.3" fill="#61899f"/>
     <path d="m7459.7 10050-76.63 6.4v0.3l76.63-6.3v-0.4" fill="#61899f"/>
     <path d="m7459.7 10050-76.63 6.3v0.4l76.63-6.4v-0.3" fill="#628aa0"/>
     <path d="m7459.7 10049-76.63 6.4v0.3l76.63-6.3v-0.4" fill="#628aa1"/>
     <path d="m7459.7 10049-76.63 6.4v0.4l76.63-6.4v-0.4" fill="#628ba2"/>
     <path d="m7459.7 10049-76.63 6.3v0.4l76.63-6.4v-0.3" fill="#638ca2"/>
     <path d="m7459.7 10048-76.63 6.4v0.3l76.63-6.3v-0.4" fill="#638ca3"/>
     <path d="m7459.7 10048-76.63 6.3v0.4l76.63-6.4v-0.3" fill="#648da4"/>
     <path d="m7459.7 10048-76.63 6.4v0.3l76.63-6.3v-0.4" fill="#648da4"/>
     <path d="m7459.7 10047-76.63 6.3v0.4l76.63-6.4v-0.3" fill="#648ea5"/>
     <path d="m7459.7 10047-76.63 6.4v0.3l76.63-6.3v-0.4" fill="#658fa6"/>
     <path d="m7459.7 10047-76.63 6.3v0.4l76.63-6.4v-0.3" fill="#658fa6"/>
     <path d="m7459.7 10046-76.63 6.4v0.3l76.63-6.3v-0.4" fill="#6690a7"/>
     <path d="m7459.7 10046-76.63 6.4v0.4l76.63-6.4v-0.4" fill="#6690a7"/>
     <path d="m7459.7 10046-76.63 6.3v0.4l76.63-6.4v-0.3" fill="#6691a8"/>
     <path d="m7459.7 10045-76.63 6.4v0.3l76.63-6.3v-0.4" fill="#6791a9"/>
     <path d="m7459.7 10045-76.63 6.3v0.4l76.63-6.4v-0.3" fill="#6792a9"/>
     <path d="m7459.7 10044-76.63 6.4v0.3l76.63-6.3v-0.4" fill="#6792aa"/>
     <path d="m7459.7 10044-76.63 6.3v0.4l76.63-6.4v-0.3" fill="#6893aa"/>
     <path d="m7459.7 10044-76.63 6.4v0.3l76.63-6.3v-0.4" fill="#6893ab"/>
     <path d="m7459.7 10043-76.63 6.3v0.4l76.63-6.4v-0.3" fill="#6894ac"/>
     <path d="m7459.7 10043-76.63 6.4v0.3l76.63-6.3v-0.4" fill="#6994ac"/>
     <path d="m7459.7 10043-76.63 6.3v0.4l76.63-6.4v-0.3" fill="#6995ad"/>
     <path d="m7459.7 10042-76.63 6.4v0.3l76.63-6.3v-0.4" fill="#6995ad"/>
     <path d="m7459.7 10042-76.63 6.4v0.4l76.63-6.4v-0.4" fill="#6a96ae"/>
     <path d="m7459.7 10042-76.63 6.3v0.4l76.63-6.4v-0.3" fill="#6a96ae"/>
     <path d="m7459.7 10041-76.63 6.4v0.3l76.63-6.3v-0.4" fill="#6a97af"/>
     <path d="m7459.7 10041-76.63 6.3v0.4l76.63-6.4v-0.3" fill="#6b97b0"/>
     <path d="m7459.7 10040-76.63 6.4v0.3l76.63-6.3v-0.4" fill="#6b98b0"/>
     <path d="m7459.7 10040-76.63 6.3v0.4l76.63-6.4v-0.3" fill="#6b98b1"/>
     <path d="m7459.7 10040-76.63 6.4v0.3l76.63-6.3v-0.4" fill="#6c99b1"/>
     <path d="m7459.7 10039-76.63 6.4v0.4l76.63-6.4v-0.4" fill="#6c99b2"/>
     <path d="m7459.7 10039-76.63 6.3v0.4l76.63-6.4v-0.3" fill="#6c9ab2"/>
     <path d="m7459.7 10039-76.63 6.4v0.3l76.63-6.3v-0.4" fill="#6d9ab3"/>
     <path d="m7459.7 10038-76.63 6.4v0.3l76.63-6.4v-0.3" fill="#6d9bb3"/>
     <path d="m7459.7 10038-76.63 6.4v0.4l76.63-6.4v-0.4" fill="#6d9bb4"/>
     <path d="m7459.7 10038-76.63 6.3v0.4l76.63-6.4v-0.3" fill="#6d9bb4"/>
     <path d="m7459.7 10037-76.63 6.4v0.3l76.63-6.3v-0.4" fill="#6e9cb5"/>
     <path d="m7459.7 10037-76.63 6.3v0.4l76.63-6.4v-0.3" fill="#6e9cb5"/>
     <path d="m7459.7 10037-76.63 6.4v0.3l76.63-6.3v-0.4" fill="#6e9db6"/>
     <path d="m7459.7 10036-76.63 6.3v0.4l76.63-6.4v-0.3" fill="#6f9db6"/>
     <path d="m7459.7 10036-76.63 6.4v0.3l76.63-6.3v-0.4" fill="#6f9db6"/>
     <path d="m7459.7 10036-76.63 6.3v0.4l76.63-6.4v-0.3" fill="#6f9eb7"/>
     <path d="m7459.7 10035-76.63 6.4v0.3l76.63-6.3v-0.4" fill="#6f9eb7"/>
     <path d="m7459.7 10035-76.63 6.4v0.4l76.63-6.4v-0.4" fill="#709fb8"/>
     <path d="m7459.7 10034-76.63 6.3v0.4l76.63-6.4v-0.3" fill="#709fb8"/>
     <path d="m7459.7 10034-76.63 6.4v0.3l76.63-6.3v-0.4" fill="#709fb9"/>
     <path d="m7459.7 10034-76.63 6.3v0.4l76.63-6.4v-0.3" fill="#70a0b9"/>
     <path d="m7459.7 10033-76.63 6.4v0.3l76.63-6.3v-0.4" fill="#71a0b9"/>
     <path d="m7459.7 10033-76.63 6.3v0.4l76.63-6.4v-0.3" fill="#71a0ba"/>
     <path d="m7459.7 10033-76.63 6.4v0.3l76.63-6.3v-0.4" fill="#71a1ba"/>
     <path d="m7459.7 10032-76.63 6.3v0.4l76.63-6.4v-0.3" fill="#71a1bb"/>
     <path d="m7459.7 10032-76.63 6.4v0.3l76.63-6.3v-0.4" fill="#72a1bb"/>
     <path d="m7459.7 10032-76.63 6.4v0.4l76.63-6.4v-0.4" fill="#72a2bb"/>
     <path d="m7459.7 10031-76.63 6.3v0.4l76.63-6.4v-0.3" fill="#72a2bc"/>
     <path d="m7459.7 10031-76.63 6.4v0.3l76.63-6.3v-0.4" fill="#72a2bc"/>
     <path d="m7459.7 10031-76.63 6.3v0.4l76.63-6.4v-0.3" fill="#72a3bc"/>
     <g fill="#73a3bd">
      <path d="m7459.7 10030-76.63 6.4v0.3l76.63-6.3v-0.4"/>
      <path d="m7459.7 10030-76.63 6.3v0.4l76.63-6.4v-0.3"/>
      <path d="m7459.7 10030-76.63 6.4v0.3l76.63-6.3v-0.4"/>
     </g>
     <path d="m7459.7 10029-76.63 6.3v0.4l76.63-6.4v-0.3" fill="#73a4be"/>
     <path d="m7459.7 10029-76.63 6.4v0.3l76.63-6.3v-0.4" fill="#73a4be"/>
     <path d="m7459.7 10028-76.63 6.4v0.4l76.63-6.4v-0.4" fill="#74a4be"/>
     <g fill="#74a5bf">
      <path d="m7459.7 10028-76.63 6.3v0.4l76.63-6.4v-0.3"/>
      <path d="m7459.7 10028-76.63 6.4v0.3l76.63-6.3v-0.4"/>
      <path d="m7459.7 10027-76.63 6.3v0.4l76.63-6.4v-0.3"/>
      <path d="m7459.7 10027-76.63 6.4v0.3l76.63-6.3v-0.4"/>
     </g>
     <path d="m7459.7 10027-76.63 6.3v0.4l76.63-6.4v-0.3" fill="#74a6c0"/>
     <g fill="#75a6c0">
      <path d="m7459.7 10026-76.63 6.4v0.3l76.63-6.3v-0.4"/>
      <path d="m7459.7 10026-76.63 6.3v0.4l76.63-6.4v-0.3"/>
      <path d="m7459.7 10026-76.63 6.4v0.3l76.63-6.3v-0.4"/>
     </g>
     <path d="m7459.7 10025-76.63 6.3v0.4l76.63-6.4v-0.3" fill="#75a6c1"/>
     <g fill="#75a7c1">
      <path d="m7459.7 10025-76.63 6.4v0.3l76.63-6.3v-0.4"/>
      <path d="m7459.7 10024-76.63 6.4v0.4l76.63-6.4v-0.4"/>
      <path d="m7459.7 10024-76.63 6.4v0.3l76.63-6.4v-0.3"/>
     </g>
     <path d="m7458.8 10024-75.7 6.3v0.4l76.63-6.4v-0.3h-0.93" fill="#76a7c2"/>
     <path d="m7454.5 10024-71.42 5.9v0.4l75.7-6.3h-4.28" fill="#76a7c2"/>
     <g fill="#76a8c2">
      <path d="m7450.2 10024-67.14 5.6v0.3l71.42-5.9h-4.28"/>
      <path d="m7445.9 10024-62.86 5.2v0.4l67.14-5.6h-4.28"/>
      <path d="m7441.6 10024-58.58 4.9v0.3l62.86-5.2h-4.28"/>
     </g>
     <g fill="#76a8c3">
      <path d="m7437.4 10024-54.31 4.5v0.4l58.58-4.9h-4.27"/>
      <path d="m7433.1 10024-50.03 4.2v0.3l54.31-4.5h-4.28"/>
      <path d="m7428.8 10024-45.75 3.8v0.4l50.03-4.2h-4.28"/>
     </g>
     <path d="m7424.5 10024-41.48 3.5v0.3l45.75-3.8h-4.27" fill="#76a9c3"/>
     <path d="m7420.2 10024-37.2 3.1v0.4l41.48-3.5h-4.28" fill="#77a9c3"/>
     <g fill="#77a9c4">
      <path d="m7416 10024-32.92 2.7v0.4l37.2-3.1h-4.28"/>
      <path d="m7411.7 10024-28.64 2.4v0.3l32.92-2.7h-4.28"/>
      <path d="m7407.4 10024-24.36 2v0.4l28.64-2.4h-4.28"/>
      <path d="m7403.1 10024-20.08 1.7v0.3l24.36-2h-4.28"/>
      <path d="m7398.8 10024-15.8 1.3v0.4l20.08-1.7h-4.28"/>
     </g>
     <path d="m7394.6 10024-11.53 1v0.3l15.8-1.3h-4.27" fill="#77aac4"/>
    </g>
   </g>
   <g>
    <path d="m171.33 7.9294c-0.38136-0.03175-0.67416-0.41628-0.63924-0.83608 0.0339-0.42333 0.38559-0.75494 0.76729-0.72319 0.381 0.03175 0.67346 0.41628 0.63994 0.83961-0.0349 0.41981-0.38664 0.75142-0.76799 0.71967" fill="#81c0cf"/>
    <path d="m171.36 7.7777c-0.26528-0.021167-0.5408-0.31397-0.51152-0.67028 0.03-0.35983 0.34854-0.60325 0.61418-0.57856 0.26529 0.021167 0.54011 0.31397 0.51082 0.67028-0.0293 0.35983-0.34854 0.59972-0.61348 0.57856" fill="#1f1712"/>
    <path d="m171.14 6.8957c-0.0109 0.127-0.14393 0.22225-0.29668 0.21167-0.15276-0.014111-0.26776-0.13053-0.25753-0.25753 0.0109-0.13053 0.14323-0.22578 0.29598-0.21167 0.15346 0.010583 0.26846 0.127 0.25823 0.25753" fill="#fff"/>
    <path d="m172 7.6436c-6e-3 0.0635-0.072 0.11289-0.14816 0.10583-0.0766-0.00706-0.13406-0.0635-0.12912-0.13053 6e-3 -0.0635 0.0723-0.10936 0.14817-0.10583 0.0765 0.00706 0.13476 0.0635 0.12911 0.13053" fill="#fff"/>
    <path d="m155.78 8.2433c0.57609-0.94192 1.4781-0.54681 1.7032-0.34219 0.23742 0.22225 0.42686 0.51858 0.28399 1.0724-0.0762 0.31397-0.40393 0.34078-0.31927 0.81598 0.0924 0.53128 0.33761 0.5648 0.47767 0.68368 0.13934 0.11818 0.31503 0.20884 0.40393 0.43603 0.0854 0.22296 0.10089 0.46179 0.0582 0.6664-0.0885 0.38453-0.64805 0.08608-1.0199-0.08255-0.24694-0.11007-1.0322-0.76659-1.2322-0.98425-0.49918-0.55915-0.74013-1.6376-0.3556-2.2655" fill="#eaada6"/>
    <path d="m167.91 12.455c0.2032-0.13652 0.44098-0.07197 0.44098-0.07197l-8e-3 0.01376c-0.0483 0.08079-0.32103 0.52-0.53834 0.51364 6e-3 -0.0032-0.0476-0.04022-0.061-0.14605-0.0173-0.10407 0.0677-0.24024 0.16651-0.30939" fill="#c18985"/>
    <path d="m158.62 3.7701 3.5e-4 0.00353 2e-3 -0.017639z" fill="#3f3a37"/>
    <path d="m159.41 10.54s-0.0691-1.0139 1.2203-4.2972c0.33373-0.85019 1.2178-5.3904 1.2178-5.3904s-0.14146 4.378 2.214 5.588c0 0-0.43427-1.2806 0.53234-4.2016 0 0 2.4405 4.3145 2.8921 7.7939 0 0 3.3433-4.8764 2.0468-8.951 0 0 1.3871 1.8133 1.3857 4.9812 0 0 1.887-1.6545 1.8447-4.7025 0 0 1.4397 5.6056 1.0442 9.0371 0 0 1.457-2.1721 1.4048-4.1053 0 0 0.66323 4.3924 0.57468 5.8625-0.15275 2.5315-1.0612 4.8034-1.0612 4.8034s3.3623-0.61877 3.429-13.545c0.0201-4.0499-0.89887-12.097-11.051-12.146-2.3954-0.010583-6.1747 0.11289-9.4354 3.9194-2.5199 2.9457-2.5516 9.6449-2.0807 13.406 0.8636 6.8834 3.2022 8.9655 3.2022 8.9655s-0.79657-3.9176-0.84631-5.2437c-0.0522-1.3638 0.46037-5.4434 0.46037-5.4434s-0.0286 2.7104 1.0058 3.6692" fill="#3f3a37"/>
    <path d="m153.63 32.19c-2e-3 0.17851-4e-3 0.36336-6e-3 0.55104h26.488c-1e-3 -0.18768-2e-3 -0.37183-7e-3 -0.55104 0 0-0.0187-1.0167-0.0593-1.9791h-26.357c-0.0409 0.96238-0.0596 1.9791-0.0596 1.9791" fill="#6195a5"/>
    <path d="m179.5 26.81h3.5e-4c-1.0573-2.1544-7.7304-4.191-7.7304-4.191-0.39617 2.376-2.4843 4.191-5.0077 4.191-2.5202 0-4.6062-1.8105-5.0059-4.1822-4.8676 1.0022-7.0474 3.5578-7.3914 3.9963l-6e-3 0.0081c-0.0293 0.03704-0.049 0.0635-0.049 0.0635h3.5e-4c-0.38453 0.49424-0.32773 0.93169-0.42369 1.5378h25.95c-0.0864-0.55845-0.0423-0.97472-0.33619-1.4235" fill="#6195a5"/>
    <path d="m179.84 28.233h-25.95c-0.0145 0.09207-0.0325 0.18768-0.0561 0.28857v0.02081c-8e-3 0.01376-0.0155 0.04128-0.0229 0.0829v0.0078c-0.0533 0.24977-0.0935 0.90064-0.12277 1.5776h26.357c-0.0332-0.78634-0.0808-1.5367-0.14605-1.6683-0.0261-0.10866-0.0441-0.21061-0.0593-0.30939" fill="#fff"/>
    <path d="m155.55 4.324c-0.58808-1.4288-0.48366-3.6336 0.13758-6.4841 0.14852-0.68439-0.74577-0.46214 0.1076-1.8944 0.85231-1.4323 2.2916-3.6865 3.8372-4.3004 1.5469-0.61383 4.3173-2.1907 6.6086-2.092 2.2909 0.09525 4.8496 0.29986 6.556 1.1712 1.7057 0.87136 4.0506 2.5083 4.3695 3.0198 0.31961 0.51153-0.44662 0.75494 0.52211 1.8239 2.0892 2.3001 0.82232 6.5511 0.35912 9.2357-0.18485 1.0724-1.7995-5.0447-6.8499-6.1877-2.0242-0.45861-6.4509-0.99131-9.633 0.18697-4.6521 1.718-5.6138 6.4982-6.0149 5.521" fill="#9b1a20"/>
   </g>
  </g>
 </g>
</svg>
