<?xml version="1.0" encoding="UTF-8"?>
<!-- Created with Inkscape (http://www.inkscape.org/) -->
<svg width="46.807mm" height="47.037mm" version="1.1" viewBox="0 0 46.807 47.037" xmlns="http://www.w3.org/2000/svg" xmlns:cc="http://creativecommons.org/ns#" xmlns:dc="http://purl.org/dc/elements/1.1/" xmlns:rdf="http://www.w3.org/1999/02/22-rdf-syntax-ns#">
 <defs>
  <clipPath id="a">
   <path d="m11438 10059c-1.6-20-19.4-34.9-39.6-33.2-20.3 1.7-35.4 19.3-33.7 39.3 1.6 20 19.4 34.9 39.6 33.2 20.3-1.7 35.4-19.3 33.7-39.3"/>
  </clipPath>
  <clipPath id="b">
   <path d="m11202 10009c0 3.9 0.4 71.5-18.8 81.1-9.7 4.9-25.6 10.9-46.1 10.9-21.2 0-47.3-6.5-76.6-27.5 0 0.1-0.1 0.2-0.1 0.2 29.5 21.1 55.7 27.6 76.9 27.6 20.4 0 36.3-6.1 45.9-10.9 19.8-9.9 18.8-81.4 18.8-81.4"/>
  </clipPath>
  <clipPath id="c">
   <path d="m11179 10057c-1.6-20.1-19.4-34.9-39.6-33.2-20.3 1.6-35.4 19.2-33.7 39.2 1.6 20.1 19.4 35 39.6 33.3 20.3-1.7 35.4-19.3 33.7-39.3"/>
  </clipPath>
 </defs>
 <metadata>
  <rdf:RDF>
   <cc:Work rdf:about="">
    <dc:format>image/svg+xml</dc:format>
    <dc:type rdf:resource="http://purl.org/dc/dcmitype/StillImage"/>
    <dc:title/>
   </cc:Work>
  </rdf:RDF>
 </metadata>
 <g transform="translate(-46.965 -101.36)">
  <g>
   <path d="m46.965 148.39h46.807v-47.037h-46.807z" fill="#6195a5"/>
   <path d="m75.688 131.62c0.50447-0.50659 0.94192-0.99025 1.0372-1.2435 7e-3 -0.0378 0.0141-0.0667 0.0141-0.0892l-0.0353 7e-3c-0.23636 0.0374-1.5099 0.2607-2.8822 0.4766-0.81492 0.1263-1.6651 0.25365-2.3636 0.34255-0.27517 0.0374-0.52564 0.0593-0.74084 0.0818h-7e-3c-0.20109 0.0226-0.37042 0.03-0.49742 0.03-0.14111 0-0.33161-0.0148-0.56092-0.03h-0.0176c-0.21872-0.0296-0.48683-0.0596-0.77611-0.0967-0.63853-0.0822-1.4005-0.19333-2.1414-0.30515-0.68086-0.11148-1.3476-0.21626-1.8732-0.30551-0.127-0.0219-0.23989-0.037-0.34219-0.0596-0.50448-0.0815-0.82198-0.14111-0.82198-0.14111 0 0.0967 0.0882 0.24589 0.23637 0.43921l7e-3 7e-3c0.11289 0.14922 0.26106 0.32102 0.43745 0.51435 0.17286 0.17886 0.3563 0.36477 0.55033 0.55103 0.58561 0.57292 1.2206 1.1388 1.531 1.4069 0.11995 0.10407 0.18698 0.16369 0.18698 0.16369s0 0.0522-7e-3 0.14182c0 0.0892 0 0.20779-7e-3 0.3496v0.1718c0 0.0589 0 0.11854-7e-3 0.17816-0.0106 0.38735-0.0247 0.871-0.0388 1.3776-7e-3 0.20074-0.0282 0.39406-0.0741 0.59549-0.19403 0.99766-0.74789 1.9212-0.78669 2.1297l-0.0423 0.0589-0.0459 0.0526c-0.0317 0.0317-0.0811 0.0681-0.14464 0.10725-0.13405 0.0875-0.33514 0.1912-0.58914 0.31009-0.21519 0.097-0.47272 0.20284-0.75141 0.31221 5.8561 4.9033 11.137 1.2351 12.488 0.12347-0.32455-0.12383-0.63147-0.24448-0.89605-0.35454-0.22578-0.0981-0.41981-0.18874-0.57503-0.27129-0.16581-0.0861-0.28575-0.16263-0.35278-0.22719l-0.0423-0.0526-0.0459-0.0589c-0.0353-0.20849-0.59267-1.1246-0.7867-2.1223v-7e-3c-0.0423-0.20143-0.0635-0.39475-0.0741-0.59549-0.0141-0.29069-0.0141-0.58102-0.02119-0.84102-7e-3 -0.26846-0.0141-0.51399-0.02119-0.71473v-0.1718c-7e-3 -0.14181-7e-3 -0.26035-7e-3 -0.3496-7e-3 -0.0896-7e-3 -0.14182-7e-3 -0.14182s0.20814-0.17886 0.51153-0.44662c0.37747-0.34254 0.91722-0.83396 1.3829-1.3028" fill="#fbcbc2"/>
   <path d="m83.136 147.8s-0.06-3.5884-0.20108-3.901c-0.27517-1.2513 0.21519-1.8242-1.711-3.0304-0.0141-7e-3 -0.43744-0.14182-1.0654-0.34996l-0.0176-8e-3c-0.4057-0.13406-0.90311-0.2974-1.4217-0.47661-0.20108-0.0667-0.39864-0.14181-0.60678-0.20849-0.51152-0.18027-1.0195-0.36759-1.4887-0.54645-1.3511 1.1116-6.6322 4.7798-12.488-0.12348-0.6597 0.25894-1.4464 0.54046-2.1943 0.79658-0.0529 0.0152-0.10583 0.0377-0.15875 0.0522-0.55386 0.19332-1.0866 0.37218-1.5169 0.514h-7e-3c-0.62442 0.20813-1.0442 0.34254-1.0619 0.34995-1.9085 1.198-1.4429 1.7716-1.711 3.0078v0.0222c-7e-3 0.0145-0.0141 0.0444-0.0212 0.0889v8e-3c-0.127 0.6477-0.17639 3.804-0.17639 3.804-4e-3 0.19085-7e-3 0.38876-7e-3 0.58949h25.862c0-0.20073-4e-3 -0.39758-7e-3 -0.58949" fill="#fbcbc2"/>
   <path d="m73.932 136.19c-0.0459-0.20073-0.067-0.39475-0.0741-0.59549-0.02119-0.67027-0.0388-1.3102-0.0459-1.7276-1.1112 0.49883-2.2507 0.78952-3.369 0.78952-0.067 0.0134-0.15169 0.0134-0.2293 0.0134-0.0741 0-0.15875 0-0.22578-0.0134-1.1183 0-2.2613-0.29069-3.3726-0.78952-7e-3 0.41734-0.0212 1.0573-0.0423 1.7276-7e-3 0.20074-0.0318 0.39476-0.0741 0.59549 1.0724 0.901 2.5259 1.8316 3.489 1.8316 0.06 0.0124 0.13406 0.0116 0.20108 0.0124v3e-3l0.0247-2e-3 0.0247 2e-3v-3e-3c0.0706-7.9e-4 0.14464 0 0.20461-0.0124 0.96309 0 2.413-0.93062 3.489-1.8316" fill="#d29490"/>
   <path d="m79.752 122.82c0.18697-1.0301 0.32808-1.8203 0.37395-1.9756 0.02119-0.0741 0.0388-0.14816 0.06-0.22225 0.0141-0.0917 0.0353-0.17286 0.0529-0.254 0.0353-0.127 0.0564-0.254 0.0882-0.381 7e-3 -0.06 0.02119-0.11641 0.0282-0.17639 0.02471-0.14111 0.0529-0.28575 0.0741-0.42686 7e-3 -0.06 0.0141-0.127 0.02119-0.18344 0.02471-0.127 0.0317-0.254 0.0459-0.381 7e-3 -0.0988 0.0141-0.19403 0.0317-0.28222 7e-3 -0.0847 7e-3 -0.16581 0.0141-0.24695 0.0953-1.9438-0.32102-3.9229-1.5875-5.7185-1.5311-2.159-3.2949-4.445-7.1261-4.766h-3.2314c-3.8276 0.32102-5.5915 2.607-7.1261 4.766-1.2665 1.7956-1.6828 3.7747-1.584 5.7185 7e-3 0.0811 7e-3 0.16228 0.0141 0.24695 0.0141 0.0882 0.0212 0.18344 0.0282 0.28222 0.0141 0.127 0.0212 0.254 0.0459 0.381 7e-3 0.0564 0.0141 0.12347 0.0212 0.18344 0.0212 0.14111 0.0529 0.28575 0.0741 0.42686 7e-3 0.06 0.0212 0.11642 0.0282 0.17639 0.0317 0.127 0.0529 0.254 0.0917 0.381 0.0141 0.0811 0.0353 0.16228 0.0494 0.254 0.0247 0.0741 0.0388 0.14817 0.06 0.22225 0.0459 0.1517 0.18698 0.93487 0.37395 1.9579-1.0231-0.50094-2.4412 0.21872-2.2719 2.1086 0.17286 1.9191 2.4941 3.0575 3.2914 3.2526 0.0776 0.34749 0.14463 0.60572 0.19402 0.7292 0.69498 1.7646 1.5381 2.293 3.0198 3.7306 1.6157 1.5561 4.004 3.0156 5.1788 3.0081 0.0388 7e-3 0.0847 7e-3 0.127 7e-3 0.0459 0 0.0882 0 0.127-7e-3 1.1783 7e-3 3.5631-1.452 5.1788-3.0081 1.4817-1.4376 2.3248-1.966 3.0233-3.7306 0.0459-0.12277 0.11289-0.37853 0.1905-0.72285 0.76906-0.17497 3.1432-1.3173 3.3196-3.259 0.16934-1.9075-1.2771-2.6201-2.3001-2.0909" fill="#fbcbc2"/>
   <path d="m81.305 123.88c-0.57502-0.94191-1.4781-0.5468-1.7039-0.34219-0.23636 0.22225-0.42686 0.51858-0.28223 1.0724 0.0776 0.31398 0.40217 0.34079 0.3175 0.81598-0.0917 0.53128-0.33513 0.5648-0.47625 0.68368-0.13758 0.11818-0.31397 0.20885-0.40216 0.43603-0.0882 0.22296-0.10231 0.46179-0.06 0.6664 0.0882 0.38453 0.64911 0.0861 1.0195-0.0825 0.24695-0.11006 1.0336-0.76658 1.2312-0.98425 0.50094-0.55915 0.74083-1.6376 0.3563-2.2655" fill="#eaada6"/>
   <path d="m68.576 131.96c-0.0388-0.49178 1.3723 0.10301 1.8344 0.11712 0.37042 0.0127 1.4781-0.0727 1.5804-0.11183 0.77611-0.28928-0.0423 0.82232-1.6016 0.88088-0.71614 0.0282-1.7921-0.58808-1.8133-0.88617" fill="#eaada6"/>
   <path d="m73.222 131.32c-0.89252-0.16686-2.7764-0.53269-2.7764-0.53269-1.5558 0.25753-2.7693 0.5274-2.7799 0.53799-0.0353 3e-3 1.2418 1.1508 2.7587 1.0724 1.5134 0.0783 2.8363-1.0724 2.7975-1.0777" fill="#c14d67"/>
   <path d="m71.335 130.47c-0.40569-0.0444-0.68086 0.19155-0.889 0.17039-0.20814 0.0194-0.48683-0.21484-0.889-0.17039-0.57503 0.12276-0.84666 0.48824-1.8909 0.85231 0.0388 0.0709 0.70556-0.0871 1.9579-0.0656 0.0176 0 0.35278 0.18979 0.82903 0.18626 0.29986-1e-3 0.70908-0.20037 0.72672-0.20037 1.2524-0.0198 2.0179 0.1524 2.0532 0.0833-1.3794-0.42616-1.3264-0.73166-1.898-0.85584" fill="#d85b6c"/>
   <path d="m71.187 128.11c0.20461-0.13652 0.44097-0.072 0.44097-0.072l-7e-3 0.0138c-0.0494 0.0808-0.32102 0.51999-0.53975 0.514 7e-3 -4e-3 -0.0459-0.0406-0.06-0.14605-0.0176-0.10442 0.067-0.2406 0.16581-0.30974" fill="#ae8365"/>
   <path d="m68.442 127.97c-0.0388-0.98531 1.5205-0.35984 2.032-0.32914 0.40923 0.0247 1.644-0.30939 1.7498-0.22402 0.72673 0.58526-0.77258 1.7618-1.7709 1.7618-0.27164 0-1.9861-0.61312-2.0108-1.2086" fill="#eaada6"/>
   <path d="m69.624 128.09c-0.20461-0.13652-0.44097-0.072-0.44097-0.072l7e-3 0.0138c0.0494 0.0808 0.32103 0.52 0.53975 0.51365-7e-3 -3e-3 0.0459-0.0402 0.06-0.14605 0.0176-0.10407-0.067-0.24024-0.16581-0.30939" fill="#c18985"/>
   <path d="m68.174 121.24s-0.23636-0.23636-0.6738-0.52917c-0.20814-0.15169-0.47978-0.28575-0.76906-0.42686-0.28928-0.13405-0.61736-0.23989-0.95603-0.29633-0.33513-0.0776-0.68438-0.0988-1.0125-0.0917-0.1658 0.0106-0.32455 0.0212-0.47625 0.0317-0.15169 7e-3 -0.2928 0.0494-0.42686 0.067-0.27164 0.0388-0.49036 0.10583-0.64558 0.14464-0.15875 0.0388-0.25047 0.06-0.25047 0.06s0.0776-0.0494 0.21872-0.13759c0.14111-0.0741 0.33514-0.22225 0.60325-0.31397 0.26105-0.11289 0.57855-0.21519 0.93486-0.28222 0.35983-0.0494 0.74789-0.0741 1.1395-0.0317 0.38806 0.0529 0.76906 0.16228 1.1112 0.30692 0.33867 0.14463 0.62795 0.33161 0.86078 0.51152 0.46214 0.35278 0.68792 0.6985 0.68792 0.6985l4e-3 7e-3c0.067 0.10584 0.0388 0.24695-0.067 0.31398-0.0882 0.06-0.20814 0.0459-0.28223-0.0317" fill="#3e3a37"/>
   <path d="m62.724 122.29s0.86783 2.1696 2.2119 2.3812c1.3476 0.21025 2.7834-0.0988 2.7834-0.0988s0.0353-2.5188-0.66322-2.8681c-0.6985-0.34925-2.2966-0.87136-4.3321 0.58562" fill="#fff"/>
  </g>
  <g transform="matrix(.035278 0 0 -.035278 -327.47 477.65)">
   <g clip-path="url(#c)">
    <path d="m11181 10084-76.7 6.3v7.2h76.7v-13.5" fill="#222d36"/>
    <path d="m11181 10084-76.7 6.4v0.3l76.7-6.3v-0.4" fill="#222d36"/>
    <path d="m11181 10084-76.7 6.3v0.4l76.7-6.4v-0.3" fill="#232e38"/>
    <path d="m11181 10083-76.7 6.4v0.3l76.7-6.3v-0.4" fill="#242f39"/>
    <path d="m11181 10083-76.7 6.3v0.4l76.7-6.4v-0.3" fill="#25313a"/>
    <path d="m11181 10082-76.7 6.4v0.3l76.7-6.3v-0.4" fill="#26323c"/>
    <path d="m11181 10082-76.7 6.4v0.4l76.7-6.4v-0.4" fill="#26333d"/>
    <path d="m11181 10082-76.7 6.4v0.3l76.7-6.4v-0.3" fill="#27343f"/>
    <path d="m11181 10081-76.7 6.4v0.4l76.7-6.4v-0.4" fill="#283540"/>
    <path d="m11181 10081-76.7 6.3v0.4l76.7-6.4v-0.3" fill="#293741"/>
    <path d="m11181 10081-76.7 6.4v0.3l76.7-6.3v-0.4" fill="#2a3843"/>
    <path d="m11181 10080-76.7 6.3v0.4l76.7-6.4v-0.3" fill="#2a3944"/>
    <path d="m11181 10080-76.7 6.4v0.3l76.7-6.3v-0.4" fill="#2b3a45"/>
    <path d="m11181 10080-76.7 6.3v0.4l76.7-6.4v-0.3" fill="#2c3b46"/>
    <path d="m11181 10079-76.7 6.4v0.3l76.7-6.3v-0.4" fill="#2d3c48"/>
    <path d="m11181 10079-76.7 6.4v0.4l76.7-6.4v-0.4" fill="#2e3d49"/>
    <path d="m11181 10079-76.7 6.3v0.4l76.7-6.4v-0.3" fill="#2e3e4a"/>
    <path d="m11181 10078-76.7 6.4v0.3l76.7-6.3v-0.4" fill="#2f404b"/>
    <path d="m11181 10078-76.7 6.3v0.4l76.7-6.4v-0.3" fill="#30414d"/>
    <path d="m11181 10078-76.7 6.4v0.3l76.7-6.3v-0.4" fill="#31424e"/>
    <path d="m11181 10077-76.7 6.3v0.4l76.7-6.4v-0.3" fill="#31434f"/>
    <path d="m11181 10077-76.7 6.4v0.3l76.7-6.3v-0.4" fill="#324451"/>
    <path d="m11181 10076-76.7 6.3v0.4l76.7-6.4v-0.3" fill="#334552"/>
    <path d="m11181 10076-76.7 6.4v0.3l76.7-6.3v-0.4" fill="#334653"/>
    <path d="m11181 10076-76.7 6.3v0.4l76.7-6.4v-0.3" fill="#344754"/>
    <path d="m11181 10075-76.7 6.4v0.3l76.7-6.3v-0.4" fill="#354855"/>
    <path d="m11181 10075-76.7 6.4v0.4l76.7-6.4v-0.4" fill="#364957"/>
    <path d="m11181 10075-76.7 6.3v0.4l76.7-6.4v-0.3" fill="#364a58"/>
    <path d="m11181 10074-76.7 6.4v0.3l76.7-6.3v-0.4" fill="#374b59"/>
    <path d="m11181 10074-76.7 6.3v0.4l76.7-6.4v-0.3" fill="#384d5a"/>
    <path d="m11181 10074-76.7 6.4v0.3l76.7-6.3v-0.4" fill="#384e5b"/>
    <path d="m11181 10073-76.7 6.3v0.4l76.7-6.4v-0.3" fill="#394e5c"/>
    <path d="m11181 10073-76.7 6.4v0.3l76.7-6.3v-0.4" fill="#3a505e"/>
    <path d="m11181 10073-76.7 6.3v0.4l76.7-6.4v-0.3" fill="#3b515f"/>
    <path d="m11181 10072-76.7 6.4v0.3l76.7-6.3v-0.4" fill="#3b5260"/>
    <path d="m11181 10072-76.7 6.3v0.4l76.7-6.4v-0.3" fill="#3c5361"/>
    <path d="m11181 10072-76.7 6.4v0.3l76.7-6.3v-0.4" fill="#3d5462"/>
    <path d="m11181 10071-76.7 6.4v0.4l76.7-6.4v-0.4" fill="#3d5564"/>
    <path d="m11181 10071-76.7 6.3v0.4l76.7-6.4v-0.3" fill="#3e5665"/>
    <path d="m11181 10070-76.7 6.4v0.3l76.7-6.3v-0.4" fill="#3f5766"/>
    <path d="m11181 10070-76.7 6.3v0.4l76.7-6.4v-0.3" fill="#3f5867"/>
    <path d="m11181 10070-76.7 6.4v0.3l76.7-6.3v-0.4" fill="#405968"/>
    <path d="m11181 10069-76.7 6.3v0.4l76.7-6.4v-0.3" fill="#415969"/>
    <path d="m11181 10069-76.7 6.4v0.3l76.7-6.3v-0.4" fill="#415a6a"/>
    <path d="m11181 10069-76.7 6.3v0.4l76.7-6.4v-0.3" fill="#425c6b"/>
    <path d="m11181 10068-76.7 6.4v0.3l76.7-6.3v-0.4" fill="#435c6c"/>
    <path d="m11181 10068-76.7 6.4v0.4l76.7-6.4v-0.4" fill="#435d6d"/>
    <path d="m11181 10068-76.7 6.3v0.4l76.7-6.4v-0.3" fill="#445e6f"/>
    <path d="m11181 10067-76.7 6.4v0.3l76.7-6.3v-0.4" fill="#455f70"/>
    <path d="m11181 10067-76.7 6.3v0.4l76.7-6.4v-0.3" fill="#456071"/>
    <path d="m11181 10066-76.7 6.4v0.3l76.7-6.3v-0.4" fill="#466172"/>
    <path d="m11181 10066-76.7 6.3v0.4l76.7-6.4v-0.3" fill="#466273"/>
    <path d="m11181 10066-76.7 6.4v0.3l76.7-6.3v-0.4" fill="#476374"/>
    <path d="m11181 10066-76.7 6.3v0.4l76.7-6.4v-0.3" fill="#486475"/>
    <path d="m11181 10065-76.7 6.4v0.3l76.7-6.3v-0.4" fill="#486576"/>
    <path d="m11181 10065-76.7 6.4v0.4l76.7-6.4v-0.4" fill="#496677"/>
    <path d="m11181 10064-76.7 6.4v0.3l76.7-6.4v-0.3" fill="#4a6778"/>
    <path d="m11181 10064-76.7 6.4v0.4l76.7-6.4v-0.4" fill="#4a6779"/>
    <path d="m11181 10064-76.7 6.3v0.4l76.7-6.4v-0.3" fill="#4b687a"/>
    <path d="m11181 10063-76.7 6.4v0.3l76.7-6.3v-0.4" fill="#4b697b"/>
    <path d="m11181 10063-76.7 6.3v0.4l76.7-6.4v-0.3" fill="#4c6a7c"/>
    <path d="m11181 10063-76.7 6.4v0.3l76.7-6.3v-0.4" fill="#4c6b7d"/>
    <path d="m11181 10062-76.7 6.3v0.4l76.7-6.4v-0.3" fill="#4d6c7e"/>
    <path d="m11181 10062-76.7 6.4v0.3l76.7-6.3v-0.4" fill="#4e6d7f"/>
    <path d="m11181 10062-76.7 6.3v0.4l76.7-6.4v-0.3" fill="#4e6d80"/>
    <path d="m11181 10061-76.7 6.4v0.3l76.7-6.3v-0.4" fill="#4f6e81"/>
    <path d="m11181 10061-76.7 6.4v0.4l76.7-6.4v-0.4" fill="#4f6f82"/>
    <path d="m11181 10060-76.7 6.3v0.4l76.7-6.4v-0.3" fill="#507083"/>
    <path d="m11181 10060-76.7 6.4v0.3l76.7-6.3v-0.4" fill="#507184"/>
    <path d="m11181 10060-76.7 6.3v0.4l76.7-6.4v-0.3" fill="#517284"/>
    <path d="m11181 10059-76.7 6.4v0.3l76.7-6.3v-0.4" fill="#527285"/>
    <path d="m11181 10059-76.7 6.3v0.4l76.7-6.4v-0.3" fill="#527386"/>
    <path d="m11181 10059-76.7 6.4v0.3l76.7-6.3v-0.4" fill="#537487"/>
    <path d="m11181 10058-76.7 6.3v0.4l76.7-6.4v-0.3" fill="#537588"/>
    <path d="m11181 10058-76.7 6.4v0.3l76.7-6.3v-0.4" fill="#547689"/>
    <path d="m11181 10058-76.7 6.3v0.4l76.7-6.4v-0.3" fill="#54768a"/>
    <path d="m11181 10057-76.7 6.4v0.3l76.7-6.3v-0.4" fill="#55778b"/>
    <path d="m11181 10057-76.7 6.4v0.4l76.7-6.4v-0.4" fill="#55788c"/>
    <path d="m11181 10057-76.7 6.3v0.4l76.7-6.4v-0.3" fill="#56798d"/>
    <path d="m11181 10056-76.7 6.4v0.3l76.7-6.3v-0.4" fill="#56798d"/>
    <path d="m11181 10056-76.7 6.3v0.4l76.7-6.4v-0.3" fill="#577a8e"/>
    <path d="m11181 10056-76.7 6.4v0.3l76.7-6.3v-0.4" fill="#577b8f"/>
    <path d="m11181 10055-76.7 6.3v0.4l76.7-6.4v-0.3" fill="#587c90"/>
    <path d="m11181 10055-76.7 6.4v0.3l76.7-6.3v-0.4" fill="#587c91"/>
    <path d="m11181 10054-76.7 6.4v0.4l76.7-6.4v-0.4" fill="#597d92"/>
    <path d="m11181 10054-76.7 6.3v0.4l76.7-6.4v-0.3" fill="#597e92"/>
    <path d="m11181 10054-76.7 6.4v0.3l76.7-6.3v-0.4" fill="#5a7f93"/>
    <path d="m11181 10053-76.7 6.3v0.4l76.7-6.4v-0.3" fill="#5a7f94"/>
    <path d="m11181 10053-76.7 6.4v0.3l76.7-6.3v-0.4" fill="#5b8095"/>
    <path d="m11181 10053-76.7 6.3v0.4l76.7-6.4v-0.3" fill="#5b8196"/>
    <path d="m11181 10052-76.7 6.4v0.3l76.7-6.3v-0.4" fill="#5c8196"/>
    <path d="m11181 10052-76.7 6.3v0.4l76.7-6.4v-0.3" fill="#5c8297"/>
    <path d="m11181 10052-76.7 6.4v0.3l76.7-6.3v-0.4" fill="#5d8398"/>
    <path d="m11181 10051-76.7 6.3v0.4l76.7-6.4v-0.3" fill="#5d8399"/>
    <path d="m11181 10051-76.7 6.4v0.3l76.7-6.3v-0.4" fill="#5e849a"/>
    <path d="m11181 10050-76.7 6.4v0.4l76.7-6.4v-0.4" fill="#5e859a"/>
    <path d="m11181 10050-76.7 6.4v0.3l76.7-6.4v-0.3" fill="#5e859b"/>
    <path d="m11181 10050-76.7 6.4v0.4l76.7-6.4v-0.4" fill="#5f869c"/>
    <path d="m11181 10050-76.7 6.3v0.4l76.7-6.4v-0.3" fill="#5f879d"/>
    <path d="m11181 10049-76.7 6.4v0.3l76.7-6.3v-0.4" fill="#60879d"/>
    <path d="m11181 10049-76.7 6.3v0.4l76.7-6.4v-0.3" fill="#60889e"/>
    <path d="m11181 10048-76.7 6.4v0.3l76.7-6.3v-0.4" fill="#61899f"/>
    <path d="m11181 10048-76.7 6.3v0.4l76.7-6.4v-0.3" fill="#61899f"/>
    <path d="m11181 10048-76.7 6.4v0.3l76.7-6.3v-0.4" fill="#628aa0"/>
    <path d="m11181 10047-76.7 6.3v0.4l76.7-6.4v-0.3" fill="#628aa1"/>
    <path d="m11181 10047-76.7 6.4v0.3l76.7-6.3v-0.4" fill="#628ba2"/>
    <path d="m11181 10047-76.7 6.4v0.4l76.7-6.4v-0.4" fill="#638ca2"/>
    <path d="m11181 10046-76.7 6.3v0.4l76.7-6.4v-0.3" fill="#638ca3"/>
    <path d="m11181 10046-76.7 6.4v0.3l76.7-6.3v-0.4" fill="#648da4"/>
    <path d="m11181 10046-76.7 6.3v0.4l76.7-6.4v-0.3" fill="#648da4"/>
    <path d="m11181 10045-76.7 6.4v0.3l76.7-6.3v-0.4" fill="#648ea5"/>
    <path d="m11181 10045-76.7 6.3v0.4l76.7-6.4v-0.3" fill="#658fa6"/>
    <path d="m11181 10044-76.7 6.4v0.3l76.7-6.3v-0.4" fill="#658fa6"/>
    <path d="m11181 10044-76.7 6.3v0.4l76.7-6.4v-0.3" fill="#6690a7"/>
    <path d="m11181 10044-76.7 6.4v0.3l76.7-6.3v-0.4" fill="#6690a7"/>
    <path d="m11181 10043-76.7 6.4v0.4l76.7-6.4v-0.4" fill="#6691a8"/>
    <path d="m11181 10043-76.7 6.3v0.4l76.7-6.4v-0.3" fill="#6791a9"/>
    <path d="m11181 10043-76.7 6.4v0.3l76.7-6.3v-0.4" fill="#6792a9"/>
    <path d="m11181 10042-76.7 6.3v0.4l76.7-6.4v-0.3" fill="#6792aa"/>
    <path d="m11181 10042-76.7 6.4v0.3l76.7-6.3v-0.4" fill="#6893aa"/>
    <path d="m11181 10042-76.7 6.3v0.4l76.7-6.4v-0.3" fill="#6893ab"/>
    <path d="m11181 10041-76.7 6.4v0.3l76.7-6.3v-0.4" fill="#6894ac"/>
    <path d="m11181 10041-76.7 6.3v0.4l76.7-6.4v-0.3" fill="#6994ac"/>
    <path d="m11181 10041-76.7 6.4v0.3l76.7-6.3v-0.4" fill="#6995ad"/>
    <path d="m11181 10040-76.7 6.3v0.4l76.7-6.4v-0.3" fill="#6995ad"/>
    <path d="m11181 10040-76.7 6.4v0.3l76.7-6.3v-0.4" fill="#6a96ae"/>
    <path d="m11181 10040-76.7 6.4v0.4l76.7-6.4v-0.4" fill="#6a96ae"/>
    <path d="m11181 10039-76.7 6.3v0.4l76.7-6.4v-0.3" fill="#6a97af"/>
    <path d="m11181 10039-76.7 6.4v0.3l76.7-6.3v-0.4" fill="#6b97b0"/>
    <path d="m11181 10038-76.7 6.3v0.4l76.7-6.4v-0.3" fill="#6b98b0"/>
    <path d="m11181 10038-76.7 6.4v0.3l76.7-6.3v-0.4" fill="#6b98b1"/>
    <path d="m11181 10038-76.7 6.3v0.4l76.7-6.4v-0.3" fill="#6c99b1"/>
    <path d="m11181 10037-76.7 6.4v0.3l76.7-6.3v-0.4" fill="#6c99b2"/>
    <path d="m11181 10037-76.7 6.3v0.4l76.7-6.4v-0.3" fill="#6c9ab2"/>
    <path d="m11181 10037-76.7 6.4v0.3l76.7-6.3v-0.4" fill="#6d9ab3"/>
    <path d="m11181 10036-76.7 6.4v0.4l76.7-6.4v-0.4" fill="#6d9bb3"/>
    <path d="m11181 10036-76.7 6.4v0.3l76.7-6.4v-0.3" fill="#6d9bb4"/>
    <path d="m11181 10036-76.7 6.4v0.4l76.7-6.4v-0.4" fill="#6d9bb4"/>
    <path d="m11181 10035-76.7 6.3v0.4l76.7-6.4v-0.3" fill="#6e9cb5"/>
    <path d="m11181 10035-76.7 6.4v0.3l76.7-6.3v-0.4" fill="#6e9cb5"/>
    <path d="m11181 10035-76.7 6.3v0.4l76.7-6.4v-0.3" fill="#6e9db6"/>
    <path d="m11181 10034-76.7 6.4v0.3l76.7-6.3v-0.4" fill="#6f9db6"/>
    <path d="m11181 10034-76.7 6.3v0.4l76.7-6.4v-0.3" fill="#6f9db6"/>
    <path d="m11181 10034-76.7 6.4v0.3l76.7-6.3v-0.4" fill="#6f9eb7"/>
    <path d="m11181 10033-76.7 6.3v0.4l76.7-6.4v-0.3" fill="#6f9eb7"/>
    <path d="m11181 10033-76.7 6.4v0.3l76.7-6.3v-0.4" fill="#709fb8"/>
    <path d="m11181 10032-76.7 6.4v0.4l76.7-6.4v-0.4" fill="#709fb8"/>
    <path d="m11181 10032-76.7 6.3v0.4l76.7-6.4v-0.3" fill="#709fb9"/>
    <path d="m11181 10032-76.7 6.4v0.3l76.7-6.3v-0.4" fill="#70a0b9"/>
    <path d="m11181 10031-76.7 6.3v0.4l76.7-6.4v-0.3" fill="#71a0b9"/>
    <path d="m11181 10031-76.7 6.4v0.3l76.7-6.3v-0.4" fill="#71a0ba"/>
    <path d="m11181 10031-76.7 6.3v0.4l76.7-6.4v-0.3" fill="#71a1ba"/>
    <path d="m11181 10030-76.7 6.4v0.3l76.7-6.3v-0.4" fill="#71a1bb"/>
    <path d="m11181 10030-76.7 6.4v0.4l76.7-6.4v-0.4" fill="#72a1bb"/>
    <path d="m11181 10030-76.7 6.4v0.3l76.7-6.4v-0.3" fill="#72a2bb"/>
    <path d="m11181 10029-76.7 6.4v0.4l76.7-6.4v-0.4" fill="#72a2bc"/>
    <path d="m11181 10029-76.7 6.3v0.4l76.7-6.4v-0.3" fill="#72a2bc"/>
    <path d="m11181 10028-76.7 6.4v0.3l76.7-6.3v-0.4" fill="#72a3bc"/>
    <g fill="#73a3bd">
     <path d="m11181 10028-76.7 6.3v0.4l76.7-6.4v-0.3"/>
     <path d="m11181 10028-76.7 6.4v0.3l76.7-6.3v-0.4"/>
     <path d="m11181 10028-76.7 6.3v0.4l76.7-6.4v-0.3"/>
    </g>
    <path d="m11181 10027-76.7 6.4v0.3l76.7-6.3v-0.4" fill="#73a4be"/>
    <path d="m11181 10027-76.7 6.3v0.4l76.7-6.4v-0.3" fill="#73a4be"/>
    <path d="m11181 10026-76.7 6.4v0.3l76.7-6.3v-0.4" fill="#74a4be"/>
    <g fill="#74a5bf">
     <path d="m11181 10026-76.7 6.3v0.4l76.7-6.4v-0.3"/>
     <path d="m11181 10026-76.7 6.4v0.3l76.7-6.3v-0.4"/>
     <path d="m11181 10025-76.7 6.4v0.4l76.7-6.4v-0.4"/>
     <path d="m11181 10025-76.7 6.3v0.4l76.7-6.4v-0.3"/>
    </g>
    <path d="m11181 10025-76.7 6.4v0.3l76.7-6.3v-0.4" fill="#74a6c0"/>
    <g fill="#75a6c0">
     <path d="m11181 10024-76.7 6.3v0.4l76.7-6.4v-0.3"/>
     <path d="m11181 10024-76.7 6.4v0.3l76.7-6.3v-0.4"/>
     <path d="m11181 10024-76.7 6.3v0.4l76.7-6.4v-0.3"/>
    </g>
    <path d="m11181 10023-76.7 6.4v0.3l76.7-6.3v-0.4" fill="#75a6c1"/>
    <g fill="#75a7c1">
     <path d="m11181 10023-76.7 6.3v0.4l76.7-6.4v-0.3"/>
     <path d="m11181 10022-76.7 6.4v0.3l76.7-6.3v-0.4"/>
     <path d="m11181 10022-76.7 6.4v0.4l76.7-6.4v-0.4"/>
    </g>
    <path d="m11180 10022-75.7 6.3v0.3l76.7-6.4v-0.2h-1" fill="#76a7c2"/>
    <path d="m11176 10022-71.5 5.9v0.4l75.7-6.3h-4.2" fill="#76a7c2"/>
    <g fill="#76a8c2">
     <path d="m11171 10022-67.2 5.5v0.4l71.5-5.9h-4.3"/>
     <path d="m11167 10022-62.9 5.2v0.3l67.2-5.5h-4.3"/>
     <path d="m11163 10022-58.6 4.8v0.4l62.9-5.2h-4.3"/>
    </g>
    <g fill="#76a8c3">
     <path d="m11158 10022-54.3 4.5v0.3l58.6-4.8h-4.3"/>
     <path d="m11154 10022-50.1 4.1v0.4l54.3-4.5h-4.2"/>
     <path d="m11150 10022-45.8 3.8v0.3l50.1-4.1h-4.3"/>
    </g>
    <path d="m11146 10022-41.5 3.4v0.4l45.8-3.8h-4.3" fill="#76a9c3"/>
    <path d="m11141 10022-37.2 3v0.4l41.5-3.4h-4.3" fill="#77a9c3"/>
    <g fill="#77a9c4">
     <path d="m11137 10022-33 2.7v0.3l37.2-3h-4.2"/>
     <path d="m11133 10022-28.7 2.3v0.4l33-2.7h-4.3"/>
     <path d="m11129 10022-24.4 2v0.3l28.7-2.3h-4.3"/>
     <path d="m11124 10022-20.1 1.6v0.4l24.4-2h-4.3"/>
     <path d="m11120 10022-15.8 1.3v0.3l20.1-1.6h-4.3"/>
    </g>
    <path d="m11116 10022-11.6 0.9v0.4l15.8-1.3h-4.2" fill="#77aac4"/>
   </g>
  </g>
  <path d="m65.557 123.64c-0.381-0.0317-0.6738-0.41627-0.63853-0.83961 0.0353-0.4198 0.38453-0.75141 0.76553-0.71966 0.381 0.0317 0.67381 0.41275 0.64206 0.83608-0.0353 0.42333-0.38806 0.75494-0.76906 0.72319" fill="#81c0cf"/>
  <path d="m65.588 123.49c-0.26458-0.0212-0.53975-0.31044-0.51153-0.67028 0.0317-0.3563 0.34925-0.59972 0.61737-0.57855 0.26458 0.0212 0.53975 0.31397 0.508 0.67028-0.0282 0.35983-0.34573 0.60325-0.61384 0.57855" fill="#1f1712"/>
  <g transform="matrix(.035278 0 0 -.035278 -327.47 477.65)">
   <g clip-path="url(#b)">
    <path d="m11060 10009h142.6v92.293h-142.6z" fill="#b29089"/>
   </g>
  </g>
  <g>
   <path d="m67.62 124.59c-0.0494-0.77611-0.19755-1.8415-0.635-2.0567-0.0317-0.0176-0.067-0.0317-0.1023-0.0494v-0.0141h-0.0282 0.0282c-4e-3 -3e-3 -4e-3 -7e-3 -4e-3 -0.0106l-0.06-7e-3 0.06 7e-3c-4e-3 -4e-3 -4e-3 -0.0106-4e-3 -0.0141l-0.0917-7e-3 0.0917 7e-3c-4e-3 -4e-3 -4e-3 -7e-3 -4e-3 -0.0106l-0.12347-0.0106 0.12347 0.0106c-4e-3 -7e-3 -4e-3 -0.0106-4e-3 -0.0141l-0.15875-0.0141 0.15875 0.0141c-4e-3 -3e-3 -4e-3 -7e-3 -4e-3 -0.0141l-0.19403-0.0141 0.19403 0.0141c-4e-3 -3e-3 -4e-3 -7e-3 -4e-3 -0.0106l-0.23283-0.0212 0.23283 0.0212c-4e-3 -4e-3 -4e-3 -0.0106-7e-3 -0.0141l-0.27163-0.0212 0.27163 0.0212c0-4e-3 0-7e-3 -4e-3 -0.0141l-0.31398-0.0247 0.31398 0.0247c0-3e-3 -4e-3 -7e-3 -4e-3 -0.0106l-0.35983-0.0317 0.35983 0.0317c0-3e-3 -4e-3 -0.0106-4e-3 -0.0141l-0.40922-0.0353 0.40922 0.0353c-4e-3 -4e-3 -4e-3 -7e-3 -7e-3 -0.0141l-0.45862-0.0353 0.45862 0.0353c0-4e-3 -4e-3 -7e-3 -4e-3 -0.0106l-0.51859-0.0423 0.51859 0.0423c0-7e-3 -4e-3 -0.0106-4e-3 -0.0141l-0.58561-0.0494 0.58561 0.0494c-4e-3 -3e-3 -4e-3 -7e-3 -7e-3 -0.0141l-0.65616-0.0529 0.65616 0.0529c0-3e-3 -4e-3 -7e-3 -4e-3 -0.0106l-0.75142-0.0635 0.75142 0.0635c-4e-3 -7e-3 -4e-3 -0.0106-7e-3 -0.0141l-0.81844-0.067 0.81844 0.067c-4e-3 -4e-3 -4e-3 -7e-3 -7e-3 -0.0141l-0.83256-0.067 0.83256 0.067c0-3e-3 -4e-3 -7e-3 -4e-3 -0.0106l-0.85372-0.0706 0.85372 0.0706c-4e-3 -7e-3 -4e-3 -0.0106-7e-3 -0.0141l-0.87136-0.0741 0.87136 0.0741c-4e-3 -4e-3 -4e-3 -7e-3 -7e-3 -0.0141l-0.89606-0.0741 0.89606 0.0741c0-4e-3 -4e-3 -7e-3 -7e-3 -0.0106l-0.9278-0.0776 0.9278 0.0776c0-7e-3 -4e-3 -0.0106-4e-3 -0.0141l-0.97366-0.0811 0.97366 0.0811c-4e-3 -3e-3 -7e-3 -7e-3 -7e-3 -0.0141l-2.1908-0.17991c-4e-3 3e-3 -7e-3 7e-3 -7e-3 0.0106l0.99484 0.0811-0.99484-0.0811-0.0106 0.0106 0.9525 0.0811-0.9525-0.0811c-4e-3 7e-3 -4e-3 0.0106-7e-3 0.0141l0.91723 0.0741-0.91723-0.0741-0.0106 0.0106 0.89606 0.0741-0.89606-0.0741c0 3e-3 -4e-3 7e-3 -7e-3 0.0106l0.87489 0.0741-0.87489-0.0741c-4e-3 7e-3 -4e-3 0.0106-7e-3 0.0141l0.85372 0.0706-0.85372-0.0706c-4e-3 3e-3 -7e-3 7e-3 -7e-3 0.0106l0.83961 0.0706-0.83961-0.0706c-4e-3 3e-3 -7e-3 7e-3 -7e-3 0.0141l0.74083 0.06-0.74083-0.06-0.0106 0.0106 0.65264 0.0529-0.65264-0.0529c0 4e-3 -4e-3 7e-3 -7e-3 0.0106l0.57503 0.0494-0.57503-0.0494c0 4e-3 -4e-3 0.0106-7e-3 0.0141l0.508 0.0423-0.508-0.0423c0 3e-3 -4e-3 7e-3 -7e-3 0.0106l0.45155 0.0388-0.45155-0.0388c0 3e-3 -4e-3 7e-3 -4e-3 0.0106l0.39158 0.0353-0.39158-0.0353c-4e-3 7e-3 -7e-3 0.0106-7e-3 0.0141l0.3422 0.0282-0.3422-0.0282c-4e-3 4e-3 -7e-3 7e-3 -7e-3 0.0106l0.29633 0.0247-0.29633-0.0247c-4e-3 4e-3 -4e-3 0.0106-7e-3 0.0141l0.254 0.0212-0.254-0.0212c0 3e-3 -4e-3 7e-3 -7e-3 0.0106l0.21519 0.0176-0.21519-0.0176c0 3e-3 -4e-3 7e-3 -4e-3 0.0106l0.17286 0.0176-0.17285-0.0176c-4e-3 7e-3 -4e-3 0.0106-7e-3 0.0141l0.13406 0.0106-0.13406-0.0106c0 3e-3 -4e-3 7e-3 -7e-3 0.0106l0.0988 0.0106-0.0988-0.0106c0 3e-3 -4e-3 0.0106-4e-3 0.0141l0.0635 4e-3 -0.0635-4e-3c-4e-3 4e-3 -4e-3 7e-3 -7e-3 0.0106l0.0317 4e-3 -0.0317-4e-3c0 4e-3 0 7e-3 -4e-3 0.0106-0.43392 0.10936-0.90664 0.29986-1.4111 0.6103-0.17286-0.31044-0.26811-0.55033-0.28223-0.58561 1.0336-0.74083 1.9544-0.97014 2.7023-0.97014 0.7232 0 1.2841 0.21167 1.6263 0.38453 0.67733 0.33867 0.66322 2.7234 0.66322 2.861-7e-3 3e-3 -0.0388 7e-3 -0.0988 0.0247m-3.0409-2.5964 2.1908 0.17991c-4e-3 -3e-3 -7e-3 -7e-3 -7e-3 -0.0106l-2.166-0.18344c-4e-3 7e-3 -7e-3 0.0106-0.0106 0.0141m0.0106-0.0141 2.1731 0.18344c-4e-3 -7e-3 -7e-3 -0.0106-7e-3 -0.0141l-2.159-0.17992c-4e-3 4e-3 -4e-3 7e-3 -7e-3 0.0106m7e-3 -0.0106 2.159 0.17992c-4e-3 -4e-3 -7e-3 -0.0106-0.0106-0.0141l-2.1378-0.17639-0.0106 0.0106m0.0106-0.0106 2.1378 0.17639c0-4e-3 -4e-3 -7e-3 -7e-3 -0.0141l-2.1202-0.17639c-4e-3 7e-3 -7e-3 0.0106-0.0106 0.0141m0.0106-0.0141 2.1202 0.17639c0-3e-3 -4e-3 -7e-3 -7e-3 -0.0106l-2.1026-0.17639c-4e-3 3e-3 -7e-3 7e-3 -0.0106 0.0106m0.0106-0.0106 2.1026 0.17639c-4e-3 -7e-3 -7e-3 -0.0106-7e-3 -0.0141l-2.0885-0.17286c-4e-3 3e-3 -4e-3 7e-3 -7e-3 0.0106m7e-3 -0.0106 2.0885 0.17286c-4e-3 -4e-3 -7e-3 -0.0106-0.0106-0.0141l-2.0673-0.17286c-4e-3 7e-3 -7e-3 0.0106-0.0106 0.0141m0.0106-0.0141 2.0673 0.17286c0-4e-3 -4e-3 -7e-3 -7e-3 -0.0141l-2.0496-0.16933-0.0106 0.0106m0.0106-0.0106 2.0496 0.16933c-4e-3 -3e-3 -7e-3 -7e-3 -0.0106-0.0106l-2.0287-0.16933-0.0106 0.0106m0.0106-0.0106 2.0285 0.16933c0-7e-3 -4e-3 -0.0106-7e-3 -0.0141l-2.0073-0.16581c-4e-3 3e-3 -7e-3 7e-3 -0.0141 0.0106m0.0141-0.0106 2.0073 0.16581c-4e-3 -3e-3 -7e-3 -0.0106-0.0106-0.0141l-1.9861-0.16581c-4e-3 4e-3 -7e-3 7e-3 -0.0106 0.0141m0.0106-0.0141 1.9861 0.16581c-4e-3 -4e-3 -7e-3 -7e-3 -0.0106-0.0141l-1.965-0.16228-0.0106 0.0106m0.0106-0.0106 1.965 0.16228c0-3e-3 -4e-3 -7e-3 -7e-3 -0.0106l-1.9439-0.16228c-7e-3 4e-3 -0.0106 7e-3 -0.0141 0.0106m0.0141-0.0106 1.9438 0.16228c-4e-3 -7e-3 -7e-3 -0.0106-0.0106-0.0141l-1.9226-0.16228c-4e-3 7e-3 -7e-3 0.0106-0.0106 0.0141m0.0106-0.0141 1.9226 0.16228c-4e-3 -7e-3 -7e-3 -0.0106-0.0106-0.0141l-1.8979-0.15875c-7e-3 3e-3 -0.0106 7e-3 -0.0141 0.0106m0.0141-0.0106 1.8979 0.15875c-4e-3 -4e-3 -7e-3 -0.0106-0.0106-0.0141l-1.8768-0.15522c-4e-3 3e-3 -7e-3 7e-3 -0.0106 0.0106m0.0106-0.0106 1.8768 0.15522c-4e-3 -3e-3 -7e-3 -0.0106-0.0106-0.0141l-1.8521-0.1517c-4e-3 4e-3 -0.0106 7e-3 -0.0141 0.0106m0.0141-0.0106 1.8521 0.1517c-7e-3 -3e-3 -0.0106-7e-3 -0.0141-0.0141l-1.8238-0.1517-0.0141 0.0141m0.0141-0.0141 1.8239 0.1517-0.0106-0.0106-1.7992-0.1517c-7e-3 3e-3 -0.0106 7e-3 -0.0141 0.0106m0.0141-0.0106 1.7992 0.1517c-4e-3 -7e-3 -7e-3 -0.0106-0.0106-0.0141l-1.7744-0.14817c-7e-3 3e-3 -0.0106 7e-3 -0.0141 0.0106m0.0141-0.0106 1.7745 0.14817-0.0141-0.0141-1.7462-0.14464c-7e-3 3e-3 -0.0106 7e-3 -0.0141 0.0106m0.0141-0.0106 1.7462 0.14464c-4e-3 -3e-3 -7e-3 -0.0106-0.0141-0.0141l-1.718-0.14111c-4e-3 3e-3 -0.0106 7e-3 -0.0141 0.0106m0.0141-0.0106 1.718 0.14111c-4e-3 -4e-3 -7e-3 -0.0106-0.0106-0.0141l-1.6933-0.14111-0.0141 0.0141m0.0141-0.0141 1.6933 0.14111c-0.21167-0.21167-0.49742-0.35278-0.82197-0.381-0.0353-3e-3 -0.0741-3e-3 -0.10936-3e-3 -0.28223 0-0.54681 0.0917-0.762 0.24341" fill="#b3aba7"/>
   <path d="m66.544 121.87-1.6933-0.14111c0.21519-0.15169 0.47977-0.24341 0.762-0.24341 0.0353 0 0.0741 0 0.10936 3e-3 0.32455 0.0282 0.6103 0.16933 0.82197 0.381" fill="#2b353a"/>
   <path d="m66.555 121.88-1.718-0.14112 0.0141-0.0141 1.6933 0.14111c4e-3 4e-3 7e-3 0.0106 0.0106 0.0141" fill="#2b353a"/>
   <path d="m66.569 121.89-1.7462-0.14464c4e-3 -3e-3 0.0106-7e-3 0.0141-0.0106l1.718 0.14111c7e-3 3e-3 0.0106 0.0106 0.0141 0.0141" fill="#2c363b"/>
   <path d="m66.583 121.91-1.7745-0.14817c4e-3 -3e-3 7e-3 -7e-3 0.0141-0.0106l1.7462 0.14464 0.0141 0.0141" fill="#2c363c"/>
   <path d="m66.594 121.92-1.7992-0.1517c4e-3 -4e-3 7e-3 -7e-3 0.0141-0.0106l1.7745 0.14817c4e-3 4e-3 7e-3 7e-3 0.0106 0.0141" fill="#2d373c"/>
   <path d="m66.604 121.93-1.8239-0.15169c4e-3 -3e-3 7e-3 -7e-3 0.0141-0.0106l1.7992 0.15169c4e-3 3e-3 7e-3 7e-3 0.0106 0.0106" fill="#2d383e"/>
   <path d="m66.618 121.95-1.8521-0.15169c4e-3 -3e-3 7e-3 -7e-3 0.0141-0.0141l1.8239 0.15169c4e-3 7e-3 7e-3 0.0106 0.0141 0.0141" fill="#2e383e"/>
   <path d="m66.629 121.96-1.8768-0.15522c4e-3 -4e-3 0.0106-7e-3 0.0141-0.0106l1.8521 0.1517c4e-3 3e-3 7e-3 0.0106 0.0106 0.0141" fill="#2f393f"/>
   <path d="m66.64 121.97-1.8979-0.15876 0.0106-0.0106 1.8768 0.15523c4e-3 3e-3 7e-3 0.0106 0.0106 0.0141" fill="#2f3a40"/>
   <path d="m66.65 121.99-1.9226-0.16228c4e-3 -3e-3 7e-3 -7e-3 0.0141-0.0106l1.8979 0.15875c4e-3 4e-3 7e-3 7e-3 0.0106 0.0141" fill="#2f3a40"/>
   <path d="m66.661 122-1.9438-0.16228c4e-3 -4e-3 7e-3 -7e-3 0.0106-0.0141l1.9226 0.16228c4e-3 3e-3 7e-3 7e-3 0.0106 0.0141" fill="#303b42"/>
   <path d="m66.668 122.01-1.965-0.16228c4e-3 -4e-3 7e-3 -7e-3 0.0141-0.0106l1.9438 0.16228c4e-3 3e-3 7e-3 7e-3 7e-3 0.0106" fill="#313c42"/>
   <path d="m66.678 122.03-1.9861-0.1658c4e-3 -3e-3 7e-3 -7e-3 0.0106-0.0106l1.965 0.16227c4e-3 7e-3 7e-3 0.0106 0.0106 0.0141" fill="#313c43"/>
   <path d="m66.689 122.04-2.0073-0.1658c4e-3 -7e-3 7e-3 -0.0106 0.0106-0.0141l1.9861 0.1658c4e-3 4e-3 7e-3 0.0106 0.0106 0.0141" fill="#313d43"/>
   <path d="m66.696 122.06-2.0285-0.16933c7e-3 -4e-3 0.0106-7e-3 0.0141-0.0106l2.0073 0.16581c4e-3 4e-3 7e-3 7e-3 7e-3 0.0141" fill="#323e44"/>
   <path d="m66.707 122.07-2.0496-0.16934 0.0106-0.0106 2.0285 0.16934 0.0106 0.0106" fill="#333e45"/>
   <path d="m66.714 122.08-2.0673-0.17286c4e-3 -3e-3 7e-3 -7e-3 0.0106-0.0106l2.0496 0.16933c4e-3 7e-3 7e-3 0.0106 7e-3 0.0141" fill="#333f46"/>
   <path d="m66.724 122.09-2.0884-0.17286c4e-3 -4e-3 7e-3 -7e-3 0.0106-0.0141l2.0673 0.17286c4e-3 3e-3 7e-3 0.0106 0.0106 0.0141" fill="#344047"/>
   <path d="m66.731 122.11-2.1026-0.17639c4e-3 -4e-3 4e-3 -7e-3 7e-3 -0.0106l2.0884 0.17286c0 3e-3 4e-3 7e-3 7e-3 0.0141" fill="#344147"/>
   <path d="m66.738 122.12-2.1202-0.17639 0.0106-0.0106 2.1026 0.17639c4e-3 4e-3 7e-3 7e-3 7e-3 0.0106" fill="#354148"/>
   <path d="m66.745 122.13-2.1378-0.17638c4e-3 -4e-3 7e-3 -7e-3 0.0106-0.0141l2.1202 0.17638c4e-3 7e-3 7e-3 0.0106 7e-3 0.0141" fill="#354248"/>
   <path d="m66.756 122.15-2.159-0.17992 0.0106-0.0106 2.1378 0.17639c4e-3 4e-3 7e-3 0.0106 0.0106 0.0141" fill="#36434a"/>
   <path d="m66.763 122.16-2.1731-0.18345c4e-3 -4e-3 4e-3 -7e-3 7e-3 -0.0106l2.159 0.17992c0 3e-3 4e-3 7e-3 7e-3 0.0141" fill="#36434a"/>
   <path d="m66.77 122.17-2.1908-0.17992c4e-3 -3e-3 7e-3 -7e-3 0.0106-0.0141l2.1731 0.18345c0 3e-3 4e-3 7e-3 7e-3 0.0106" fill="#37444b"/>
   <path d="m66.777 122.19-0.97366-0.0811c-0.0388-0.0106-0.0776-0.0176-0.11995-0.0212-0.0141 0-0.0317-3e-3 -0.0494-3e-3 -0.0247 0-0.0459 3e-3 -0.067 3e-3l-0.99484-0.0811c0-3e-3 4e-3 -7e-3 7e-3 -0.0106l2.1908 0.17992c0 7e-3 4e-3 0.0106 7e-3 0.0141" fill="#37454c"/>
   <path d="m66.781 122.2-0.9278-0.0776c-0.0176-7e-3 -0.0317-0.0141-0.0494-0.0176l0.97366 0.0811c0 4e-3 4e-3 7e-3 4e-3 0.0141m-1.2665-0.10583-0.9525-0.0811 0.0106-0.0106 0.99484 0.0811c-0.0176 3e-3 -0.0353 7e-3 -0.0529 0.0106" fill="#38454c"/>
   <path d="m66.788 122.21-0.89606-0.0741c-0.0141-3e-3 -0.0247-0.0106-0.0388-0.0141l0.9278 0.0776c4e-3 3e-3 7e-3 7e-3 7e-3 0.0106m-1.3159-0.10937-0.91723-0.0741c4e-3 -3e-3 4e-3 -7e-3 7e-3 -0.0141l0.9525 0.0811c-0.0141 0-0.0282 3e-3 -0.0423 7e-3" fill="#38464d"/>
   <path d="m66.795 122.23-0.87136-0.0741c-0.0106-4e-3 -0.0212-7e-3 -0.0317-0.0141l0.89606 0.0741c4e-3 7e-3 4e-3 0.0106 7e-3 0.0141m-1.3547-0.11289-0.89606-0.0741 0.0106-0.0106 0.91723 0.0741c-0.0106 4e-3 -0.0212 7e-3 -0.0318 0.0106" fill="#39464e"/>
   <path d="m66.802 122.24-0.85372-0.0706c-7e-3 -7e-3 -0.0176-0.0106-0.0247-0.0176l0.87136 0.0741c4e-3 3e-3 4e-3 7e-3 7e-3 0.0141m-1.39-0.11642-0.87489-0.0741c4e-3 -3e-3 7e-3 -7e-3 7e-3 -0.0106l0.89606 0.0741c-0.0106 3e-3 -0.0212 7e-3 -0.0282 0.0106" fill="#39474f"/>
   <path d="m66.805 122.25-0.83256-0.067c-7e-3 -7e-3 -0.0176-0.0106-0.0247-0.0141l0.85372 0.0706c0 3e-3 4e-3 7e-3 4e-3 0.0106m-1.4217-0.11642-0.85372-0.0706c4e-3 -4e-3 4e-3 -7e-3 7e-3 -0.0141l0.87489 0.0741c-0.0106 4e-3 -0.0176 7e-3 -0.0282 0.0106" fill="#3a484f"/>
   <path d="m66.813 122.26-0.81844-0.067c-7e-3 -7e-3 -0.0141-0.0106-0.0212-0.0141l0.83256 0.067c4e-3 7e-3 4e-3 0.0106 7e-3 0.0141m-1.4499-0.11994-0.83961-0.0706c0-3e-3 4e-3 -7e-3 7e-3 -0.0106l0.85372 0.0706c-7e-3 4e-3 -0.0141 7e-3 -0.0212 0.0106" fill="#3a4850"/>
   <path d="m66.82 122.28-0.75142-0.0635c-0.0212-4e-3 -0.0423-7e-3 -0.0635-0.0106-4e-3 -4e-3 -7e-3 -7e-3 -0.0106-7e-3l0.81844 0.067c4e-3 3e-3 4e-3 7e-3 7e-3 0.0141m-1.5628-0.13052-0.74083-0.06c0-7e-3 4e-3 -0.0106 7e-3 -0.0141l0.83961 0.0706c-4e-3 0-4e-3 0-7e-3 3e-3h-0.0988" fill="#3a4950"/>
   <path d="m66.823 122.29-0.65616-0.0529c-0.0317-7e-3 -0.067-0.0141-0.0988-0.0212l0.75142 0.0635c0 4e-3 4e-3 7e-3 4e-3 0.0106m-1.6651-0.13759-0.65264-0.0529c4e-3 -3e-3 7e-3 -7e-3 0.0106-0.0106l0.74083 0.06c-0.0317 0-0.067 4e-3 -0.0988 4e-3" fill="#3b4a52"/>
   <path d="m66.83 122.3-0.58561-0.0494c-0.0247-4e-3 -0.0529-0.0106-0.0776-0.0176l0.65616 0.0529c4e-3 7e-3 4e-3 0.0106 7e-3 0.0141m-1.7568-0.14464-0.57503-0.0494c4e-3 -3e-3 7e-3 -7e-3 7e-3 -0.0106l0.65264 0.0529c-0.0282 3e-3 -0.0564 3e-3 -0.0847 7e-3" fill="#3b4a52"/>
   <path d="m66.834 122.32-0.51859-0.0423c-0.0247-7e-3 -0.0459-0.0141-0.0705-0.0212l0.58561 0.0494c0 4e-3 4e-3 7e-3 4e-3 0.0141m-1.8344-0.15169-0.508-0.0423c4e-3 -3e-3 7e-3 -0.0106 7e-3 -0.0141l0.57503 0.0494c-0.0247 0-0.0494 4e-3 -0.0741 7e-3" fill="#3c4b53"/>
   <path d="m66.837 122.33-0.45862-0.0353c-0.0212-7e-3 -0.0423-0.0141-0.0635-0.0176l0.51859 0.0423c0 3e-3 4e-3 7e-3 4e-3 0.0106m-1.9015-0.15522-0.45155-0.0388c4e-3 -3e-3 7e-3 -7e-3 7e-3 -0.0106l0.508 0.0423c-0.0212 0-0.0423 3e-3 -0.0635 7e-3" fill="#3c4c53"/>
   <path d="m66.844 122.34-0.40922-0.0353c-0.0176-4e-3 -0.0388-0.0106-0.0564-0.0141l0.45862 0.0353c4e-3 7e-3 4e-3 0.0106 7e-3 0.0141m-1.972-0.16227-0.39158-0.0353c0-3e-3 4e-3 -7e-3 4e-3 -0.0106l0.45155 0.0388c-0.0212 0-0.0423 4e-3 -0.0635 7e-3" fill="#3d4c54"/>
   <path d="m66.848 122.36-0.35983-0.0317c-0.0176-3e-3 -0.0353-0.0106-0.0529-0.0176l0.40922 0.0353c0 4e-3 4e-3 0.0106 4e-3 0.0141m-2.032-0.16933-0.3422-0.0282c0-3e-3 4e-3 -7e-3 7e-3 -0.0141l0.39158 0.0353c-0.0176 0-0.0353 4e-3 -0.0564 7e-3" fill="#3d4d54"/>
   <path d="m66.851 122.37-0.31398-0.0247c-0.0176-7e-3 -0.0318-0.0106-0.0494-0.0176l0.35983 0.0317c0 3e-3 4e-3 7e-3 4e-3 0.0106m-2.0884-0.17286-0.29633-0.0247c0-3e-3 4e-3 -7e-3 7e-3 -0.0106l0.3422 0.0282c-0.0176 3e-3 -0.0353 3e-3 -0.0529 7e-3" fill="#3e4e56"/>
   <path d="m66.855 122.38-0.27163-0.0212c-0.0141-7e-3 -0.0317-0.0141-0.0459-0.0176l0.31398 0.0247c4e-3 7e-3 4e-3 0.0106 4e-3 0.0141m-2.1414-0.17639-0.254-0.0212c4e-3 -3e-3 4e-3 -0.0106 7e-3 -0.0141l0.29633 0.0247c-0.0141 4e-3 -0.0317 7e-3 -0.0494 0.0106" fill="#3e4e56"/>
   <path d="m66.862 122.39-0.23283-0.0212c-0.0141-4e-3 -0.0317-0.0106-0.0459-0.0141l0.27163 0.0212c4e-3 4e-3 4e-3 0.0106 7e-3 0.0141m-2.1943-0.18344-0.21519-0.0176c4e-3 -3e-3 7e-3 -7e-3 7e-3 -0.0106l0.254 0.0212c-0.0141 0-0.0317 4e-3 -0.0459 7e-3" fill="#3f4f57"/>
   <path d="m66.865 122.41-0.19403-0.0141c-0.0141-7e-3 -0.0282-0.0106-0.0423-0.0176l0.23283 0.0212c0 4e-3 0 7e-3 4e-3 0.0106m-2.2437-0.18344-0.17286-0.0176c0-4e-3 4e-3 -7e-3 4e-3 -0.0106l0.21519 0.0176c-0.0176 4e-3 -0.0317 7e-3 -0.0459 0.0106" fill="#3f4f57"/>
   <path d="m66.869 122.42-0.15875-0.0141c-0.0141-3e-3 -0.0282-0.0106-0.0388-0.0141l0.19403 0.0141c0 7e-3 0 0.0106 4e-3 0.0141m-2.2931-0.1905-0.13406-0.0106c4e-3 -4e-3 4e-3 -7e-3 7e-3 -0.0141l0.17286 0.0176c-0.0176 0-0.0317 4e-3 -0.0459 7e-3" fill="#405058"/>
   <path d="m66.872 122.43-0.12347-0.0106c-0.0141-7e-3 -0.0282-0.0106-0.0388-0.0176l0.15875 0.0141c0 4e-3 0 7e-3 4e-3 0.0141m-2.3389-0.19403-0.0988-0.0106c4e-3 -3e-3 7e-3 -7e-3 7e-3 -0.0106l0.13406 0.0106c-0.0141 3e-3 -0.0282 7e-3 -0.0423 0.0106" fill="#405059"/>
   <path d="m66.876 122.44-0.0917-7e-3c-0.0106-3e-3 -0.0247-0.0106-0.0353-0.0141l0.12347 0.0106c0 3e-3 0 7e-3 4e-3 0.0106m-2.3812-0.19756-0.0635-4e-3c0-3e-3 4e-3 -0.0106 4e-3 -0.0141l0.0988 0.0106c-0.0141 0-0.0247 4e-3 -0.0388 7e-3" fill="#405159"/>
   <path d="m66.88 122.46-0.06-7e-3c-0.0106-3e-3 -0.0247-7e-3 -0.0353-0.0141l0.0917 7e-3c0 3e-3 0 0.0106 4e-3 0.0141m-2.4236-0.20108-0.0317-3e-3c4e-3 -4e-3 4e-3 -7e-3 7e-3 -0.0106l0.0635 3e-3c-0.0141 4e-3 -0.0282 7e-3 -0.0388 0.0106" fill="#41515a"/>
   <path d="m66.883 122.47h-0.0282c-0.0106-7e-3 -0.0247-0.0106-0.0353-0.0176l0.06 7e-3c0 4e-3 0 7e-3 4e-3 0.0106m-2.4624-0.20461c4e-3 -3e-3 4e-3 -7e-3 4e-3 -0.0106l0.0317 4e-3c-0.0141 3e-3 -0.0247 3e-3 -0.0353 7e-3" fill="#42525b"/>
   <path d="m66.883 122.48c-7e-3 -3e-3 -0.0176-0.0106-0.0282-0.0141h0.0282v0.0141" fill="#42535b"/>
   <path d="m66.005 122.2c-0.19756-0.0353-0.40922-0.0564-0.63853-0.0564h-0.0106c4e-3 -4e-3 4e-3 -4e-3 7e-3 -4e-3 7e-3 -3e-3 0.0141-7e-3 0.0212-0.0106 0.0106-3e-3 0.0176-7e-3 0.0282-0.0106 7e-3 -3e-3 0.0176-7e-3 0.0282-0.0106 0.0106-3e-3 0.0212-7e-3 0.0318-0.0106 0.0141-3e-3 0.0282-7e-3 0.0423-7e-3 0.0176-3e-3 0.0353-7e-3 0.0529-0.0106 0.0212 0 0.0423-4e-3 0.067-4e-3 0.0176 0 0.0353 4e-3 0.0494 4e-3 0.0423 4e-3 0.0811 0.0106 0.11995 0.0212 0.0176 3e-3 0.0318 0.0106 0.0494 0.0176 0.0141 3e-3 0.0247 0.0106 0.0388 0.0141 0.0106 7e-3 0.0212 0.0106 0.0317 0.0141 7e-3 7e-3 0.0176 0.0106 0.0247 0.0176 7e-3 4e-3 0.0176 7e-3 0.0247 0.0141 7e-3 4e-3 0.0141 7e-3 0.0212 0.0141 4e-3 0 7e-3 4e-3 0.0106 7e-3" fill="#698d93"/>
   <path d="m65.377 122.61c-0.0141 0.13052-0.14464 0.22578-0.29987 0.21166-0.15169-0.0141-0.26458-0.127-0.25752-0.25752 0.0141-0.13053 0.14464-0.22225 0.29633-0.21167 0.15522 0.0141 0.26811 0.127 0.26106 0.25753" fill="#fff"/>
   <path d="m66.23 123.35c-4e-3 0.067-0.0706 0.11289-0.14817 0.10583-0.0741-7e-3 -0.13405-0.0635-0.127-0.127 4e-3 -0.067 0.0706-0.11289 0.14817-0.10583 0.0741 4e-3 0.13405 0.0635 0.127 0.127" fill="#fff"/>
   <path d="m71.847 120.95s0.22578-0.34572 0.68792-0.6985c0.23283-0.17992 0.52211-0.36689 0.86078-0.51153 0.34219-0.14464 0.72319-0.254 1.1113-0.30691 0.39158-0.0423 0.77963-0.0176 1.1395 0.0317 0.3563 0.067 0.6738 0.16933 0.93486 0.28222 0.26811 0.0917 0.46214 0.23989 0.60325 0.31397 0.13758 0.0882 0.21872 0.13758 0.21872 0.13758s-0.0917-0.0212-0.25047-0.06c-0.15522-0.0388-0.37395-0.10583-0.64558-0.14464-0.13406-0.0176-0.27517-0.06-0.42687-0.067-0.15169-0.0106-0.31044-0.0212-0.47625-0.0317-0.32808-7e-3 -0.67733 0.0141-1.0125 0.0917-0.33866 0.0564-0.66675 0.16228-0.95603 0.29634-0.28927 0.14111-0.56091 0.27516-0.76905 0.42686-0.43745 0.29281-0.67381 0.52917-0.67381 0.52917-0.0882 0.0917-0.23283 0.0917-0.32102 0-0.0776-0.0741-0.0847-0.19403-0.0282-0.28223l4e-3 -7e-3" fill="#3e3a37"/>
   <path d="m77.643 122.29s-0.86783 2.1696-2.2154 2.3812c-1.3441 0.21025-2.7799-0.0988-2.7799-0.0988s-0.0353-2.5188 0.66322-2.8681c0.6985-0.34925 2.2966-0.87136 4.3321 0.58562" fill="#fff"/>
   <path d="m72.647 124.56s-0.0388-2.5224 0.66322-2.8716c0.33867-0.16933 0.89605-0.38453 1.6193-0.38453 0.74789 0 1.6722 0.22931 2.7093 0.97367v3e-3c-1.0336-0.7373-1.9544-0.96661-2.7023-0.96661-0.72319 0-1.2841 0.21167-1.6263 0.38453-0.67733 0.33867-0.66322 2.7234-0.66322 2.861" fill="#b29089"/>
   <path d="m72.746 124.59c-0.06-0.0176-0.0882-0.0212-0.0988-0.0247 0-0.13758-0.0141-2.5224 0.66322-2.861 0.34219-0.17286 0.90311-0.38453 1.6263-0.38453 0.74789 0 1.6686 0.22931 2.7023 0.96661-0.0141 0.0388-0.10936 0.2787-0.28222 0.58914-0.89606-0.55033-1.6933-0.72672-2.3566-0.72672-0.72319 0-1.2806 0.21167-1.6193 0.38453-0.43744 0.21519-0.58913 1.2806-0.635 2.0567" fill="#b3aba7"/>
  </g>
  <g transform="matrix(.035278 0 0 -.035278 -327.47 477.65)">
   <g clip-path="url(#a)">
    <path d="m11440 10086-76.7 6.4v7.1h76.7v-13.5" fill="#222d36"/>
    <path d="m11440 10086-76.7 6.3v0.4l76.7-6.4v-0.3" fill="#222d36"/>
    <path d="m11440 10086-76.7 6.4v0.3l76.7-6.3v-0.4" fill="#232e38"/>
    <path d="m11440 10085-76.7 6.3v0.4l76.7-6.4v-0.3" fill="#242f39"/>
    <path d="m11440 10085-76.7 6.4v0.3l76.7-6.3v-0.4" fill="#25313a"/>
    <path d="m11440 10084-76.7 6.4v0.4l76.7-6.4v-0.4" fill="#26323c"/>
    <path d="m11440 10084-76.7 6.4v0.3l76.7-6.4v-0.3" fill="#26333d"/>
    <path d="m11440 10084-76.7 6.4v0.4l76.7-6.4v-0.4" fill="#27343f"/>
    <path d="m11440 10084-76.7 6.3v0.4l76.7-6.4v-0.3" fill="#283540"/>
    <path d="m11440 10083-76.7 6.4v0.3l76.7-6.3v-0.4" fill="#293741"/>
    <path d="m11440 10083-76.7 6.3v0.4l76.7-6.4v-0.3" fill="#2a3843"/>
    <path d="m11440 10082-76.7 6.4v0.3l76.7-6.3v-0.4" fill="#2a3944"/>
    <path d="m11440 10082-76.7 6.3v0.4l76.7-6.4v-0.3" fill="#2b3a45"/>
    <path d="m11440 10082-76.7 6.4v0.3l76.7-6.3v-0.4" fill="#2c3b46"/>
    <path d="m11440 10081-76.7 6.4v0.4l76.7-6.4v-0.4" fill="#2d3c48"/>
    <path d="m11440 10081-76.7 6.4v0.3l76.7-6.4v-0.3" fill="#2e3d49"/>
    <path d="m11440 10081-76.7 6.4v0.4l76.7-6.4v-0.4" fill="#2e3e4a"/>
    <path d="m11440 10080-76.7 6.3v0.4l76.7-6.4v-0.3" fill="#2f404b"/>
    <path d="m11440 10080-76.7 6.4v0.3l76.7-6.3v-0.4" fill="#30414d"/>
    <path d="m11440 10080-76.7 6.3v0.4l76.7-6.4v-0.3" fill="#31424e"/>
    <path d="m11440 10079-76.7 6.4v0.3l76.7-6.3v-0.4" fill="#31434f"/>
    <path d="m11440 10079-76.7 6.3v0.4l76.7-6.4v-0.3" fill="#324451"/>
    <path d="m11440 10078-76.7 6.4v0.3l76.7-6.3v-0.4" fill="#334552"/>
    <path d="m11440 10078-76.7 6.3v0.4l76.7-6.4v-0.3" fill="#334653"/>
    <path d="m11440 10078-76.7 6.4v0.3l76.7-6.3v-0.4" fill="#344754"/>
    <path d="m11440 10077-76.7 6.4v0.4l76.7-6.4v-0.4" fill="#354855"/>
    <path d="m11440 10077-76.7 6.3v0.4l76.7-6.4v-0.3" fill="#364957"/>
    <path d="m11440 10077-76.7 6.4v0.3l76.7-6.3v-0.4" fill="#364a58"/>
    <path d="m11440 10076-76.7 6.3v0.4l76.7-6.4v-0.3" fill="#374b59"/>
    <path d="m11440 10076-76.7 6.4v0.3l76.7-6.3v-0.4" fill="#384d5a"/>
    <path d="m11440 10076-76.7 6.3v0.4l76.7-6.4v-0.3" fill="#384e5b"/>
    <path d="m11440 10075-76.7 6.4v0.3l76.7-6.3v-0.4" fill="#394e5c"/>
    <path d="m11440 10075-76.7 6.4v0.4l76.7-6.4v-0.4" fill="#3a505e"/>
    <path d="m11440 10075-76.7 6.4v0.3l76.7-6.4v-0.3" fill="#3b515f"/>
    <path d="m11440 10074-76.7 6.3v0.4l76.7-6.4v-0.3" fill="#3b5260"/>
    <path d="m11440 10074-76.7 6.4v0.3l76.7-6.3v-0.4" fill="#3c5361"/>
    <path d="m11440 10074-76.7 6.4v0.4l76.7-6.4v-0.4" fill="#3d5462"/>
    <path d="m11440 10073-76.7 6.3v0.4l76.7-6.4v-0.3" fill="#3d5564"/>
    <path d="m11440 10073-76.7 6.4v0.3l76.7-6.3v-0.4" fill="#3e5665"/>
    <path d="m11440 10072-76.7 6.3v0.4l76.7-6.4v-0.3" fill="#3f5766"/>
    <path d="m11440 10072-76.7 6.4v0.3l76.7-6.3v-0.4" fill="#3f5867"/>
    <path d="m11440 10072-76.7 6.3v0.4l76.7-6.4v-0.3" fill="#405968"/>
    <path d="m11440 10071-76.7 6.4v0.3l76.7-6.3v-0.4" fill="#415969"/>
    <path d="m11440 10071-76.7 6.3v0.4l76.7-6.4v-0.3" fill="#415a6a"/>
    <path d="m11440 10071-76.7 6.4v0.3l76.7-6.3v-0.4" fill="#425c6b"/>
    <path d="m11440 10070-76.7 6.4v0.4l76.7-6.4v-0.4" fill="#435c6c"/>
    <path d="m11440 10070-76.7 6.4v0.3l76.7-6.4v-0.3" fill="#435d6d"/>
    <path d="m11440 10070-76.7 6.4v0.4l76.7-6.4v-0.4" fill="#445e6f"/>
    <path d="m11440 10069-76.7 6.3v0.4l76.7-6.4v-0.3" fill="#455f70"/>
    <path d="m11440 10069-76.7 6.4v0.3l76.7-6.3v-0.4" fill="#456071"/>
    <path d="m11440 10069-76.7 6.3v0.4l76.7-6.4v-0.3" fill="#466172"/>
    <path d="m11440 10068-76.7 6.4v0.3l76.7-6.3v-0.4" fill="#466273"/>
    <path d="m11440 10068-76.7 6.3v0.4l76.7-6.4v-0.3" fill="#476374"/>
    <path d="m11440 10068-76.7 6.4v0.3l76.7-6.3v-0.4" fill="#486475"/>
    <path d="m11440 10067-76.7 6.4v0.4l76.7-6.4v-0.4" fill="#486576"/>
    <path d="m11440 10067-76.7 6.4v0.3l76.7-6.4v-0.3" fill="#496677"/>
    <path d="m11440 10066-76.7 6.4v0.4l76.7-6.4v-0.4" fill="#4a6778"/>
    <path d="m11440 10066-76.7 6.3v0.4l76.7-6.4v-0.3" fill="#4a6779"/>
    <path d="m11440 10066-76.7 6.4v0.3l76.7-6.3v-0.4" fill="#4b687a"/>
    <path d="m11440 10065-76.7 6.3v0.4l76.7-6.4v-0.3" fill="#4b697b"/>
    <path d="m11440 10065-76.7 6.4v0.3l76.7-6.3v-0.4" fill="#4c6a7c"/>
    <path d="m11440 10065-76.7 6.3v0.4l76.7-6.4v-0.3" fill="#4c6b7d"/>
    <path d="m11440 10064-76.7 6.4v0.3l76.7-6.3v-0.4" fill="#4d6c7e"/>
    <path d="m11440 10064-76.7 6.4v0.4l76.7-6.4v-0.4" fill="#4e6d7f"/>
    <path d="m11440 10064-76.7 6.3v0.4l76.7-6.4v-0.3" fill="#4e6d80"/>
    <path d="m11440 10063-76.7 6.4v0.3l76.7-6.3v-0.4" fill="#4f6e81"/>
    <path d="m11440 10063-76.7 6.3v0.4l76.7-6.4v-0.3" fill="#4f6f82"/>
    <path d="m11440 10062-76.7 6.4v0.3l76.7-6.3v-0.4" fill="#507083"/>
    <path d="m11440 10062-76.7 6.3v0.4l76.7-6.4v-0.3" fill="#507184"/>
    <path d="m11440 10062-76.7 6.4v0.3l76.7-6.3v-0.4" fill="#517284"/>
    <path d="m11440 10062-76.7 6.3v0.4l76.7-6.4v-0.3" fill="#527285"/>
    <path d="m11440 10061-76.7 6.4v0.3l76.7-6.3v-0.4" fill="#527386"/>
    <path d="m11440 10061-76.7 6.3v0.4l76.7-6.4v-0.3" fill="#537487"/>
    <path d="m11440 10060-76.7 6.4v0.3l76.7-6.3v-0.4" fill="#537588"/>
    <path d="m11440 10060-76.7 6.3v0.4l76.7-6.4v-0.3" fill="#547689"/>
    <path d="m11440 10060-76.7 6.4v0.3l76.7-6.3v-0.4" fill="#54768a"/>
    <path d="m11440 10059-76.7 6.4v0.4l76.7-6.4v-0.4" fill="#55778b"/>
    <path d="m11440 10059-76.7 6.3v0.4l76.7-6.4v-0.3" fill="#55788c"/>
    <path d="m11440 10059-76.7 6.4v0.3l76.7-6.3v-0.4" fill="#56798d"/>
    <path d="m11440 10058-76.7 6.3v0.4l76.7-6.4v-0.3" fill="#56798d"/>
    <path d="m11440 10058-76.7 6.4v0.3l76.7-6.3v-0.4" fill="#577a8e"/>
    <path d="m11440 10058-76.7 6.3v0.4l76.7-6.4v-0.3" fill="#577b8f"/>
    <path d="m11440 10057-76.7 6.4v0.3l76.7-6.3v-0.4" fill="#587c90"/>
    <path d="m11440 10057-76.7 6.3v0.4l76.7-6.4v-0.3" fill="#587c91"/>
    <path d="m11440 10056-76.7 6.4v0.3l76.7-6.3v-0.4" fill="#597d92"/>
    <path d="m11440 10056-76.7 6.4v0.4l76.7-6.4v-0.4" fill="#597e92"/>
    <path d="m11440 10056-76.7 6.3v0.4l76.7-6.4v-0.3" fill="#5a7f93"/>
    <path d="m11440 10055-76.7 6.4v0.3l76.7-6.3v-0.4" fill="#5a7f94"/>
    <path d="m11440 10055-76.7 6.3v0.4l76.7-6.4v-0.3" fill="#5b8095"/>
    <path d="m11440 10055-76.7 6.4v0.3l76.7-6.3v-0.4" fill="#5b8196"/>
    <path d="m11440 10054-76.7 6.3v0.4l76.7-6.4v-0.3" fill="#5c8196"/>
    <path d="m11440 10054-76.7 6.4v0.3l76.7-6.3v-0.4" fill="#5c8297"/>
    <path d="m11440 10054-76.7 6.3v0.4l76.7-6.4v-0.3" fill="#5d8398"/>
    <path d="m11440 10053-76.7 6.4v0.3l76.7-6.3v-0.4" fill="#5d8399"/>
    <path d="m11440 10053-76.7 6.4v0.4l76.7-6.4v-0.4" fill="#5e849a"/>
    <path d="m11440 10053-76.7 6.3v0.4l76.7-6.4v-0.3" fill="#5e859a"/>
    <path d="m11440 10052-76.7 6.4v0.3l76.7-6.3v-0.4" fill="#5e859b"/>
    <path d="m11440 10052-76.7 6.3v0.4l76.7-6.4v-0.3" fill="#5f869c"/>
    <path d="m11440 10052-76.7 6.4v0.3l76.7-6.3v-0.4" fill="#5f879d"/>
    <path d="m11440 10051-76.7 6.3v0.4l76.7-6.4v-0.3" fill="#60879d"/>
    <path d="m11440 10051-76.7 6.4v0.3l76.7-6.3v-0.4" fill="#60889e"/>
    <path d="m11440 10050-76.7 6.3v0.4l76.7-6.4v-0.3" fill="#61899f"/>
    <path d="m11440 10050-76.7 6.4v0.3l76.7-6.3v-0.4" fill="#61899f"/>
    <path d="m11440 10050-76.7 6.3v0.4l76.7-6.4v-0.3" fill="#628aa0"/>
    <path d="m11440 10049-76.7 6.4v0.3l76.7-6.3v-0.4" fill="#628aa1"/>
    <path d="m11440 10049-76.7 6.4v0.4l76.7-6.4v-0.4" fill="#628ba2"/>
    <path d="m11440 10049-76.7 6.3v0.4l76.7-6.4v-0.3" fill="#638ca2"/>
    <path d="m11440 10048-76.7 6.4v0.3l76.7-6.3v-0.4" fill="#638ca3"/>
    <path d="m11440 10048-76.7 6.3v0.4l76.7-6.4v-0.3" fill="#648da4"/>
    <path d="m11440 10048-76.7 6.4v0.3l76.7-6.3v-0.4" fill="#648da4"/>
    <path d="m11440 10047-76.7 6.3v0.4l76.7-6.4v-0.3" fill="#648ea5"/>
    <path d="m11440 10047-76.7 6.4v0.3l76.7-6.3v-0.4" fill="#658fa6"/>
    <path d="m11440 10047-76.7 6.3v0.4l76.7-6.4v-0.3" fill="#658fa6"/>
    <path d="m11440 10046-76.7 6.4v0.3l76.7-6.3v-0.4" fill="#6690a7"/>
    <path d="m11440 10046-76.7 6.4v0.4l76.7-6.4v-0.4" fill="#6690a7"/>
    <path d="m11440 10046-76.7 6.3v0.4l76.7-6.4v-0.3" fill="#6691a8"/>
    <path d="m11440 10045-76.7 6.4v0.3l76.7-6.3v-0.4" fill="#6791a9"/>
    <path d="m11440 10045-76.7 6.3v0.4l76.7-6.4v-0.3" fill="#6792a9"/>
    <path d="m11440 10044-76.7 6.4v0.3l76.7-6.3v-0.4" fill="#6792aa"/>
    <path d="m11440 10044-76.7 6.3v0.4l76.7-6.4v-0.3" fill="#6893aa"/>
    <path d="m11440 10044-76.7 6.4v0.3l76.7-6.3v-0.4" fill="#6893ab"/>
    <path d="m11440 10043-76.7 6.3v0.4l76.7-6.4v-0.3" fill="#6894ac"/>
    <path d="m11440 10043-76.7 6.4v0.3l76.7-6.3v-0.4" fill="#6994ac"/>
    <path d="m11440 10043-76.7 6.3v0.4l76.7-6.4v-0.3" fill="#6995ad"/>
    <path d="m11440 10042-76.7 6.4v0.3l76.7-6.3v-0.4" fill="#6995ad"/>
    <path d="m11440 10042-76.7 6.4v0.4l76.7-6.4v-0.4" fill="#6a96ae"/>
    <path d="m11440 10042-76.7 6.3v0.4l76.7-6.4v-0.3" fill="#6a96ae"/>
    <path d="m11440 10041-76.7 6.4v0.3l76.7-6.3v-0.4" fill="#6a97af"/>
    <path d="m11440 10041-76.7 6.3v0.4l76.7-6.4v-0.3" fill="#6b97b0"/>
    <path d="m11440 10040-76.7 6.4v0.3l76.7-6.3v-0.4" fill="#6b98b0"/>
    <path d="m11440 10040-76.7 6.3v0.4l76.7-6.4v-0.3" fill="#6b98b1"/>
    <path d="m11440 10040-76.7 6.4v0.3l76.7-6.3v-0.4" fill="#6c99b1"/>
    <path d="m11440 10039-76.7 6.4v0.4l76.7-6.4v-0.4" fill="#6c99b2"/>
    <path d="m11440 10039-76.7 6.3v0.4l76.7-6.4v-0.3" fill="#6c9ab2"/>
    <path d="m11440 10039-76.7 6.4v0.3l76.7-6.3v-0.4" fill="#6d9ab3"/>
    <path d="m11440 10038-76.7 6.4v0.3l76.7-6.4v-0.3" fill="#6d9bb3"/>
    <path d="m11440 10038-76.7 6.4v0.4l76.7-6.4v-0.4" fill="#6d9bb4"/>
    <path d="m11440 10038-76.7 6.3v0.4l76.7-6.4v-0.3" fill="#6d9bb4"/>
    <path d="m11440 10037-76.7 6.4v0.3l76.7-6.3v-0.4" fill="#6e9cb5"/>
    <path d="m11440 10037-76.7 6.3v0.4l76.7-6.4v-0.3" fill="#6e9cb5"/>
    <path d="m11440 10037-76.7 6.4v0.3l76.7-6.3v-0.4" fill="#6e9db6"/>
    <path d="m11440 10036-76.7 6.3v0.4l76.7-6.4v-0.3" fill="#6f9db6"/>
    <path d="m11440 10036-76.7 6.4v0.3l76.7-6.3v-0.4" fill="#6f9db6"/>
    <path d="m11440 10036-76.7 6.3v0.4l76.7-6.4v-0.3" fill="#6f9eb7"/>
    <path d="m11440 10035-76.7 6.4v0.3l76.7-6.3v-0.4" fill="#6f9eb7"/>
    <path d="m11440 10035-76.7 6.4v0.4l76.7-6.4v-0.4" fill="#709fb8"/>
    <path d="m11440 10034-76.7 6.3v0.4l76.7-6.4v-0.3" fill="#709fb8"/>
    <path d="m11440 10034-76.7 6.4v0.3l76.7-6.3v-0.4" fill="#709fb9"/>
    <path d="m11440 10034-76.7 6.3v0.4l76.7-6.4v-0.3" fill="#70a0b9"/>
    <path d="m11440 10033-76.7 6.4v0.3l76.7-6.3v-0.4" fill="#71a0b9"/>
    <path d="m11440 10033-76.7 6.3v0.4l76.7-6.4v-0.3" fill="#71a0ba"/>
    <path d="m11440 10033-76.7 6.4v0.3l76.7-6.3v-0.4" fill="#71a1ba"/>
    <path d="m11440 10032-76.7 6.3v0.4l76.7-6.4v-0.3" fill="#71a1bb"/>
    <path d="m11440 10032-76.7 6.4v0.3l76.7-6.3v-0.4" fill="#72a1bb"/>
    <path d="m11440 10032-76.7 6.4v0.4l76.7-6.4v-0.4" fill="#72a2bb"/>
    <path d="m11440 10031-76.7 6.3v0.4l76.7-6.4v-0.3" fill="#72a2bc"/>
    <path d="m11440 10031-76.7 6.4v0.3l76.7-6.3v-0.4" fill="#72a2bc"/>
    <path d="m11440 10031-76.7 6.3v0.4l76.7-6.4v-0.3" fill="#72a3bc"/>
    <g fill="#73a3bd">
     <path d="m11440 10030-76.7 6.4v0.3l76.7-6.3v-0.4"/>
     <path d="m11440 10030-76.7 6.3v0.4l76.7-6.4v-0.3"/>
     <path d="m11440 10030-76.7 6.4v0.3l76.7-6.3v-0.4"/>
    </g>
    <path d="m11440 10029-76.7 6.3v0.4l76.7-6.4v-0.3" fill="#73a4be"/>
    <path d="m11440 10029-76.7 6.4v0.3l76.7-6.3v-0.4" fill="#73a4be"/>
    <path d="m11440 10028-76.7 6.4v0.4l76.7-6.4v-0.4" fill="#74a4be"/>
    <g fill="#74a5bf">
     <path d="m11440 10028-76.7 6.3v0.4l76.7-6.4v-0.3"/>
     <path d="m11440 10028-76.7 6.4v0.3l76.7-6.3v-0.4"/>
     <path d="m11440 10027-76.7 6.3v0.4l76.7-6.4v-0.3"/>
     <path d="m11440 10027-76.7 6.4v0.3l76.7-6.3v-0.4"/>
    </g>
    <path d="m11440 10027-76.7 6.3v0.4l76.7-6.4v-0.3" fill="#74a6c0"/>
    <g fill="#75a6c0">
     <path d="m11440 10026-76.7 6.4v0.3l76.7-6.3v-0.4"/>
     <path d="m11440 10026-76.7 6.3v0.4l76.7-6.4v-0.3"/>
     <path d="m11440 10026-76.7 6.4v0.3l76.7-6.3v-0.4"/>
    </g>
    <path d="m11440 10025-76.7 6.3v0.4l76.7-6.4v-0.3" fill="#75a6c1"/>
    <g fill="#75a7c1">
     <path d="m11440 10025-76.7 6.4v0.3l76.7-6.3v-0.4"/>
     <path d="m11440 10024-76.7 6.4v0.4l76.7-6.4v-0.4"/>
     <path d="m11440 10024-76.7 6.4v0.3l76.7-6.4v-0.3"/>
    </g>
    <path d="m11439 10024-75.7 6.3v0.4l76.7-6.4v-0.3h-1" fill="#76a7c2"/>
    <path d="m11435 10024-71.5 5.9v0.4l75.7-6.3h-4.2" fill="#76a7c2"/>
    <g fill="#76a8c2">
     <path d="m11430 10024-67.2 5.6v0.3l71.5-5.9h-4.3"/>
     <path d="m11426 10024-62.9 5.2v0.4l67.2-5.6h-4.3"/>
     <path d="m11422 10024-58.6 4.9v0.3l62.9-5.2h-4.3"/>
    </g>
    <g fill="#76a8c3">
     <path d="m11418 10024-54.4 4.5v0.4l58.6-4.9h-4.2"/>
     <path d="m11413 10024-50.1 4.2v0.3l54.4-4.5h-4.3"/>
     <path d="m11409 10024-45.8 3.8v0.4l50.1-4.2h-4.3"/>
    </g>
    <path d="m11405 10024-41.5 3.5v0.3l45.8-3.8h-4.3" fill="#76a9c3"/>
    <path d="m11400 10024-37.2 3.1v0.4l41.5-3.5h-4.3" fill="#77a9c3"/>
    <g fill="#77a9c4">
     <path d="m11396 10024-33 2.7v0.4l37.2-3.1h-4.2"/>
     <path d="m11392 10024-28.7 2.4v0.3l33-2.7h-4.3"/>
     <path d="m11388 10024-24.4 2v0.4l28.7-2.4h-4.3"/>
     <path d="m11383 10024-20.1 1.7v0.3l24.4-2h-4.3"/>
     <path d="m11379 10024-15.8 1.3v0.4l20.1-1.7h-4.3"/>
    </g>
    <path d="m11375 10024-11.6 1v0.3l15.8-1.3h-4.2" fill="#77aac4"/>
   </g>
  </g>
  <g>
   <path d="m74.694 123.57c-0.381-0.0317-0.67381-0.41628-0.63853-0.83608 0.0353-0.42334 0.38453-0.75495 0.76906-0.7232 0.381 0.0317 0.67027 0.41628 0.63852 0.83961-0.0353 0.41981-0.38805 0.75142-0.76905 0.71967" fill="#81c0cf"/>
   <path d="m74.729 123.42c-0.26812-0.0212-0.54328-0.31398-0.51153-0.67028 0.0282-0.35984 0.34572-0.60325 0.61383-0.57856 0.26458 0.0212 0.53975 0.31397 0.508 0.67028-0.0282 0.35983-0.34572 0.59972-0.6103 0.57856" fill="#1f1712"/>
   <path d="m74.514 122.54c-0.01061 0.127-0.14464 0.22225-0.29633 0.21167-0.15522-0.0141-0.26811-0.13053-0.25753-0.25753 0.01061-0.13053 0.14111-0.22578 0.29281-0.21167 0.15522 0.0106 0.27163 0.127 0.26105 0.25753" fill="#fff"/>
   <path d="m75.367 123.28c-4e-3 0.0635-0.0705 0.11289-0.14816 0.10583-0.0741-7e-3 -0.13406-0.0635-0.127-0.13052 4e-3 -0.0635 0.0705-0.10936 0.14816-0.10584 0.0741 7e-3 0.13406 0.0635 0.127 0.13053" fill="#fff"/>
   <path d="m59.147 123.88c0.57856-0.94191 1.4781-0.5468 1.7039-0.34219 0.23636 0.22225 0.42686 0.51858 0.28575 1.0724-0.0776 0.31398-0.4057 0.34079-0.32103 0.81598 0.0917 0.53128 0.33867 0.5648 0.47978 0.68368 0.13758 0.11818 0.31397 0.20885 0.40216 0.43603 0.0847 0.22296 0.10231 0.46179 0.06 0.6664-0.0917 0.38453-0.64912 0.0861-1.0231-0.0825-0.24694-0.11006-1.0301-0.76658-1.2312-0.98425-0.49742-0.55915-0.74084-1.6376-0.35631-2.2655" fill="#eaada6"/>
   <path d="m71.279 128.09c0.20108-0.13652 0.44097-0.072 0.44097-0.072l-0.0106 0.0138c-0.0459 0.0808-0.32103 0.52-0.53623 0.51365 7e-3 -3e-3 -0.0494-0.0402-0.06-0.14605-0.0176-0.10407 0.067-0.24024 0.16581-0.30939" fill="#c18985"/>
   <path d="m81.77 113.37v4e-3c-1.1677-4.6672-5.9866-6.3606-5.9866-6.3606l0.41981 0.94544-1.7674-1.1536c2.4201-0.99483 4.4274 1.1818 4.4274 1.1818-0.96308-3.0727-3.8911-2.533-5.5704-1.9262l-0.53975-0.35278c1.8556-2.9457-2.5047-3.4466-2.5047-3.4466 3.5525 1.0442 1.3935 3.0939 0.74789 3.623-0.0529-0.0176-0.10937-0.0353-0.16581-0.0529-0.0388-3.7359-4.4097-4.3427-4.4097-4.3427 3.3408 1.2559 2.2719 3.302 1.7886 3.9899-0.27164 0.0212-0.51153 0.06-0.70908 0.10584-1.4429-0.54328-0.90311-2.5964-0.90311-2.5964-1.6651 1.2418-1.4429 2.7693-1.1677 3.5595-0.0564 0.0212-0.11641 0.0423-0.17286 0.0635-0.10583 0.0423-0.20814 0.0882-0.30692 0.13405-0.61383-0.0882-1.2665-0.23988-1.9368-0.48683 0 0 0.42334 0.45156 1.1395 0.89958-0.55386 0.33514-0.98425 0.70909-1.3511 1.083-0.86431 0.0282-1.845-0.0529-2.8963-0.34572 0 0 0.63853 0.5715 1.6369 1.0089 0.15522 0.0741 0.32103 0.14817 0.50095 0.21873-0.1905 0.23636-0.37042 0.46566-0.56092 0.68086-0.83961 0.20814-1.8203 0.33514-2.9245 0.26811 0 0 0.24342 0.13405 0.64558 0.2928 0.2787 0.11995 0.69145 0.27164 1.1818 0.39159-0.21167 0.127-0.4445 0.23636-0.71614 0.32103-1.1536 0.36688-1.9085 0.32455-2.3777 0.18697-0.30339-0.14111-0.42333-0.30339-0.42333-0.30339s0.0494 0.0741 0.13405 0.1905c-0.27869-0.13758-0.38805-0.28928-0.38805-0.28928s0.71966 1.1818 2.0249 1.5734c0.32103 0.127 0.68086 0.21167 1.0795 0.21167h0.0423c-0.10583 0.29633-0.45155 1.277-0.65264 2.2507-0.54327 0.19755-1.143 0.36336-1.8098 0.46919 0 0 0.0953 0.0282 0.26106 0.0635h-7e-3s0.5962 0.17286 1.4358 0.21873l-0.0106 0.0741c-0.13406 1.3829 0.28575 2.3283 0.41627 4.9107 0.10937 2.2119 0.70909 1.0795 1.4252 2.7093 0.10936 0.23989 0.16933 0.49389 0.20461 0.70555 0 0.0141 0.0141 0.18697 0.0459 0.381 4e-3 0.0423 4e-3 0.0706 4e-3 0.0706h7e-3c0.0847 0.43533 0.26811 0.89006 0.65264-0.0847 0.067-0.1658 0.067-0.70908 0.067-0.70908h-4e-3c0.17286-0.635 0.25047-1.6298-0.0176-2.921-0.067-0.31397-0.0494-0.80433 0.0423-1.3723v-4e-3l4e-3 -0.0141c0.11289-0.68439 0.33514-1.4781 0.68439-2.2401 0 0 0.10936-0.27516 0.32456-0.66322 0.0353-0.0635 0.0776-0.13405 0.11641-0.20108v7e-3c1.0689-1.8415 2.1308-1.4076 2.1308-1.4076-2.8116 1.0231-2.0108 12.941-2.0002 13.109 0.0176 0.18556 0.0282 0.29563 0.0282 0.29563 0.0917-2.2592 0.53975-4.2108 1.1712-5.8759 0.70555 1.9226 1.4288 3.2445 1.4288 3.2445-0.47978-2.479-0.44803-4.4122-0.1517-5.9221 1.2771-2.159 2.7693-3.5983 3.743-4.3956 0.11995 0.18344 0.27517 0.39158 0.4692 0.6103-1.457 3.5278-1.5381 7.7505-1.5381 7.7505 1.0442-3.1926 2.1449-5.2634 3.2314-6.5581 0.29634 0.11642 0.62089 0.21167 0.9772 0.26106l1.1112 0.15875c-0.40922 0.9278-0.78317 2.2119-1.0901 3.9617 0 0 0.9137-2.4765 2.54-3.7571l3.937 0.55386c0.0635 0.62089 0.0635 1.3053-4e-3 2.0602-0.16581 1.898-0.10584 2.8857 4e-3 3.4078l0.01061 0.0423c0.0423 0.18344 0.0917 0.30339 0.13758 0.381 0.0811 0.15522 0.19756 0.26458 0.34572 0.14464l0.0141 3e-3c0.0388 0 0.06-0.0388 0.0776-0.10231 0.27869-0.38453 0.38452-1.0089 0.4198-1.3194 1.0689-1.3935 3.3091-5.0447 1.8274-9.5744" fill="#24455c"/>
   <path d="m61.99 119.41v3e-3l4e-3 -0.0176z" fill="#3f3a37"/>
   <path d="m77.502 138.72c-0.72672-0.11853-1.2171-0.11677-1.2171-0.11677-0.27164 0-0.51506-0.0695-0.72673-0.18944l-0.01061-5e-3c-0.0741-0.0452-0.14464-0.0974-0.21872-0.15487l-0.0635 0.0582c-5.0094 4.6609-9.8778 0.10195-9.8778 0.10195-0.0494-0.0956-0.0988-0.14781-0.127-0.16016-0.0741 0.0575-0.14464 0.10971-0.21167 0.15487l-0.0106 5e-3c-0.21872 0.11995-0.46214 0.18944-0.73378 0.18944 0 0-0.46214 0.0184-1.1606 0.15346 1.3935 1.7466 7.5424 8.4102 14.358-0.0367" fill="#a65b6f"/>
   <path d="m80.172 146.99h3.8276c-0.13406-0.93169-1.0548-5.0151-1.6334-5.6991-1.4746-1.7448-3.5595-2.3527-4.8648-2.5658-6.8157 8.4469-12.965 1.7833-14.358 0.0367-1.27 0.24518-3.3338 0.88089-4.9248 2.5291-0.65969 0.67909-1.4534 4.1712-2.0285 5.6991h4.2333c0.0317 1.8189-0.0459 0.66993-0.11642 1.4055h19.974c-0.0741-0.73554-0.14817 0.41345-0.10936-1.4055" fill="#69323f"/>
  </g>
 </g>
</svg>
