<?xml version="1.0" encoding="UTF-8"?>
<!-- Created with Inkscape (http://www.inkscape.org/) -->
<svg width="46.802mm" height="47.037mm" version="1.1" viewBox="0 0 46.802 47.037" xmlns="http://www.w3.org/2000/svg" xmlns:cc="http://creativecommons.org/ns#" xmlns:dc="http://purl.org/dc/elements/1.1/" xmlns:rdf="http://www.w3.org/1999/02/22-rdf-syntax-ns#">
 <defs>
  <clipPath id="e">
   <path d="m10070 4770.1c2.8 8.12 8.8 14.7 16.7 17.93 0.8 0.02 1.5 0.05 2.3 0.08 5.7-0.27 11.5-0.24 17.2-1.03 2.1-0.24 4.2-0.5 6.3-0.81 6.2-3.48 11.1-9.06 13.9-15.86-7.2 1.52-14 2.38-20.4 2.76-2.5 1.63-5.4 2.57-8.3 2.57-0.3 0-0.6-0.01-1-0.04-2.6-0.18-5-1.12-7.1-2.62-7.3-0.52-13.9-1.62-19.6-2.98"/>
  </clipPath>
  <linearGradient id="a" x2="1" gradientTransform="matrix(5.1789 -62.713 62.713 5.1789 10096 4782.7)" gradientUnits="userSpaceOnUse">
   <stop stop-color="#52565d" offset="0"/>
   <stop stop-color="#8b9aa4" offset=".50042"/>
   <stop stop-color="#8b9aa4" offset="1"/>
  </linearGradient>
  <clipPath id="f">
   <path d="m10099 4728.4c-15.6 0-29.1 12.43-30.7 28.71-0.4 4.57 0.2 8.97 1.5 13 5.7 1.36 12.3 2.46 19.6 2.98-1.5-1.08-2.9-2.46-4-4.05-2.7-0.51-4.9-2.53-5.1-5.09-0.2-1.64 0.5-3.18 1.7-4.31-0.1-1.26-0.1-2.56 0-3.87 0.9-9.81 8.6-17.65 17.1-17.66 0.3 0 0.6 0.02 1 0.04 3.6 0.26 6.8 1.94 9.3 4.53l0.1-0.01c1.7 0 3.1 1.14 3.2 2.6 0.1 0.54 0 1.06-0.3 1.51 1.7 3.28 2.6 7.22 2.2 11.33-0.6 6.41-4.1 11.98-8.8 15.07 6.4-0.38 13.2-1.24 20.4-2.76 1.1-2.8 1.8-5.81 2.1-8.96 1.6-17-10.5-31.78-27.1-32.98-0.7-0.05-1.5-0.08-2.2-0.08"/>
  </clipPath>
  <linearGradient id="b" x2="1" gradientTransform="matrix(5.1789 -62.713 62.713 5.1789 10096 4782.7)" gradientUnits="userSpaceOnUse">
   <stop stop-color="#4a535e" offset="0"/>
   <stop stop-color="#9bbacd" offset=".50042"/>
   <stop stop-color="#9bbacd" offset="1"/>
  </linearGradient>
  <clipPath id="g">
   <path d="m9837.3 4770.8c-6.74 1.89-14.8 3.5-23.99 4.16-0.75 0.19-1.52 0.32-2.31 0.38-0.32 0.02-0.65 0.03-0.98 0.03-0.65 0-1.3-0.05-1.94-0.14-1.26 0.04-2.55 0.06-3.85 0.06-6.6 0-13.69-0.51-21.19-1.74 3.23 5.95 8.22 10.71 14.15 13.55 0.23 0.02 0.45 0.05 0.67 0.07 5.71 0.81 11.45 0.79 17.18 1.06 1.77-0.08 3.55-0.11 5.33-0.15 7.81-3.03 13.92-9.36 16.93-17.28"/>
  </clipPath>
  <linearGradient id="c" x2="1" gradientTransform="matrix(-5.2436 -63.497 -63.497 5.2436 9811.2 4782.4)" gradientUnits="userSpaceOnUse">
   <stop stop-color="#52565d" offset="0"/>
   <stop stop-color="#8b9aa4" offset=".50042"/>
   <stop stop-color="#8b9aa4" offset="1"/>
  </linearGradient>
  <clipPath id="h">
   <path d="m9808.5 4727.5c-0.73 0-1.46 0.03-2.19 0.08-16.59 1.22-28.71 16.18-27.12 33.39 0.43 4.58 1.77 8.86 3.84 12.65 7.5 1.23 14.59 1.74 21.19 1.74 1.3 0 2.59-0.02 3.85-0.06-4.11-0.59-7.92-3-10.7-6.52h-0.17c-3.33 0-6.16-2.28-6.44-5.29-0.17-1.9 0.74-3.69 2.27-4.85-0.05-0.35-0.09-0.7-0.12-1.05-0.95-10.32 5.7-19.57 14.55-20.21 0.33-0.02 0.65-0.03 0.98-0.03 4 0 7.83 1.77 10.85 4.68 0.15-0.03 0.31-0.05 0.46-0.07 0.1 0 0.19-0.01 0.28-0.01 1.65 0 3.05 1.16 3.18 2.61 0.06 0.67-0.13 1.3-0.5 1.82 1.52 2.6 2.53 5.61 2.84 8.83 0.84 9.37-4.6 17.89-12.25 19.82 9.19-0.66 17.25-2.27 23.99-4.16 1.66-4.38 2.38-9.24 1.9-14.31-1.52-16.46-15.04-29.06-30.69-29.06"/>
  </clipPath>
  <linearGradient id="d" x2="1" gradientTransform="matrix(-5.2436 -63.497 -63.497 5.2436 9811.2 4782.4)" gradientUnits="userSpaceOnUse">
   <stop stop-color="#4a535e" offset="0"/>
   <stop stop-color="#9bbacd" offset=".50042"/>
   <stop stop-color="#9bbacd" offset="1"/>
  </linearGradient>
 </defs>
 <metadata>
  <rdf:RDF>
   <cc:Work rdf:about="">
    <dc:format>image/svg+xml</dc:format>
    <dc:type rdf:resource="http://purl.org/dc/dcmitype/StillImage"/>
    <dc:title/>
   </cc:Work>
  </rdf:RDF>
 </metadata>
 <g transform="translate(-115.79 -144.53)">
  <g>
   <path d="m115.79 191.57h46.802v-47.037h-46.802z" fill="#f8a01f"/>
   <path d="m155.28 191.57h-31.922c0-0.11994 9e-3 -0.23989 9e-3 -0.35278 0 0 0.0716-3.87 0.2473-4.2072 0.33549-1.3487-0.26388-1.9664 2.1008-3.2678 0.0321-8e-3 0.55104-0.15204 1.3187-0.37712 1.6133-0.46496 4.3529-1.2679 5.7753-1.8306h8e-3l8e-3 -8e-3c0.31926-0.13618 0.58279-0.24836 0.73483-0.34467l8e-3 -8e-3c0.0395-0.0247 0.0639-0.0409 0.0794-0.0646l0.0561-0.0564 0.0642-0.0642c0.0476-0.22436 0.70273-1.1885 0.94227-2.2479l0.0243-0.0399c0.0561-0.21661 0.0794-0.4258 0.096-0.64312 8e-3 -0.34501 0.024-0.69003 0.024-0.99483 8e-3 -0.17639 0.0155-0.33796 0.0155-0.49001 0-0.0642 0-0.12876 8e-3 -0.18485 0-0.0646 9e-3 -0.11995 9e-3 -0.17569v-0.0487c8e-3 -0.14429 8e-3 -0.26494 8e-3 -0.35278 8e-3 -0.0974 8e-3 -0.15275 8e-3 -0.15275s-3.6509-2.7302-3.6509-3.3235c0 0 3.8188 0.58561 6.295 0.85831 0.0483 9e-3 0.0959 9e-3 0.14429 0.0166 0.16756 0.0155 0.31891 0.0399 0.46319 0.0564 8e-3 0 0.0321 0 0.0797 8e-3 0.2159 0.0159 0.40711 0.0314 0.58349 0.0476 0.11148 8e-3 0.2152 0.0166 0.30375 0.0166 0.0716 0.0159 0.13546 0.0159 0.20743 8e-3 0.0395 0 0.0794 8e-3 0.11994 0 0.0953-8e-3 0.21555-8e-3 0.34326-0.0162l0.0243-8e-3c0.28681-0.0162 0.64664-0.0554 1.046-0.10407 0.0321 0 0.0642-8e-3 0.0956-8e-3h7e-3c2.4694-0.26494 6.417-0.87489 6.417-0.87489 0 0.59337-3.6371 3.3235-3.6371 3.3235s0 0.0554 0.0106 0.15275c0 0.0476 0 0.10337 7e-3 0.16757v0.2088c0 0.11289 7e-3 0.2413 7e-3 0.37782 0.0176 0.41699 0.0317 0.93945 0.0494 1.4848 7e-3 0.11289 7e-3 0.21731 0.0247 0.32138 0.0141 0.10443 0.0388 0.2085 0.0635 0.32138l7e-3 8e-3 7e-3 0.0155v8e-3c0.23283 1.0679 0.90311 2.0401 0.95956 2.2645l7e-3 0.0243 0.0494 0.0399 0.0459 0.0564c0.0564 0.048 0.13759 0.0956 0.25047 0.15205 0.0388 0.0166 0.0635 0.0332 0.10231 0.0487h7e-3c1.1606 0.55351 4.4097 1.517 6.2653 2.0549 0.77258 0.22508 1.2841 0.36936 1.3159 0.37712 2.3812 1.3014 1.7674 1.9191 2.1026 3.2678 0.18345 0.33726 0.24695 4.2072 0.24695 4.2072 0 0.11289 0 0.23284 7e-3 0.35278" fill="#151415"/>
   <path d="m155.83 191.44v0.0974l-0.0459 0.0314h-32.89l-0.0476-0.0314v-0.0974s0.0794-3.9977 0.2473-4.3427c0.35983-1.397-0.26353-2.0313 2.189-3.3796 0.0243-8e-3 0.55951-0.16087 1.3582-0.3937 1.6774-0.47378 4.5208-1.3173 5.9831-1.8944 0.0639 0.0314 0.12806 0.0723 0.19191 0.10372h8e-3c0.15205 0.0885 0.30339 0.16898 0.46355 0.2413 0.12771 0.0646 0.25576 0.12841 0.39158 0.1845 0.024 0.0162 0.0476 0.0317 0.0794 0.0399 0.0564 0.0243 0.10477 0.0564 0.16016 0.072h8e-3c0.13653 0.0646 0.27235 0.12065 0.41593 0.17745 0.16757 0.072 0.3429 0.13617 0.51082 0.19262 0.10371 0.0399 0.20849 0.0801 0.31185 0.11218l0.072 0.0243c0.21519 0.0801 0.43145 0.14429 0.65511 0.20073 0.21555 0.0642 0.43109 0.12065 0.65475 0.15981 0.10372 0.0332 0.2159 0.0565 0.31962 0.0723 0.18345 0.0406 0.3676 0.073 0.54328 0.097 0.14358 0.0236 0.29563 0.048 0.44767 0.0646 0.39088 0.0476 0.78246 0.0797 1.1818 0.0878 0.096 8e-3 0.18415 8e-3 0.2794 8e-3 0.86289 0.0162 1.7339-0.0564 2.63-0.22437 0.0635-8e-3 0.127-0.0243 0.19755-0.0406 0.41628-0.096 0.92075-0.27305 1.4076-0.49706 0.0882-0.0332 0.1658-0.0723 0.24694-0.11325 0.3422-0.16827 0.67028-0.35242 0.94192-0.55315 0.0564-0.0332 0.10583-0.0723 0.14464-0.10548 0.11994-0.0875 0.23283-0.18415 0.32102-0.2727 0.0317-0.0314 0.0635-0.0642 0.0847-0.0956l0.0494-0.0565 0.0317-0.0409 0.0494-0.072 0.0247-0.0399h7e-3c1.1007 0.56974 4.6249 1.5977 6.5722 2.1678 0.80081 0.23283 1.3511 0.38559 1.3758 0.3937 2.4624 1.3483 1.8203 1.9826 2.1802 3.3796 0.16933 0.34502 0.24694 4.3427 0.24694 4.3427" fill="#151415"/>
   <path d="m145.45 181.15c-0.48683 0.81386-2.4024 1.6849-3.5066 1.8927-0.88547 0.16545-1.7604 0.23988-2.6194 0.22436-2.3364-0.025-4.5903-0.67275-6.7045-1.8433 0.32209-0.13229 0.57821-0.24836 0.7426-0.34819 1.8997 0.92921 3.8978 1.4443 5.9708 1.4693 0.85867 8e-3 1.7357-0.0589 2.6176-0.23284 0.91722-0.17392 2.3777-0.78881 3.1291-1.452v8e-3l0.0564 0.0667 0.06 0.0589c0.0564 0.0494 0.14111 0.0995 0.254 0.15663" fill="#303a56"/>
   <path d="m143.92 178.7c-0.0529-0.21625-0.0811-0.4258-0.0917-0.64205-0.0247-0.72284 0.10231-1.688 0.0917-2.1378-1.3723 0.53763-2.9245 1.1264-4.3078 1.1264-0.0811 0.0141-0.18733 0.0141-0.28011 0.0141-0.0935 0-0.19897 0-0.28081-0.0141-1.3801 0-2.7908-0.31362-4.1635-0.85161-8e-3 0.45014-0.025 1.1402-0.0533 1.863-0.0102 0.21625-0.036 0.4258-0.0921 0.64205 1.3264 0.97155 3.1189 1.9752 4.3088 1.9752 0.0741 0.013 0.16616 0.0123 0.25012 0.013v3e-3l0.0307-1e-3 0.0303 1e-3v-3e-3c0.0857-7.9e-4 0.17639 0 0.24977-0.013 1.1899 0 2.9848-1.0037 4.3078-1.9752" fill="#303a56"/>
   <path d="m150.44 159.34c-0.0106 0.0723-0.0106 0.16863-0.0176 0.26494-0.0141 0.0963-0.0247 0.20038-0.0317 0.30515-0.0247 0.13653-0.0247 0.2727-0.0459 0.40146-0.0106 0.0639-0.0176 0.13653-0.0247 0.20073-0.0247 0.16016-0.0564 0.3048-0.0811 0.46532-7e-3 0.0642-0.0247 0.12841-0.0318 0.19297-0.0317 0.13581-0.0564 0.27234-0.10231 0.40886-0.0106 0.0727-0.0317 0.16934-0.0494 0.27341-0.0247 0.0723-0.0388 0.16086-0.0635 0.23283-0.0494 0.18521-0.27869 1.3487-0.57504 2.8335l-7e-3 8e-3c-0.30339 1.5018-0.67381 3.3479-0.9772 4.8172-0.0776 0.36936-0.15875 0.71437-0.22225 1.028-0.17639 0.762-0.31044 1.3166-0.38452 1.5085-0.58209 1.4778-4.3921 4.1914-6.8439 5.3548l-0.0318 8e-3c-0.51294 0.24871-0.97614 0.42581-1.3204 0.49813h-0.0155c-0.11995 0.0233-0.22366 0.0399-0.31221 0.0399h-0.0628l-0.0487-8e-3 -0.0476-9e-3c-0.0639-8e-3 -0.13547-0.0155-0.23143-0.0233-0.35207-0.0642-0.78316-0.22509-1.27-0.4424-0.0321-0.0236-0.0727-0.0392-0.12029-0.0557-2.5167-1.1398-6.2872-3.8855-6.87-5.3633-0.0723-0.1845-0.19967-0.72213-0.35207-1.4527-0.024-0.11994-0.0561-0.24059-0.0794-0.36936-0.0483-0.21625-0.0882-0.4579-0.13546-0.69779-0.29598-1.4778-0.6477-3.3401-0.9271-4.8581-0.28011-1.4767-0.4953-2.6324-0.54363-2.8176-0.0236-0.072-0.0399-0.16051-0.0639-0.23283-0.0155-0.10407-0.0399-0.20073-0.0557-0.27341-0.0395-0.13652-0.0639-0.27305-0.0956-0.40886-8e-3 -0.0646-0.0243-0.12877-0.0321-0.19297-0.0321-0.16052-0.0564-0.30516-0.0797-0.46532-0.0162-0.0642-0.0162-0.13688-0.024-0.20073-0.0243-0.12876-0.0321-0.26493-0.0483-0.40146-8e-3 -0.10477-0.0159-0.20884-0.0321-0.30515-8e-3 -0.0963-8e-3 -0.19262-0.0155-0.26494-0.10372-2.1036 0.34325-4.2393 1.7014-6.1658 1.6616-2.328 3.5627-4.801 7.693-5.1382h3.4844c4.1275 0.33726 6.029 2.8102 7.6835 5.1382 1.3652 1.9265 1.8133 4.0622 1.711 6.1658" fill="#facbc1"/>
   <path d="m137.49 170.85c-0.0367-0.75106 1.3737-0.27446 1.8387-0.25118 0.36724 0.019 1.4852-0.23601 1.5812-0.17074 0.65758 0.44626-0.69638 1.343-1.6044 1.343-0.24201 0-1.7939-0.46708-1.8154-0.9211" fill="#e9aca5"/>
   <path d="m136.99 162.72s-0.29386-0.21485-0.76094-0.44556c-0.23248-0.11713-0.51012-0.2346-0.81421-0.33197-0.15064-0.0522-0.31009-0.0924-0.47272-0.12876-0.16016-0.0476-0.3295-0.0617-0.49601-0.0893-0.16651-0.0275-0.33655-0.0293-0.50235-0.0462h-0.49178c-0.16051 0.0131-0.31573 0.0254-0.46249 0.0374-0.14816 0.0116-0.28539 0.0444-0.41592 0.06-0.26141 0.0296-0.47308 0.0914-0.62759 0.11818-0.15558 0.0279-0.24448 0.0437-0.24448 0.0437s0.0776-0.0455 0.21343-0.12558c0.13935-0.0734 0.33408-0.19756 0.59443-0.28082 0.12912-0.0437 0.26635-0.10653 0.42051-0.13828 0.15346-0.0335 0.31644-0.0734 0.48719-0.10055 0.17215-0.0123 0.35066-0.036 0.53305-0.0388 0.18203 0.012 0.36865 9e-3 0.55315 0.0349 0.18274 0.0349 0.36795 0.0572 0.54257 0.11395 0.17886 0.0423 0.34573 0.11077 0.50554 0.17851 0.16298 0.0603 0.30585 0.1531 0.4452 0.22648 0.1337 0.0861 0.26035 0.1651 0.36618 0.25435 0.43851 0.33761 0.62724 0.65829 0.62724 0.65829" fill="#482325"/>
   <path d="m131.48 164.31s0.86501 1.7265 2.1872 1.904c1.3226 0.1778 2.7291-0.0568 2.7291-0.0568s0.0194-1.9978-0.66852-2.279c-0.68827-0.28222-2.261-0.70802-4.2478 0.4318" fill="#fff"/>
   <path d="m134.15 165.55c-0.31221-0.0226-0.54681-0.3489-0.5133-0.71297 0.0342-0.36265 0.32597-0.65123 0.63783-0.62865 0.3115 0.0226 0.54645 0.3496 0.51364 0.71261-0.0342 0.36407-0.32632 0.65158-0.63817 0.62901" fill="#446676"/>
   <path d="m134.18 165.42c-0.21695-0.0155-0.4385-0.26247-0.41028-0.5715 0.0286-0.30798 0.29316-0.51964 0.51012-0.50412 0.21696 0.0166 0.43886 0.26423 0.41028 0.57256-0.0289 0.30797-0.29245 0.51964-0.51012 0.50306" fill="#191e22"/>
   <path d="m131.46 164.48c0.33655-0.24483 0.71261-0.43533 1.1035-0.5842 0.19614-0.072 0.39405-0.14253 0.59866-0.19121 0.10055-0.0303 0.20497-0.0455 0.30763-0.0681 0.10265-0.024 0.20672-0.0392 0.3115-0.0494 0.20884-0.0303 0.41945-0.0388 0.63077-0.0434 0.10548 3.7e-4 0.2106 0.01 0.31608 0.0145 0.10549 3e-3 0.21061 0.0127 0.31433 0.0328 0.20955 0.0272 0.41592 0.0713 0.61771 0.13405 0.20461 0.0512 0.39441 0.14746 0.59091 0.21872l0.012 4e-3 8e-3 9e-3c0.19509 0.21802 0.38559 0.44344 0.5327 0.69779-0.1905-0.22048-0.40922-0.41204-0.62018-0.60889l0.0205 0.0138c-0.19791-0.0536-0.387-0.13159-0.58808-0.1644-0.19862-0.043-0.39653-0.0836-0.59867-0.0991-0.20002-0.0317-0.40358-0.0261-0.60501-0.0346-0.20214 0.01-0.40464 9e-3 -0.60607 0.0374-0.40252 0.0444-0.80257 0.12523-1.1959 0.23812-0.39088 0.11889-0.77717 0.26141-1.1504 0.44274" fill="#e9aca5"/>
   <path d="m134.01 164.67c-0.0109 0.11113-0.11995 0.19438-0.24554 0.18486-0.12523-8e-3 -0.21766-0.10725-0.20778-0.21767 0.0102-0.11147 0.12029-0.19473 0.24482-0.18591 0.12559 9e-3 0.21802 0.10724 0.2085 0.21872" fill="#fff"/>
   <path d="m134.7 165.3c-5e-3 0.054-0.0593 0.0963-0.12206 0.0917-0.0631-5e-3 -0.10901-0.054-0.10442-0.109 6e-3 -0.0557 0.061-0.0974 0.12241-0.0931 0.0632 5e-3 0.10936 0.054 0.10407 0.11042" fill="#fff"/>
   <path d="m130.39 170.76h-8e-3l-0.0561 0.0392-0.0321 0.0243c-0.0476 0.0321-0.0882 0.0642-0.13582 0.0808l-0.0639 0.031c-0.16792 0.0886-0.32773 0.12101-0.47131 0.12101h-0.0483c-0.0554 0-0.11959-8e-3 -0.16757-0.0236h-0.0159c-0.10371-0.025-0.19191-0.0642-0.27128-0.11289-0.10407-0.0564-0.18415-0.12065-0.23989-0.16863l-0.0561-0.0476c-0.0317-0.0332-0.27976-0.3295-0.56692-0.71508-0.40746-0.53799-0.89499-1.2442-0.98319-1.5572-0.0871-0.34502-0.15981-0.73096-0.2473-1.1243-0.0561-0.26493-0.11218-0.62582-0.14358-1.0192-0.0801-1.1564 0.0314-2.5859 0.83891-2.5449 0.35101 0.0233 0.67098 0.22401 0.92675 0.48895 0.11147 0.10513 0.20743 0.22542 0.29492 0.34502 0.0804 0.10512 0.14428 0.21731 0.20814 0.32138 0.19967 0.33725 0.3115 0.61806 0.3115 0.61806l0.15205 0.85937 0.32702 1.8549 0.15205 0.89076 0.11148 0.61842 8e-3 0.0402 0.0321 0.18485 0.0155 0.10372 8e-3 0.0162 0.0642 0.34572 0.0561 0.32949" fill="#facbc1"/>
   <path d="m127.87 164.7s-0.37042 0.25471-0.387 0.59196c-0.0169 0.3369-0.018 0.6163-0.0801 0.68898-0.30198 0.34819 0.93133 3.303 0.93133 3.303s0.75036 0.9772 1.136 1.0054c0 0 0.0427-1.1818-0.7038-1.7776-0.24729-0.19896-0.28716-0.45473-0.33619-0.7179-0.14429-0.76694 0.22472-1.1589 0.22472-1.1589s0.0723-0.92675-0.0243-1.2146c-0.23389-0.69074-0.76058-0.72037-0.76058-0.72037" fill="#c2877c"/>
   <path d="m151.69 166.29c-0.0318 0.39335-0.0882 0.75424-0.14464 1.0192-0.0847 0.39335-0.15875 0.77929-0.24694 1.1243-0.0882 0.31291-0.57503 1.0192-0.99131 1.5572-0.27869 0.38558-0.52564 0.68192-0.55739 0.71508-0.0494 0.0399-0.15169 0.13617-0.29633 0.21625-0.0776 0.0487-0.17639 0.0878-0.27164 0.11289h-0.0141c-0.0494 0.0159-0.11289 0.0236-0.16933 0.0236h-0.0494c-0.14111 0-0.30339-0.0325-0.47625-0.12101l-0.0565-0.031c-0.0564-0.0243-0.11289-0.0646-0.17639-0.10513l-0.0317-0.0314-0.0176-8e-3h-7e-3l0.11994-0.67521v-0.0162l0.0247-0.10372 0.0318-0.18485 7e-3 -0.0487 0.10584-0.60995 0.15875-0.89076 0.32808-1.8549 0.15169-0.85937s0.10231-0.26493 0.29634-0.59372l7e-3 -8e-3c0.0635-0.11218 0.13406-0.22436 0.2152-0.33725 0.0882-0.11995 0.18344-0.23989 0.29633-0.34502 0.254-0.26494 0.57503-0.46567 0.92781-0.48895 0.80433-0.0409 0.91722 1.3885 0.83608 2.5449" fill="#facbc1"/>
   <path d="m150.71 164.7s0.37041 0.25471 0.38805 0.59196c0.0141 0.3369 0.0176 0.6163 0.0776 0.68898 0.30339 0.34819-0.93133 3.303-0.93133 3.303s-0.74789 0.9772-1.1359 1.0054c0 0-0.0423-1.1818 0.70555-1.7776 0.24695-0.19896 0.28575-0.45473 0.33514-0.7179 0.14464-0.76694-0.22578-1.1589-0.22578-1.1589s-0.0706-0.92675 0.0247-1.2146c0.23636-0.69074 0.762-0.72037 0.762-0.72037" fill="#c2877c"/>
   <path d="m141.49 162.74s0.1905-0.31891 0.63148-0.65335c0.10583-0.0885 0.23283-0.16651 0.36689-0.25188 0.14111-0.0723 0.28222-0.16475 0.4445-0.22366 0.16227-0.067 0.32808-0.13441 0.508-0.17604 0.17286-0.0561 0.3563-0.0776 0.53975-0.11218 0.18344-0.025 0.37041-0.0222 0.55386-0.0342 0.17991 4e-3 0.35983 0.0265 0.52916 0.0388 0.17286 0.0275 0.33514 0.0663 0.48684 0.0995 0.15522 0.0318 0.2928 0.0938 0.4198 0.13723 0.26106 0.0822 0.45509 0.20567 0.5962 0.27834 0.13405 0.0794 0.21166 0.12453 0.21166 0.12453s-0.0882-0.0155-0.24341-0.0427c-0.15523-0.0257-0.36689-0.0868-0.62795-0.11571-0.13053-0.0148-0.26458-0.0473-0.41275-0.0586-0.14816-0.0116-0.30339-0.024-0.46214-0.0367-0.16227 0-0.32455 0-0.49389 3.7e-4 -0.1658 0.0162-0.33513 0.0187-0.50094 0.0455-0.16581 0.0272-0.33514 0.0406-0.49742 0.0875-0.16227 0.036-0.32102 0.0748-0.47272 0.12665-0.30339 0.0956-0.57855 0.21167-0.81492 0.32667-0.46566 0.22754-0.762 0.43992-0.762 0.43992" fill="#482325"/>
   <path d="m147.02 164.41s-0.83608 1.6919-2.1555 1.8478c-1.3194 0.15698-2.7305-0.0963-2.7305-0.0963s-0.0529-1.9724 0.63147-2.2405c0.68439-0.26917 2.2507-0.66569 4.2545 0.48895" fill="#fff"/>
   <path d="m144.46 165.53c0.31045-0.0226 0.54681-0.34502 0.51153-0.70415-0.0317-0.35912-0.32455-0.64346-0.63853-0.62088-0.31044 0.0219-0.5468 0.34501-0.51152 0.70343 0.0317 0.35984 0.32455 0.64418 0.63852 0.6216" fill="#446676"/>
   <path d="m144.43 165.4c0.2152-0.0155 0.43745-0.25964 0.40922-0.56444-0.0282-0.30409-0.2928-0.51364-0.51152-0.49777-0.2152 0.0162-0.43745 0.26106-0.40923 0.56444 0.0282 0.30481 0.29281 0.5133 0.51153 0.49777" fill="#191e22"/>
   <path d="m147.01 164.47c-0.37394-0.17851-0.762-0.31927-1.1536-0.43639-0.39158-0.11112-0.79022-0.1905-1.1924-0.2346-0.20108-0.0279-0.40569-0.0268-0.60678-0.0363-0.20108 8e-3 -0.40569 2e-3 -0.60325 0.0342-0.20461 0.0148-0.40216 0.055-0.59972 0.0974-0.20108 0.0325-0.39158 0.10937-0.58914 0.16193l0.0212-0.0131c-0.21167 0.19367-0.43039 0.38206-0.62089 0.59937 0.14817-0.25118 0.33867-0.47378 0.5327-0.68933l7e-3 -9e-3 0.0141-4e-3c0.19756-0.0706 0.38806-0.16581 0.58914-0.21626 0.20461-0.0617 0.40922-0.10548 0.61736-0.13264 0.10584-0.0198 0.21167-0.0296 0.3175-0.0325 0.10231-4e-3 0.20814-0.0138 0.31397-0.0141 0.21167 5e-3 0.41981 0.0127 0.63148 0.0423 0.1023 0.0106 0.20814 0.025 0.31044 0.0487 0.10231 0.0226 0.20461 0.0374 0.30692 0.0674 0.20461 0.048 0.40216 0.11783 0.59972 0.18874 0.39158 0.1471 0.76553 0.33584 1.1042 0.5782" fill="#e9aca5"/>
   <path d="m144.21 164.65c-0.0106 0.10971-0.11995 0.19191-0.24342 0.18274-0.127-0.01-0.21872-0.10689-0.20814-0.21555 0.0106-0.11006 0.11995-0.19156 0.24342-0.18344 0.127 9e-3 0.21872 0.10583 0.20814 0.21625" fill="#fff"/>
   <path d="m144.9 165.28c-4e-3 0.0543-0.06 0.096-0.11994 0.0914-0.0635-5e-3 -0.10936-0.0536-0.10583-0.1083 7e-3 -0.054 0.06-0.0956 0.12347-0.091 0.0635 4e-3 0.10936 0.0526 0.1023 0.10795" fill="#fff"/>
   <path d="m139.9 175.03c-0.072-0.0243-0.14923-0.072-0.23954-0.0885-0.0974-8e-3 -0.19438-0.0155-0.29739-0.0236l-0.0356 6e-3 -0.036-6e-3c-0.10301 8e-3 -0.19968 0.0159-0.2974 0.0236-0.0903 0.0166-0.16756 0.0642-0.23918 0.0885-0.14217 0.0642-0.22648 0.12065-0.22648 0.12065s0.10301 0 0.24588-8e-3c0.14253-0.0236 0.32385-0.0402 0.51083-0.0236l0.0423-6e-3 0.042 6e-3c0.18733-0.0166 0.3683 0 0.51118 0.0236 0.14252 8e-3 0.24553 8e-3 0.24553 8e-3s-0.0843-0.0565-0.22613-0.12065" fill="#bd8b6f"/>
   <path d="m139.81 172.73c-0.12312 0.0166-0.28469 0.0409-0.43991 0.0409h-0.0843c-0.15523 0-0.3168-0.0243-0.43992-0.0409-0.12347-0.0155-0.20673-0.0155-0.20673-0.0155s0.0773 0.0321 0.19439 0.0801c0.12206 0.0321 0.28398 0.0808 0.45226 0.0963h0.0843c0.16863-0.0155 0.3302-0.0642 0.45261-0.0963 0.11677-0.048 0.19403-0.0801 0.19403-0.0801s-0.0832 0-0.20673 0.0155" fill="#bd8b6f"/>
   <path d="m141.96 173.5c-0.54328-0.11218-0.91017-0.2547-1.3977-0.23812-0.0554-8e-3 -0.8629 0.19826-1.1663 0.2547l-0.0476-0.0109v-6e-3l-0.0123 2e-3 -0.0127-2e-3v6e-3l-0.0476 0.0109c-0.30338-0.0564-1.0615-0.26105-1.1169-0.25329-0.48789-0.0162-0.90452 0.12453-1.4474 0.23671l0.0487 0.0243c0.90946 0.44521 1.6944 0.68439 2.5633 0.65794v7.9e-4l0.0127-7.9e-4 0.0123 7.9e-4v-7.9e-4c0.86924 0.0265 1.6556-0.21273 2.5622-0.65794l0.0494-0.0243" fill="#e9aca5"/>
   <path d="m142.66 173.45c-0.0459 8e-3 -0.11642 8e-3 -0.2152 8e-3 -0.18344-8e-3 -0.44802-0.0646-0.76552-0.0967-0.32103-0.0399-0.66323-0.16052-1.0629-0.21626-0.19968-0.0399-0.4632 0.0557-0.67099 0.11995-0.21449 0.0564-0.41345 0.0956-0.61136 0.0808-0.19826 0.0148-0.39723-0.0243-0.61172-0.0808-0.20743-0.0642-0.47131-0.15981-0.67098-0.11995-0.39934 0.0557-0.7426 0.17639-1.0626 0.21626-0.31891 0.0321-0.58279 0.0885-0.76623 0.0967-0.0967 0-0.16828 0-0.2159-8e-3l-0.0321-0.0162 0.0243 0.0243c0.0476 0.0243 0.127 0.0321 0.22366 0.0399 0.13582 9e-3 0.31926 0.0243 0.53552 0.0243 0.0716 0 0.15099 0 0.23918-8e-3 0.31926-0.0166 0.64699-0.0885 1.0308-0.12876l0.0395-8e-3c0.0885-0.0166 0.17568 0 0.27164 0.0236 0.11924 0.0243 0.23953 0.0727 0.35172 0.11289 0.19191 0.0617 0.40816 0.11289 0.63041 0.0956v8e-4l0.0127-8e-4 0.0123 8e-4v-8e-4c0.22225 0.0173 0.4385-0.0339 0.63041-0.0956 0.11254-0.0402 0.23248-0.0885 0.35172-0.11289 0.096-0.0236 0.18344-0.0402 0.27164-0.0236l0.0399 8e-3c0.38312 0.0402 0.7112 0.11218 1.0287 0.12876 0.0882 8e-3 0.16934 8e-3 0.23989 8e-3 0.21872 0 0.40217-0.0155 0.53622-0.0243 0.0988-8e-3 0.17639-0.0155 0.22578-0.0399l0.0212-0.0243-0.0317 0.0162" fill="#bd8b6f"/>
   <path d="m150.31 170.02c-0.27869 0.39052-0.52564 0.69003-0.55739 0.72284-0.0494 0.0409-0.15169 0.13829-0.29633 0.21978-0.0776 0.0483-0.17639 0.0892-0.27164 0.11359h-0.0141c-0.0494 0.0162-0.11289 0.0243-0.16933 0.0243h-0.0494c-0.14111 0-0.30339-0.0332-0.47625-0.12241l-0.0565-0.0321c-0.0564-0.0243-0.11289-0.0649-0.17639-0.10584l-0.0317-0.0321c-0.17639 0.77223-0.31044 1.3321-0.38452 1.5265-0.58209 1.4944-4.3921 4.239-6.8439 5.4162l-0.0318 9e-3c-0.51294 0.25083-0.97614 0.42968-1.3204 0.50342h-0.0155c-0.14323 0.0159-0.25577 0.0233-0.31221 0.0321v9e-3l-0.031-9e-3 -0.0162 9e-3h-0.0155v-9e-3h-0.0487l-0.0476-9e-3c-0.0639-7e-3 -0.13547-0.0155-0.23143-0.0233-0.35207-0.066-0.78316-0.22755-1.27-0.44697-0.0321-0.025-0.0727-0.0409-0.12029-0.0564-2.5167-1.1539-6.2872-3.931-6.87-5.4254-0.0723-0.18662-0.19967-0.7306-0.35207-1.4693-0.0473 0.0321-0.0878 0.0642-0.13547 0.0808l-0.0639 0.0321c-0.16792 0.0892-0.32773 0.12241-0.47131 0.12241h-0.0483c-0.0554 0-0.11959-8e-3 -0.16757-0.0243h-0.0159c-0.10371-0.0243-0.19191-0.0653-0.27128-0.11359-0.14464-0.0815-0.24836-0.17886-0.29598-0.21978-0.0317-0.0328-0.27976-0.33232-0.56692-0.72284 0.11924-0.0155 0.33514-0.0406 0.63112-0.072 0.15981-0.025 0.34326-0.0494 0.54293-0.0737 0.19967-0.0251 0.41592-0.0565 0.6477-0.0893 0.0395 0 0.0794-8e-3 0.127-0.0159 2.1414-0.29316 5.3291-0.51435 6.1997-1.2372 1.3981-1.1539 4.1381-1.2026 5.7528 0 0.90311 0.68157 4.064 0.91193 6.2054 1.2287l0.0635 8e-3c0.25753 0.0409 0.49742 0.0723 0.71261 0.10513 0.19756 0.0243 0.38453 0.0487 0.54328 0.0649 0.30339 0.0402 0.51859 0.0653 0.62089 0.0808" fill="#151415"/>
   <path d="m150.9 163.75c-0.35278 0.0233-0.44803-4.3356-0.44097-4.408 0.10583-2.1036-0.3422-4.2393-1.7004-6.1658-1.6616-2.328-3.5631-4.801-7.6941-5.1382h-3.5056c-4.1303 0.33726-6.0314 2.8102-7.693 5.1382-1.3582 1.9265-1.8052 4.0622-1.7014 6.1658 8e-3 0.0723-0.0882 4.4312-0.43956 4.408-0.80716-0.0409-0.91864 1.3885-0.83856 2.5449 0.0314 0.39335 0.0875 0.75424 0.14358 1.0192 0.0875 0.39335 0.16017 0.77929 0.2473 1.1243 0.0882 0.31291 0.57573 1.0192 0.98319 1.5572 0.28716 0.38558 0.53517 0.68192 0.56692 0.71508l0.0564 0.0476 1.3338-0.29704 0.1196-0.0236 0.62335-0.13617s-1.9255-8.0617-1.494-9.7956c0.41981-1.694 6.4008-1.597 9.7056-1.5459v5e-3c0.0444 0 0.0945-2e-3 0.14041-2e-3 0.0451 7.1e-4 0.0953 2e-3 0.1397 2e-3v-5e-3c3.3055-0.0511 9.2851-0.14816 9.7049 1.5459 0.43391 1.7339-1.4922 9.7956-1.4922 9.7956l0.62088 0.13617 0.11995 0.0236 1.3335 0.29704 0.0564-0.0476c0.0317-0.0332 0.28223-0.3295 0.56798-0.71508 0.40922-0.53799 0.89605-1.2442 0.98425-1.5572 0.0882-0.34502 0.15875-0.73096 0.24694-1.1243 0.0564-0.26493 0.11289-0.62582 0.14464-1.0192 0.0776-1.1564-0.0317-2.5859-0.83961-2.5449" fill="#151415"/>
   <path d="m147.84 169.64c-2.1026-0.32138-4.8401-0.83503-5.6656-1.4534-1.6207-1.1878-4.3603-1.1398-5.7588 0-0.78317 0.65088-3.4833 1.1649-5.5764 1.4612-0.43921-1.9428-1.7092-7.7146-1.3497-9.1521 0.42298-1.7018 6.4064-0.79445 9.706-0.74647v8e-3c0.0483 0 0.096-8e-3 0.14429-8e-3 0.0476 0 0.0959 8e-3 0.13546 8e-3v-8e-3c3.3059-0.048 9.2925-0.95533 9.7053 0.74647 0.35984 1.4376-0.89253 7.1938-1.3406 9.1444m2.1237-9.337c-0.35983-1.4453-2.3707-1.6461-4.2898-1.6461-1.1324 0-2.3883 0.0804-3.5948 0.16086-0.94898 0.0561-1.8609 0.11219-2.6123 0.12841h-0.25506c-0.75142-0.0162-1.6538-0.0723-2.6127-0.12841-1.2062-0.0804-2.4522-0.16086-3.5863-0.16086-1.9255 0-3.9391 0.20073-4.2986 1.6379-0.2794 1.1317 0.17639 4.3353 1.3504 9.5303 0.0797 0.3683 0.40711 0.62548 0.7747 0.62548 0.0399 0 0.0804 0 0.11219-8e-3 3.2036-0.45791 5.2162-1.0036 5.9676-1.6295 0.53517-0.44203 1.4058-0.69921 2.3326-0.69921 0.93451 0 1.8292 0.26529 2.4536 0.71508 0.48683 0.36936 1.644 0.93169 6.0149 1.6055 0.0388 8e-3 0.0882 8e-3 0.11995 8e-3 0.36689 0 0.69497-0.25718 0.78316-0.62583 0.66323-2.8907 1.718-7.9805 1.3406-9.5141" fill="#727c94"/>
   <path d="m130.84 169.64c-0.11148-0.49776-0.27905-1.2439-0.45402-2.1015-0.52741-2.5051-1.1663-5.9814-0.895-7.0489 0.20108-0.80892 1.6612-1.0276 3.4925-1.0276 0.64064 0 1.3261 0.0268 2.0193 0.0642 1.1825 0.0561 2.3809 0.1524 3.4195 0.19297 0.27023 0.0159 0.52494 0.0236 0.77153 0.024v6e-3h3e-3v1e-3c0.0483 0 0.0956-8e-3 0.14429-8e-3 0.0476 0 0.0956 8e-3 0.13582 8e-3v-8e-3c1.7113-0.0222 4.1243-0.28011 6.121-0.28011 0.18344 0 0.36336 2e-3 0.53975 7e-3h0.0106c1.21 0.0254 2.2084 0.16933 2.7058 0.5528 0.15522 0.14005 0.26105 0.29739 0.30339 0.47449 0.3563 1.4305-0.89253 7.1688-1.3406 9.1324-2.0461-0.31397-4.6919-0.80927-5.5809-1.4062-0.0212-0.0141-0.0388-0.0286-0.06-0.043-0.23989-0.17639-0.50094-0.32914-0.79022-0.44908-0.0317-0.0138-0.0635-0.0272-0.0953-0.0402-0.635-0.25859-1.3469-0.38523-2.0479-0.38523-1.0739 0-2.1223 0.29739-2.8289 0.87312-0.36019 0.29951-1.1268 0.57009-2.0528 0.80363-0.4572 0.11395-0.95356 0.21907-1.4591 0.31432-0.50095 0.0984-1.0096 0.1838-1.5004 0.26035-0.1905 0.0293-0.37853 0.0568-0.56162 0.0825m11.294-3.4844v5e-3s0.82197 0.14781 1.7992 0.14781c0.30339 0 0.62089-0.0141 0.93133-0.0515 1.1889-0.14041 1.9826-1.5244 2.1308-1.8002 7e-3 3e-3 0.0141 6e-3 0.0212 0.01-7e-3 -4e-3 -0.0106-8e-3 -0.0176-0.0127 0.0141-0.0286 0.0212-0.0445 0.0212-0.0445v-7.2e-4 -4e-3c-0.30691-0.17674-0.60325-0.3175-0.889-0.42792-0.0706-0.031-0.14464-0.0607-0.21872-0.0885-0.19756-0.0709-0.39511-0.14076-0.59972-0.18874-0.10231-0.03-0.20461-0.0448-0.30692-0.0674-0.1023-0.0236-0.20814-0.0381-0.31044-0.0487-0.21167-0.0296-0.41981-0.0377-0.63148-0.0423-0.10583 3.5e-4 -0.21166 0.01-0.31397 0.0141-0.10583 3e-3 -0.21166 0.0127-0.3175 0.0325-0.20814 0.0272-0.41275 0.0709-0.61736 0.13264-0.20108 0.0505-0.39158 0.1457-0.58914 0.21626l-0.0141 4e-3 -7e-3 9e-3c-0.19403 0.21555-0.38453 0.43815-0.5327 0.68932 0.18697-0.21307 0.40217-0.39863 0.60678-0.58844 0.16933-0.0455 0.33161-0.10795 0.50094-0.14464-4e-3 2e-3 -7e-3 4e-3 -0.0141 6e-3 -0.68439 0.26952-0.63147 2.244-0.63147 2.244m-10.586-1.7237c0.23036 0.40287 1.0153 1.6277 2.1174 1.7755 0.36371 0.0487 0.73378 0.0663 1.0792 0.0667 0.91052 0 1.6499-0.12347 1.6499-0.12347v-5e-3h1e-3s0.0169-1.7371-0.53905-2.2024c0.1143 0.0342 0.22755 0.0741 0.34361 0.10583 0.20708 0.19297 0.42157 0.38135 0.60819 0.5976-0.14711-0.25435-0.33761-0.47977-0.5327-0.69779l-8e-3 -9e-3 -0.012-4e-3c-0.1965-0.0713-0.3863-0.16756-0.59091-0.21872-0.20179-0.0628-0.40816-0.10689-0.61771-0.13405-0.10372-0.0201-0.20884-0.03-0.31433-0.0328-0.10548-5e-3 -0.2106-0.0141-0.31608-0.0145-0.10125 2e-3 -0.20215 5e-3 -0.30269 0.0113h-0.0123c-0.7292 0-1.6238 0.17886-2.6229 0.75248 0 0 7.1e-4 1e-3 2e-3 4e-3 -1e-3 3.4e-4 -2e-3 6.9e-4 -2e-3 1e-3 0 0 0.0212 0.0423 0.0621 0.11466-0.0254 0.0173-0.0505 0.0353-0.0755 0.0533 0.0279-0.0134 0.0554-0.0268 0.0833-0.0395m12.988-3.1517c-0.18345 0.012-0.37042 9e-3 -0.55386 0.0342-0.18345 0.0346-0.36689 0.0561-0.53975 0.11218-0.17992 0.0416-0.34573 0.10901-0.508 0.17604-0.16228 0.0589-0.30339 0.15134-0.4445 0.22366-0.13406 0.0854-0.26106 0.16334-0.36689 0.25188-0.44098 0.33444-0.63148 0.65335-0.63148 0.65335s0.29634-0.21238 0.762-0.43992c0.23637-0.115 0.51153-0.23107 0.81492-0.32667 0.1517-0.0519 0.31045-0.0907 0.47272-0.12665 0.16228-0.0469 0.33161-0.0603 0.49742-0.0875 0.16581-0.0268 0.33514-0.0293 0.50094-0.0455 0.16934-3.8e-4 0.33162-3.8e-4 0.49389-3.8e-4 0.15875 0.0127 0.31398 0.025 0.46214 0.0367 0.14817 0.0113 0.28222 0.0438 0.41275 0.0586 0.26106 0.0289 0.47272 0.09 0.62795 0.11571 0.15522 0.0272 0.24341 0.0427 0.24341 0.0427s-0.0776-0.0451-0.21166-0.12453c-0.14111-0.0727-0.33514-0.19614-0.5962-0.27834-0.127-0.0434-0.26458-0.10548-0.4198-0.13723-0.1517-0.0332-0.31398-0.072-0.48684-0.0995-0.16933-0.0123-0.34925-0.0353-0.52916-0.0388m-7.548 1.4333s-0.18873-0.32067-0.62724-0.65829c-0.10584-0.0892-0.23249-0.16826-0.36619-0.25434-0.13935-0.0734-0.28222-0.16616-0.4452-0.22648-0.15981-0.0677-0.32668-0.13618-0.50554-0.17851-0.17462-0.0568-0.35983-0.079-0.54257-0.11395-0.1845-0.0257-0.37112-0.0229-0.55315-0.0349-0.18239 3e-3 -0.3609 0.0265-0.53305 0.0388-0.17075 0.0272-0.33373 0.067-0.48719 0.10055-0.15416 0.0317-0.29139 0.0945-0.42051 0.13828-0.26035 0.0833-0.45508 0.20744-0.59443 0.28082-0.13582 0.0801-0.21343 0.12558-0.21343 0.12558s0.0889-0.0159 0.24448-0.0437c0.15451-0.0268 0.36618-0.0885 0.62759-0.11818 0.13053-0.0155 0.26776-0.0483 0.41592-0.06 0.14676-0.012 0.30198-0.0243 0.46249-0.0374h0.49178c0.1658 0.0169 0.33584 0.0187 0.50235 0.0462s0.33585 0.0416 0.49601 0.0893c0.16263 0.0363 0.32208 0.0765 0.47272 0.12876 0.30409 0.0974 0.58173 0.21484 0.81421 0.33197 0.46708 0.23071 0.76094 0.44556 0.76094 0.44556" fill="#f7d3cc"/>
   <path d="m136.99 162.72s-0.29386-0.21485-0.76094-0.44556c-0.23248-0.11713-0.51012-0.2346-0.81421-0.33197-0.15064-0.0522-0.31009-0.0924-0.47272-0.12876-0.16016-0.0476-0.3295-0.0617-0.49601-0.0893-0.16651-0.0275-0.33655-0.0293-0.50235-0.0462h-0.49178c-0.16051 0.0131-0.31573 0.0254-0.46249 0.0374-0.14816 0.0116-0.28539 0.0444-0.41592 0.06-0.26141 0.0296-0.47308 0.0914-0.62759 0.11818-0.15558 0.0279-0.24448 0.0437-0.24448 0.0437s0.0776-0.0455 0.21343-0.12558c0.13935-0.0734 0.33408-0.19756 0.59443-0.28082 0.12912-0.0437 0.26635-0.10653 0.42051-0.13828 0.15346-0.0335 0.31644-0.0734 0.48719-0.10055 0.17215-0.0123 0.35066-0.036 0.53305-0.0388 0.18203 0.012 0.36865 9e-3 0.55315 0.0349 0.18274 0.0349 0.36795 0.0572 0.54257 0.11395 0.17886 0.0423 0.34573 0.11077 0.50554 0.17851 0.16298 0.0603 0.30585 0.1531 0.4452 0.22648 0.1337 0.0861 0.26035 0.1651 0.36618 0.25435 0.43851 0.33761 0.62724 0.65829 0.62724 0.65829" fill="#6f4848"/>
   <path d="m134.74 166.28c-0.34537-3.4e-4 -0.71544-0.018-1.0792-0.0667-1.1021-0.14782-1.887-1.3727-2.1174-1.7755 3.4e-4 -3.7e-4 1e-3 -7.1e-4 1e-3 -7.1e-4 0.0476 0.084 0.11924 0.20285 0.21343 0.33796 0.54751-0.26882 1.0594-0.42227 1.5254-0.49812-0.073 0.1337-0.1203 0.28469-0.13547 0.44626-0.0561 0.60713 0.37148 1.1349 0.95674 1.1779 0.0258 2e-3 0.0515 3e-3 0.0773 3e-3 0.5521 0 1.0291-0.4445 1.0827-1.0252 0.0169-0.17886-8e-3 -0.35031-0.067-0.50483 0.18168 0.0508 0.33655 0.1076 0.46108 0.15981 0.42898 0.17322 0.5835 1.0199 0.63571 1.6341 0.0586-0.0109 0.0885-0.0155 0.0953-0.0166v5e-3s-0.73942 0.12347-1.6499 0.12347m-3.2043-1.856c-0.0409-0.0723-0.0621-0.11466-0.0621-0.11466 6.9e-4 -3.4e-4 1e-3 -6.9e-4 2e-3 -1e-3 6e-3 0.0113 0.0261 0.0526 0.061 0.11465-7.1e-4 3.5e-4 -1e-3 6.9e-4 -1e-3 1e-3" fill="#fbf8f7"/>
  </g>
  <g transform="matrix(.035278 0 0 -.035278 -211.84 332.68)">
   <g clip-path="url(#h)">
    <path d="m9808.5 4727.5c-0.73 0-1.46 0.03-2.19 0.08-16.59 1.22-28.71 16.18-27.12 33.39 0.43 4.58 1.77 8.86 3.84 12.65 7.5 1.23 14.59 1.74 21.19 1.74 1.3 0 2.59-0.02 3.85-0.06-4.11-0.59-7.92-3-10.7-6.52h-0.17c-3.33 0-6.16-2.28-6.44-5.29-0.17-1.9 0.74-3.69 2.27-4.85-0.05-0.35-0.09-0.7-0.12-1.05-0.95-10.32 5.7-19.57 14.55-20.21 0.33-0.02 0.65-0.03 0.98-0.03 4 0 7.83 1.77 10.85 4.68 0.15-0.03 0.31-0.05 0.46-0.07 0.1 0 0.19-0.01 0.28-0.01 1.65 0 3.05 1.16 3.18 2.61 0.06 0.67-0.13 1.3-0.5 1.82 1.52 2.6 2.53 5.61 2.84 8.83 0.84 9.37-4.6 17.89-12.25 19.82 9.19-0.66 17.25-2.27 23.99-4.16 1.66-4.38 2.38-9.24 1.9-14.31-1.52-16.46-15.04-29.06-30.69-29.06" fill="url(#d)"/>
   </g>
  </g>
  <g>
   <path d="m134.18 165.55c-0.0116 0-0.0229-3.4e-4 -0.0346-1e-3 -0.31221-0.0226-0.54681-0.3489-0.5133-0.71297 1e-3 -0.0123 2e-3 -0.0247 4e-3 -0.037 0.0349 0.0261 0.0787 0.0434 0.1277 0.0466-0.0282 0.30902 0.19333 0.55597 0.41028 0.5715 8e-3 6.8e-4 0.0159 1e-3 0.024 1e-3 0.0935 0 0.19368-0.0402 0.2787-0.11042 9e-3 0.0374 0.042 0.0684 0.0857 0.0772-0.10654 0.10266-0.24165 0.1651-0.38276 0.1651m0.50341-0.31855c-0.0187-0.0258-0.0497-0.0438-0.0864-0.0462-3e-3 -3.4e-4 -6e-3 -3.4e-4 -8e-3 -3.4e-4h-1e-3c0.0515-0.0765 0.0871-0.16828 0.0967-0.27093 0.0286-0.30833-0.19332-0.55598-0.41028-0.57256-8e-3 -3.7e-4 -0.0152-7.2e-4 -0.0229-7.2e-4 -0.10936 0-0.2279 0.055-0.32103 0.14923-0.0349-0.0268-0.0794-0.0444-0.12912-0.048-4e-3 -3.4e-4 -8e-3 -3.4e-4 -0.0116-7.1e-4 0.0981-0.12417 0.23248-0.20919 0.37748-0.23001 0.0628 2e-3 0.12453 5e-3 0.1845 0.01 0.26987 0.0681 0.46178 0.36865 0.43215 0.6992-0.0109 0.1136-0.0466 0.21978-0.10019 0.31151" fill="#70828e"/>
   <path d="m134.2 165.42c-8e-3 0-0.0159-3.7e-4 -0.024-1e-3 -0.21695-0.0155-0.4385-0.26247-0.41028-0.5715 6e-3 6.9e-4 0.0127 6.9e-4 0.0194 6.9e-4 0.11712 0 0.2159-0.0801 0.22613-0.18556 6e-3 -0.0674-0.0258-0.12982-0.0794-0.17074 0.0931-0.0942 0.21167-0.14923 0.32103-0.14923 8e-3 0 0.0152 3.5e-4 0.0229 7.2e-4 0.21696 0.0166 0.43886 0.26423 0.41028 0.57256-0.01 0.10265-0.0452 0.19438-0.0967 0.27093-0.0579 3.4e-4 -0.10795 0.0406-0.11324 0.0935-7.2e-4 0.01 0 0.0197 2e-3 0.0293-0.085 0.0702-0.18521 0.11042-0.2787 0.11042" fill="#414247"/>
   <path d="m136.39 166.15c6.9e-4 -0.10513-7.2e-4 -1.7784-0.55457-2.2073 6e-3 2e-3 0.0113 4e-3 0.0169 5e-3 0.55598 0.46531 0.53905 2.2024 0.53905 2.2024h-1e-3m-4.9138-1.8429-2e-3 -4e-3c0.99907-0.57362 1.8937-0.75248 2.6229-0.75248h0.0123c-0.0423 2e-3 -0.0843 6e-3 -0.12629 9e-3 -0.70767 0.0166-1.5603 0.2039-2.5072 0.74683" fill="#c3a7a1"/>
   <path d="m136.3 166.17c-0.0522-0.61419-0.20673-1.4608-0.63571-1.6341-0.12453-0.0522-0.2794-0.10901-0.46108-0.15981-0.10618-0.2794-0.32173-0.50271-0.59725-0.6096 0.1397 3e-3 0.27905 7e-3 0.41698 0.0293 0.20214 0.0155 0.40005 0.0561 0.59867 0.0991 0.0744 0.012 0.1471 0.0303 0.21907 0.0512 0.55386 0.42897 0.55527 2.1022 0.55457 2.2073-7e-3 1e-3 -0.0367 6e-3 -0.0953 0.0166m-4.5364-1.3928c-0.0942-0.13511-0.16581-0.254-0.21343-0.33796 0.34678-0.16228 0.70449-0.29281 1.0657-0.40252 0.38559-0.11077 0.77787-0.1905 1.1723-0.23565-0.2092 0.10018-0.38523 0.26811-0.49918 0.47801-0.46602 0.0759-0.9779 0.2293-1.5254 0.49812m-0.22119-0.35207c-0.0349-0.0621-0.0554-0.10336-0.061-0.11465 0.94685-0.54293 1.7995-0.73025 2.5072-0.74683-0.0674 6e-3 -0.13476 0.013-0.20179 0.0229-0.10478 0.0102-0.20885 0.0254-0.3115 0.0494-0.10266 0.0226-0.20708 0.0377-0.30763 0.0681-0.20461 0.0487-0.40252 0.11924-0.59866 0.19121-0.3616 0.13758-0.71014 0.31079-1.0266 0.52987" fill="#c5bcb9"/>
  </g>
  <g transform="matrix(.035278 0 0 -.035278 -211.84 332.68)">
   <g clip-path="url(#g)">
    <path d="m9837.3 4770.8c-6.74 1.89-14.8 3.5-23.99 4.16-0.75 0.19-1.52 0.32-2.31 0.38-0.32 0.02-0.65 0.03-0.98 0.03-0.65 0-1.3-0.05-1.94-0.14-1.26 0.04-2.55 0.06-3.85 0.06-6.6 0-13.69-0.51-21.19-1.74 3.23 5.95 8.22 10.71 14.15 13.55 0.23 0.02 0.45 0.05 0.67 0.07 5.71 0.81 11.45 0.79 17.18 1.06 1.77-0.08 3.55-0.11 5.33-0.15 7.81-3.03 13.92-9.36 16.93-17.28" fill="url(#c)"/>
   </g>
  </g>
  <g>
   <path d="m134.35 164.23c-0.06-5e-3 -0.12171-8e-3 -0.1845-0.01 0.0226-3e-3 0.0455-5e-3 0.0684-5e-3 0.0117 0 0.0233 3.7e-4 0.0346 1e-3 0.0279 2e-3 0.055 7e-3 0.0815 0.0134" fill="#6e777d"/>
   <path d="m136.81 164.65c-0.18662-0.21625-0.40111-0.40463-0.60819-0.5976-0.11606-0.0317-0.22931-0.0716-0.34361-0.10583-6e-3 -1e-3 -0.0113-3e-3 -0.0169-5e-3 -0.072-0.0208-0.14464-0.0392-0.21907-0.0512-0.19862-0.043-0.39653-0.0836-0.59867-0.0991-0.13793-0.0219-0.27728-0.0261-0.41698-0.0293-0.0628-1e-3 -0.12559-2e-3 -0.18803-5e-3 -0.20214 0.01-0.40464 9e-3 -0.60607 0.0374-8e-3 6.9e-4 -0.0155 2e-3 -0.0236 2e-3 -0.39441 0.0452-0.78669 0.12488-1.1723 0.23565-0.36125 0.10971-0.71896 0.24024-1.0657 0.40252-3.7e-4 0-1e-3 3.4e-4 -1e-3 7.1e-4 -0.0279 0.0127-0.0554 0.0261-0.0833 0.0395 0.025-0.018 0.0501-0.036 0.0755-0.0533 3.4e-4 -3.7e-4 6.9e-4 -7.1e-4 1e-3 -1e-3 0.31644-0.21908 0.66498-0.39229 1.0266-0.52987 0.19614-0.072 0.39405-0.14253 0.59866-0.19121 0.10055-0.0303 0.20497-0.0455 0.30763-0.0681 0.10265-0.024 0.20672-0.0392 0.3115-0.0494 0.067-0.01 0.13441-0.0173 0.20179-0.0229 0.042-4e-3 0.084-7e-3 0.12629-9e-3 0.10054-6e-3 0.20144-9e-3 0.30269-0.0113 0.10548 3.7e-4 0.2106 0.01 0.31608 0.0145 0.10549 3e-3 0.21061 0.0127 0.31433 0.0328 0.20955 0.0272 0.41592 0.0713 0.61771 0.13405 0.20461 0.0512 0.39441 0.14746 0.59091 0.21872l0.012 4e-3 8e-3 9e-3c0.19509 0.21802 0.38559 0.44344 0.5327 0.69779" fill="#ebbdb7"/>
   <path d="m133.79 164.85c-7e-3 0-0.0131 0-0.0194-6.9e-4 -0.049-3e-3 -0.0928-0.0205-0.1277-0.0466-0.054-0.0409-0.0861-0.10407-0.0801-0.1711 0.01-0.10618 0.10971-0.18662 0.22719-0.18662h6e-3c4e-3 3.7e-4 8e-3 3.7e-4 0.0116 7.2e-4 0.0497 4e-3 0.0942 0.0212 0.12912 0.048 0.0536 0.0409 0.085 0.10336 0.0794 0.17074-0.0102 0.10548-0.10901 0.18556-0.22613 0.18556" fill="#fbf8f7"/>
   <path d="m134.59 165.39c-3e-3 0-6e-3 -3.7e-4 -0.01-3.7e-4 -5e-3 -6.9e-4 -0.0109-1e-3 -0.0162-2e-3 -0.0437-9e-3 -0.0766-0.0399-0.0857-0.0772-2e-3 -0.01-3e-3 -0.0194-2e-3 -0.0293 5e-3 -0.0529 0.0554-0.0931 0.11324-0.0935h1e-3c2e-3 0 5e-3 0 8e-3 3.4e-4 0.0367 2e-3 0.0677 0.0205 0.0864 0.0462 0.013 0.0183 0.0198 0.0406 0.0176 0.0642-5e-3 0.0511-0.054 0.0921-0.11218 0.0921" fill="#fbf8f7"/>
   <path d="m141.49 162.74s0.1905-0.31891 0.63148-0.65335c0.10583-0.0885 0.23283-0.16651 0.36689-0.25188 0.14111-0.0723 0.28222-0.16475 0.4445-0.22366 0.16227-0.067 0.32808-0.13441 0.508-0.17604 0.17286-0.0561 0.3563-0.0776 0.53975-0.11218 0.18344-0.025 0.37041-0.0222 0.55386-0.0342 0.17991 4e-3 0.35983 0.0265 0.52916 0.0388 0.17286 0.0275 0.33514 0.0663 0.48684 0.0995 0.15522 0.0318 0.2928 0.0938 0.4198 0.13723 0.26106 0.0822 0.45509 0.20567 0.5962 0.27834 0.13405 0.0794 0.21166 0.12453 0.21166 0.12453s-0.0882-0.0155-0.24341-0.0427c-0.15523-0.0257-0.36689-0.0868-0.62795-0.11571-0.13053-0.0148-0.26458-0.0473-0.41275-0.0586-0.14816-0.0116-0.30339-0.024-0.46214-0.0367-0.16227 0-0.32455 0-0.49389 3.7e-4 -0.1658 0.0162-0.33513 0.0187-0.50094 0.0455-0.16581 0.0272-0.33514 0.0406-0.49742 0.0875-0.16227 0.036-0.32102 0.0748-0.47272 0.12665-0.30339 0.0956-0.57855 0.21167-0.81492 0.32667-0.46566 0.22754-0.762 0.43992-0.762 0.43992" fill="#6f4848"/>
   <path d="m143.93 166.31c-0.9772 0-1.7992-0.14781-1.7992-0.14781v-5e-3c7e-3 1e-3 0.0353 6e-3 0.0953 0.0187 0.0423-0.60678 0.18344-1.4393 0.61031-1.6048 0.14463-0.0582 0.33161-0.12206 0.55386-0.17498-0.0459 0.14217-0.067 0.29739-0.0529 0.45861 0.0564 0.57433 0.53269 1.0128 1.083 1.0128 0.0247 0 0.0529-1e-3 0.0776-3e-3 0.58561-0.0423 1.0125-0.56374 0.95603-1.1635-0.0106-0.11112-0.0353-0.21731-0.0741-0.31608 0.41981 0.0889 0.87489 0.2413 1.3617 0.48224 0.127-0.18238 0.21166-0.33408 0.25047-0.40957v6.9e-4c-0.14817 0.27588-0.94192 1.6598-2.1308 1.8002-0.31044 0.0374-0.62794 0.0515-0.93133 0.0515m3.0656-1.8549c0-3.5e-4 0-7.2e-4 -4e-3 -1e-3 0.0141-0.0226 0.0212-0.0378 0.0247-0.0441v7.2e-4s-7e-3 0.0159-0.0212 0.0445" fill="#fbf8f7"/>
  </g>
  <g transform="matrix(.035278 0 0 -.035278 -211.84 332.68)">
   <g clip-path="url(#f)">
    <path d="m10099 4728.4c-15.6 0-29.1 12.43-30.7 28.71-0.4 4.57 0.2 8.97 1.5 13 5.7 1.36 12.3 2.46 19.6 2.98-1.5-1.08-2.9-2.46-4-4.05-2.7-0.51-4.9-2.53-5.1-5.09-0.2-1.64 0.5-3.18 1.7-4.31-0.1-1.26-0.1-2.56 0-3.87 0.9-9.81 8.6-17.65 17.1-17.66 0.3 0 0.6 0.02 1 0.04 3.6 0.26 6.8 1.94 9.3 4.53l0.1-0.01c1.7 0 3.1 1.14 3.2 2.6 0.1 0.54 0 1.06-0.3 1.51 1.7 3.28 2.6 7.22 2.2 11.33-0.6 6.41-4.1 11.98-8.8 15.07 6.4-0.38 13.2-1.24 20.4-2.76 1.1-2.8 1.8-5.81 2.1-8.96 1.6-17-10.5-31.78-27.1-32.98-0.7-0.05-1.5-0.08-2.2-0.08" fill="url(#b)"/>
   </g>
  </g>
  <g>
   <path d="m144.42 165.53c-0.29987-3.4e-4 -0.5715-0.27693-0.60325-0.62301-4e-3 -0.0462-4e-3 -0.0921 0-0.13652 0.0247 0.0247 0.06 0.0437 0.0952 0.0547 0 0.0247 0 0.0497 4e-3 0.0755 0.0282 0.29422 0.27517 0.49848 0.48684 0.49848 7e-3 0 0.0141 0 0.0247-7.1e-4 0.0847-6e-3 0.17639-0.0501 0.24695-0.12029 7e-3 0.0473 0.0494 0.0864 0.10583 0.0907h4e-3c-0.0882 0.0914-0.20109 0.15064-0.32809 0.15981-0.0141 7.1e-4 -0.0247 1e-3 -0.0353 1e-3m0.46919-0.30586c-0.0176-0.0303-0.0529-0.0522-0.0917-0.0547-4e-3 0-7e-3 -3.4e-4 -0.0106-3.4e-4 -0.0106 0-0.0176 1e-3 -0.0282 4e-3 0.0564-0.0942 0.0882-0.21096 0.0776-0.33867-0.0282-0.29351-0.27516-0.49883-0.48683-0.49883-7e-3 0-0.0176 3.4e-4 -0.0247 1e-3 -0.0847 6e-3 -0.17287 0.0494-0.24342 0.11748-0.0247-0.0102-0.0529-0.0166-0.0811-0.0187-4e-3 -3.4e-4 -0.0106-7.1e-4 -0.0141-7.1e-4 -0.0176 0-0.0353 2e-3 -0.0494 5e-3 0.0388-0.0561 0.0882-0.10478 0.14111-0.14288 0.0988-7e-3 0.20461-0.0109 0.31045-0.0109 0.0882 0 0.17638 2e-3 0.26811 8e-3 0.1658 0.10901 0.28927 0.3055 0.31044 0.53163 0.0141 0.145-0.0176 0.28399-0.0776 0.3997" fill="#70828e"/>
   <path d="m144.41 165.4c-0.21167 0-0.45861-0.20426-0.48684-0.49848-4e-3 -0.0257-4e-3 -0.0508-4e-3 -0.0755 0.0176 4e-3 0.0353 7e-3 0.0529 9e-3 4e-3 3.4e-4 0.0106 7.1e-4 0.0176 7.1e-4 0.11642 0 0.2152-0.0794 0.22578-0.18345 7e-3 -0.0854-0.0459-0.16263-0.127-0.19755 0.0706-0.0681 0.15875-0.11113 0.24342-0.11748 7e-3 -7.1e-4 0.0176-1e-3 0.0247-1e-3 0.21167 0 0.45861 0.20532 0.48683 0.49883 0.0106 0.12771-0.0212 0.24447-0.0776 0.33867-0.0459 0.0102-0.0811 0.0452-0.0847 0.0878v0.0176c-0.0706 0.0702-0.16228 0.11394-0.24695 0.12029-0.0106 7.1e-4 -0.0176 7.1e-4 -0.0247 7.1e-4" fill="#414247"/>
   <path d="m142.13 166.16s-0.0529-1.9745 0.63147-2.244c7e-3 -2e-3 0.0106-4e-3 0.0141-6e-3 0.0176-4e-3 0.0317-7e-3 0.0494-0.01-0.0212 8e-3 -0.0423 0.0159-0.0635 0.024-0.66322 0.26-0.635 2.1237-0.63147 2.2352m4.886-1.747c-0.26105-0.14922-0.51153-0.27269-0.75494-0.37359-0.0459-0.0201-0.0882-0.0395-0.13406-0.0582 0.28575 0.11042 0.58209 0.25118 0.889 0.42792v4e-3" fill="#c3a7a1"/>
   <path d="m142.23 166.18c-0.06-0.0131-0.0882-0.0176-0.0953-0.0187-4e-3 -0.11148-0.0317-1.9752 0.63147-2.2352 0.0212-8e-3 0.0423-0.0159 0.0635-0.024 0.0106-2e-3 0.0212-4e-3 0.0317-6e-3 0.19756-0.0423 0.39511-0.0825 0.59972-0.0974 0.17287-0.0275 0.34925-0.0268 0.52212-0.0314-0.2787 0.11395-0.49037 0.34608-0.58914 0.63253-0.22225 0.0529-0.40923 0.11677-0.55386 0.17498-0.42687 0.16545-0.56798 0.99801-0.61031 1.6048m4.5156-1.3085c-0.48684-0.24094-0.94192-0.39334-1.3617-0.48224-0.0988-0.23989-0.27164-0.43674-0.49036-0.55951 0.32809 0.0462 0.65264 0.11571 0.97014 0.20602 0.38453 0.11465 0.76553 0.25224 1.1324 0.42616-0.0388 0.0755-0.12347 0.22719-0.25047 0.40957m0.25047-0.4131c-0.22931-0.16263-0.47272-0.30057-0.73025-0.41769 0.24341 0.1009 0.49389 0.22437 0.75494 0.37359-4e-3 6e-3 -0.0106 0.0215-0.0247 0.0441" fill="#c5bcb9"/>
  </g>
  <g transform="matrix(.035278 0 0 -.035278 -211.84 332.68)">
   <g clip-path="url(#e)">
    <path d="m10070 4770.1c2.8 8.12 8.8 14.7 16.7 17.93 0.8 0.02 1.5 0.05 2.3 0.08 5.7-0.27 11.5-0.24 17.2-1.03 2.1-0.24 4.2-0.5 6.3-0.81 6.2-3.48 11.1-9.06 13.9-15.86-7.2 1.52-14 2.38-20.4 2.76-2.5 1.63-5.4 2.57-8.3 2.57-0.3 0-0.6-0.01-1-0.04-2.6-0.18-5-1.12-7.1-2.62-7.3-0.52-13.9-1.62-19.6-2.98" fill="url(#a)"/>
   </g>
  </g>
  <g>
   <path d="m144.08 164.29c0.0741-0.0529 0.15875-0.0861 0.25047-0.0924 0.0141-1e-3 0.0247-1e-3 0.0353-1e-3 0.10231 0 0.20461 0.0332 0.29281 0.0907-0.0917-5e-3 -0.17992-8e-3 -0.26811-8e-3 -0.10584 0-0.21167 4e-3 -0.31045 0.0109" fill="#6e777d"/>
   <path d="m141.67 164.64c0.14817-0.25118 0.33867-0.47378 0.5327-0.68933l7e-3 -9e-3 0.0141-4e-3c0.19756-0.0706 0.38806-0.16581 0.58914-0.21626 0.20461-0.0617 0.40922-0.10548 0.61736-0.13264 0.10584-0.0198 0.21167-0.0296 0.3175-0.0325 0.10231-4e-3 0.20814-0.0138 0.31397-0.0141 0.21167 5e-3 0.41981 0.0127 0.63148 0.0423 0.1023 0.0106 0.20814 0.025 0.31044 0.0487 0.10231 0.0226 0.20461 0.0374 0.30692 0.0674 0.20461 0.048 0.40216 0.11783 0.59972 0.18874 0.0741 0.0279 0.14817 0.0575 0.21872 0.0885 0.0459 0.0187 0.0882 0.0381 0.13406 0.0582 0.25753 0.11712 0.50094 0.25506 0.73025 0.41769 4e-3 3.4e-4 4e-3 7.1e-4 4e-3 1e-3 7e-3 4e-3 0.0106 8e-3 0.0176 0.0127-7e-3 -3e-3 -0.0141-6e-3 -0.0212-0.01v-6.8e-4c-0.36689-0.17392-0.74789-0.31151-1.1324-0.42616-0.3175-0.0903-0.64205-0.15981-0.97014-0.20602-0.0741-0.0109-0.14816-0.0201-0.22225-0.0286-0.20108-0.0279-0.40569-0.0268-0.60678-0.0363-0.0282 1e-3 -0.0529 2e-3 -0.0811 3e-3 -0.17287 5e-3 -0.34925 4e-3 -0.52212 0.0314-0.20461 0.0148-0.40216 0.055-0.59972 0.0974-0.0106 2e-3 -0.0212 4e-3 -0.0317 6e-3 -0.0176 3e-3 -0.0317 6e-3 -0.0494 0.01-0.16933 0.0367-0.33161 0.0991-0.50094 0.14464-0.20461 0.1898-0.41981 0.37536-0.60678 0.58844" fill="#ebbdb7"/>
   <path d="m143.99 164.83c-7e-3 0-0.0141-3.7e-4 -0.0176-7.1e-4 -0.0176-1e-3 -0.0353-5e-3 -0.0529-9e-3 -0.0353-0.0109-0.0706-0.03-0.0952-0.0547-0.0423-0.0399-0.067-0.0942-0.06-0.15205 7e-3 -0.0903 0.0847-0.16157 0.17992-0.17956 0.0141-3e-3 0.0317-5e-3 0.0494-5e-3 4e-3 0 0.0106 3.7e-4 0.0141 7.2e-4 0.0282 2e-3 0.0564 8e-3 0.0811 0.0187 0.0811 0.0349 0.13405 0.11218 0.127 0.19755-0.0106 0.10407-0.10936 0.18345-0.22578 0.18345" fill="#fbf8f7"/>
   <path d="m144.79 165.37-4e-3 -3.4e-4h-4e-3c-0.0564-4e-3 -0.0988-0.0434-0.10583-0.0907v-0.0176c4e-3 -0.0427 0.0388-0.0776 0.0847-0.0878 0.0106-2e-3 0.0176-4e-3 0.0282-4e-3 4e-3 0 7e-3 3.4e-4 0.0106 3.4e-4 0.0388 2e-3 0.0741 0.0243 0.0917 0.0547 0.0106 0.0159 0.0141 0.0342 0.0106 0.0533-4e-3 0.0515-0.0529 0.0917-0.11289 0.0917" fill="#fbf8f7"/>
   <path d="m147.84 169.64c-7e-3 -7.1e-4 -0.0141-2e-3 -0.0212-3e-3 0.44803-1.9636 1.6969-7.7018 1.3406-9.1324-0.0423-0.1771-0.14817-0.33444-0.30339-0.47449 0.13405 0.10477 0.23283 0.22719 0.28927 0.37042 7e-3 9e-3 0.0106 0.018 0.0176 0.0272 7e-3 0.0222 0.0141 0.0445 0.0176 0.0677 0.35984 1.4376-0.89253 7.1938-1.3406 9.1444" fill="#3e393b"/>
   <path d="m130.84 169.65c-3.7e-4 -6.9e-4 -3.7e-4 -1e-3 -7.2e-4 -2e-3 0.18309-0.0258 0.37112-0.0533 0.56162-0.0825-0.19014 0.0296-0.37782 0.0579-0.56091 0.0847m17.001-8e-3c-1.1606-0.17709-2.5082-0.40957-3.6266-0.69109-0.86431-0.21308-1.591-0.45544-1.9791-0.71967 0.889 0.5969 3.5348 1.0922 5.5809 1.4062 7e-3 1e-3 0.0141 2e-3 0.0212 3e-3 0.44802-1.9505 1.7004-7.7068 1.3406-9.1444-4e-3 -0.0233-0.0106-0.0455-0.0176-0.0677 0.0106 0.0233 0.0176 0.0462 0.0212 0.0691 0.35983 1.4376-0.89606 7.1938-1.3406 9.1447m-13.481-0.65157c0.92604-0.23354 1.6926-0.50412 2.0528-0.80363 0.70661-0.57573 1.7551-0.87312 2.8289-0.87312 0.70097 0 1.4129 0.12664 2.0479 0.38523-0.63324-0.25717-1.3441-0.38347-2.0447-0.38347-1.0735 0-2.1227 0.29669-2.8289 0.87277-0.35878 0.30163-1.1268 0.57044-2.056 0.80222m4.8327-9.2332v-6e-3h3e-3v6e-3h-3e-3" fill="#9596a8"/>
  </g>
 </g>
</svg>
